<svg width="21" height="24" viewBox="0 0 21 24" fill="none" xmlns="http://www.w3.org/2000/svg">
<path d="M7.224 16.704L11.496 23.4H8.4L5.544 18.912L2.856 23.4H0L4.272 16.896L0 10.176H3.096L5.952 14.664L8.64 10.176H11.496L7.224 16.704Z" fill="black"/>
<path d="M17.055 0C17.705 0 18.285 0.135 18.795 0.404999C19.315 0.674999 19.72 1.075 20.01 1.605C20.3 2.135 20.445 2.775 20.445 3.525V8.4H18.75V3.78C18.75 3.04 18.565 2.475 18.195 2.085C17.825 1.685 17.32 1.485 16.68 1.485C16.04 1.485 15.53 1.685 15.15 2.085C14.78 2.475 14.595 3.04 14.595 3.78V8.4H12.885V0.135H14.595V1.08C14.875 0.74 15.23 0.475 15.66 0.285C16.1 0.095 16.565 0 17.055 0Z" fill="black"/>
</svg>
