<?xml version="1.0" standalone="no"?>
<!DOCTYPE svg PUBLIC "-//W3C//DTD SVG 20010904//EN"
 "http://www.w3.org/TR/2001/REC-SVG-20010904/DTD/svg10.dtd">
<svg version="1.0" xmlns="http://www.w3.org/2000/svg"
 width="512.000000pt" height="512.000000pt" viewBox="0 0 512.000000 512.000000"
 preserveAspectRatio="xMidYMid meet">

<g transform="translate(0.000000,512.000000) scale(0.100000,-0.100000)"
fill="#000000" stroke="none">
<path d="M1585 4155 c-5 -2 -22 -6 -36 -9 -30 -7 -77 -51 -90 -85 -5 -12 -101
-577 -214 -1255 -113 -677 -208 -1244 -212 -1260 -7 -26 -23 -6 -232 308 -203
304 -229 338 -267 357 -40 19 -58 20 -238 17 -213 -3 -221 -5 -270 -72 -30
-40 -29 -120 3 -165 37 -52 72 -61 226 -61 l135 0 310 -465 c235 -352 317
-468 341 -480 72 -38 171 -9 203 59 8 18 119 655 246 1416 127 760 233 1387
236 1391 3 5 736 9 1648 9 l1643 0 34 23 c91 61 89 181 -5 251 l-27 21 -1712
2 c-942 1 -1716 0 -1722 -2z"/>
<path d="M2652 3173 c-66 -32 -98 -116 -69 -183 8 -19 179 -232 380 -474 l365
-438 -347 -417 c-438 -526 -406 -482 -406 -547 0 -59 22 -97 73 -127 42 -25
117 -24 151 0 14 11 179 202 366 426 187 223 345 411 351 417 7 7 109 -108
346 -392 185 -222 349 -416 366 -431 51 -49 133 -52 191 -9 14 10 35 40 45 65
34 81 32 83 -356 550 -193 232 -359 431 -370 443 -19 21 -18 22 343 455 199
239 369 445 377 458 23 35 20 110 -6 153 -39 62 -127 86 -193 53 -16 -9 -182
-198 -379 -435 -193 -231 -354 -420 -358 -419 -4 0 -164 189 -356 421 -255
306 -359 424 -383 434 -43 18 -90 17 -131 -3z"/>
</g>
</svg>
