<svg width="86" height="38" viewBox="0 0 86 38" fill="none" xmlns="http://www.w3.org/2000/svg">
<path d="M83 21.5C84.3807 21.5 85.5 20.3807 85.5 19C85.5 17.6193 84.3807 16.5 83 16.5L83 21.5ZM1.23223 17.2322C0.25592 18.2085 0.25592 19.7914 1.23223 20.7678L17.1421 36.6777C18.1184 37.654 19.7014 37.654 20.6777 36.6777C21.654 35.7014 21.654 34.1184 20.6777 33.1421L6.53554 19L20.6777 4.85786C21.654 3.88155 21.654 2.29864 20.6777 1.32233C19.7014 0.346014 18.1184 0.346014 17.1421 1.32232L1.23223 17.2322ZM83 16.5L3 16.5L3 21.5L83 21.5L83 16.5Z" fill="white"/>
</svg>
