<svg width="1264" height="1169" viewBox="0 0 1264 1169" fill="none" xmlns="http://www.w3.org/2000/svg">
<path d="M616.933 1.29393C602.151 6.12544 591.918 14.9213 585.601 27.9292C581.937 35.4862 581.558 37.3444 581.558 47.9985C581.558 58.9004 581.937 60.5109 585.727 68.0679C595.581 87.6417 616.806 98.9152 637.273 95.1987C652.56 92.3493 666.584 81.943 673.154 68.3157C687.935 37.4683 665.952 1.5417 631.588 0.0550789C625.903 -0.192691 619.965 0.426734 616.933 1.29393Z" fill="#7A7A7A"/>
<path d="M751.452 59.3958C736.797 66.8289 733.007 83.8011 743.367 95.0747C754.611 107.339 772.93 105.853 781.142 92.1014C788.091 80.4562 783.543 65.0945 771.414 59.2719C764.213 55.927 758.401 55.927 751.452 59.3958Z" fill="#7A7A7A"/>
<path d="M499.215 76.24C497.699 76.4878 494.919 78.3461 493.15 80.3282C484.559 90.3629 494.666 103.371 507.048 98.2915C519.934 92.9645 513.238 74.0101 499.215 76.24Z" fill="#7A7A7A"/>
<path d="M948.57 98.7889C945.411 103.125 945.79 105.231 950.339 108.08C957.287 112.54 961.962 106.718 957.414 99.4083C954.002 94.0813 952.107 93.9574 948.57 98.7889Z" fill="#7A7A7A"/>
<path d="M215.642 127.283C157.527 136.946 111.667 182.164 101.56 239.894C94.1056 282.387 105.981 319.305 139.461 357.957C144.641 363.779 148.81 369.23 148.81 369.85C148.81 370.593 147.167 374.31 145.02 378.15C142.998 381.99 141.23 386.203 141.23 387.441C141.23 391.282 147.925 398.343 167.76 414.944C184.816 429.315 209.452 451.242 226.76 467.471C229.792 470.197 232.193 473.541 232.193 474.904C232.193 476.143 231.056 480.727 229.666 485.063C225.497 498.318 223.981 513.556 225.749 527.555C227.645 542.669 230.424 552.704 239.268 576.242C243.058 586.277 250.764 607.709 256.323 623.69C270.599 665.191 283.612 689.101 302.815 709.79C306.985 714.126 311.533 720.32 313.049 723.417C316.207 730.107 318.734 731.965 329.725 736.053L337.685 738.903L337.306 746.831C336.927 754.388 337.053 755.132 341.854 761.574C349.055 771.485 351.834 777.555 355.498 791.058C359.541 805.925 362.573 810.137 377.228 821.162C386.451 828.1 389.483 829.71 393.273 829.71C400.98 829.71 405.402 832.684 418.92 846.559C440.776 869.106 452.146 888.06 462.253 918.908C465.917 930.057 467.307 932.659 472.361 937.738C476.53 941.826 480.193 944.056 485.373 945.667C500.028 950.127 504.829 942.817 494.975 930.677C492.954 928.075 491.185 924.978 491.185 923.615C491.185 921.757 493.206 922.996 500.281 928.942C512.536 939.349 519.358 943.313 527.191 944.923C537.298 947.029 543.362 943.189 541.088 936.252C540.709 934.889 535.403 929.686 529.339 924.606C508.998 907.634 506.093 902.431 525.296 917.297C539.446 928.323 545.257 931.172 553.343 931.296C558.017 931.296 559.66 930.677 561.176 928.571C564.713 923.615 563.703 920.394 557.259 916.058C553.975 913.952 548.542 909.616 545.131 906.519C536.666 898.962 516.452 875.052 516.452 872.699C516.452 869.849 521.506 866.876 526.433 866.876C528.833 866.876 536.919 868.858 544.373 871.212C560.165 876.167 565.85 876.663 569.514 873.07C574.568 868.115 572.799 864.77 560.291 855.479C554.733 851.266 546.394 844.453 541.846 840.488C530.602 830.454 522.011 825.251 508.998 820.543C498.639 816.826 498.007 816.331 494.722 810.508C490.427 802.58 483.857 796.757 477.54 795.147C473.119 793.908 472.487 793.164 470.592 787.466C469.328 783.997 468.444 778.174 468.444 774.582C468.444 764.299 466.675 761.45 452.652 748.69C439.134 736.425 434.459 730.231 431.68 720.692C430.669 717.223 428.269 713.506 425.363 710.781C422.078 707.684 420.436 704.958 419.804 701.49C419.425 698.764 418.162 692.694 417.025 688.11C416.014 683.526 415.256 679.562 415.509 679.314C415.761 679.066 420.057 680.429 424.858 682.411C442.924 689.473 465.538 690.464 478.93 684.393C497.881 675.845 506.724 658.378 502.05 638.68C494.849 608.576 466.17 578.348 425.742 558.526C418.541 554.934 387.462 542.421 356.635 530.528C302.815 509.84 291.698 505.256 294.982 505.132C298.899 505.008 413.108 547.996 426.5 554.562C466.044 574.012 491.564 599.408 501.924 629.636C503.819 635.087 505.966 641.158 506.598 643.016C507.482 645.246 513.294 650.449 522.769 657.634C538.688 669.403 543.994 674.978 550.563 686.5C557.259 698.145 560.923 701.118 576.21 707.56C581.516 709.79 583.411 711.277 583.411 713.135C583.411 717.471 589.223 722.674 597.308 725.523C609.816 729.983 611.458 732.089 612.469 744.478C612.974 750.672 614.111 756.123 615.248 757.733C616.259 759.22 621.944 763.804 627.756 768.016C633.567 772.104 644.053 781.148 651.002 788.085C661.235 798.12 664.899 802.951 670.079 812.367C677.912 826.737 682.46 830.454 694.588 832.064C701.79 832.931 703.179 833.551 705.959 837.144C713.16 846.435 719.351 852.258 725.794 855.85C729.71 858.08 733.879 861.673 735.522 864.274C740.449 871.707 742.723 873.07 754.725 874.928C779.614 878.893 782.267 879.512 786.689 881.742C793.005 884.839 796.038 888.308 802.102 899.705C812.714 919.775 818.02 924.359 833.686 927.084C845.815 929.066 846.952 929.686 856.301 938.11C866.66 947.401 871.082 948.516 884.348 945.047C889.906 943.561 894.834 942.694 895.086 942.941C895.465 943.313 893.318 944.676 890.538 946.162C883.59 949.631 884.979 951.489 894.076 950.87C899.255 950.498 904.435 948.764 913.784 944.304C924.144 939.349 928.06 936.499 935.641 929.066C940.694 923.987 945.116 920.146 945.369 920.394C945.621 920.642 943.474 923.987 940.568 927.827C934.504 935.756 924.776 944.056 917.953 947.153C915.3 948.268 913.153 949.631 913.153 950.003C913.153 950.374 915.427 951.737 918.08 952.976C924.27 955.701 927.429 954.71 939.683 946.782C961.161 932.783 973.037 913.333 978.09 883.477L979.859 873.69L979.985 881.866C980.49 910.607 959.771 941.207 929.576 956.073C926.418 957.56 923.639 959.046 923.386 959.294C922.249 960.285 930.587 968.957 935.514 971.806C939.81 974.284 943.853 975.275 952.57 976.019C966.341 977.257 990.092 983.576 997.799 987.912C1005.76 992.495 1014.98 1001.41 1029.51 1018.14C1044.8 1035.98 1054.9 1045.02 1065.77 1050.6C1084.21 1060.14 1105.56 1061.62 1118.96 1054.56C1127.17 1050.23 1132.22 1043.66 1135.13 1034.24C1137.02 1027.8 1137.02 1026.32 1135.13 1015.66C1130.96 991.256 1118.83 974.904 1090.78 956.073C1066.65 939.968 1058.06 930.305 1051.24 911.722C1046.69 899.458 1041.89 895.369 1031.66 895.369C1024.96 895.369 1024.84 895.246 1018.14 886.326C1013.59 880.132 1011.32 878.521 1002.47 874.433C988.702 868.115 980.617 862.292 973.668 853.62C965.709 843.709 958.887 838.878 948.148 835.781C935.262 832.064 933.114 830.702 920.606 819.18C911.889 811.004 907.088 807.659 897.739 803.323C883.716 796.633 875.378 788.952 867.671 775.201C860.343 762.317 855.037 757.362 841.898 750.796C826.99 743.487 818.526 735.186 812.082 721.559C807.787 712.639 788.078 653.051 788.078 649.086C788.078 648.219 788.71 647.6 789.342 647.6C792.753 647.6 849.605 664.572 861.986 669.28C890.412 680.058 916.185 694.552 939.052 712.639C951.18 722.302 959.645 727.01 968.741 729.364C971.9 730.107 976.7 732.337 979.48 734.195C982.259 736.053 986.428 738.283 988.829 739.027C994.135 740.885 1022.18 740.885 1033.17 739.151C1058.19 735.186 1078.4 714.745 1082.44 689.473C1084.59 675.845 1082.44 666.802 1071.71 644.255C1068.04 636.698 1063.24 627.902 1060.97 624.681C1056.29 618.115 1047.95 612.416 1039.11 609.815C1031.03 607.461 1026.22 604.364 1019.02 596.931C1014.73 592.595 1011.06 590.241 1006.39 588.63C994.009 584.666 987.313 580.454 975.058 568.809C964.572 558.774 961.666 556.792 954.97 554.562C939.936 549.607 929.955 540.935 921.87 526.193C917.448 518.016 915.174 516.529 905.32 514.919C895.339 513.308 892.559 511.326 886.622 501.292C878.789 488.284 874.746 486.054 852.384 483.328C834.697 481.222 823.074 477.877 816.252 473.046C807.534 466.852 803.744 465.489 795.406 465.489C782.267 465.489 778.35 463.755 769.128 454.215C764.579 449.508 759.273 445.172 757.252 444.428C755.23 443.685 748.029 442.57 741.207 441.827C727.689 440.464 720.488 438.482 714.676 434.394L710.886 431.792L686.629 442.942C659.719 455.33 652.771 457.189 640.895 455.33C634.199 454.215 631.42 454.463 621.186 456.817C597.814 462.268 584.296 460.781 548.163 448.764C540.835 446.411 534.266 444.428 533.634 444.428C532.876 444.428 530.097 449.756 527.317 456.198L522.517 467.843L515.947 464.126C512.41 462.02 507.103 459.171 504.071 457.684C498.891 455.206 498.639 454.711 499.397 450.994C499.776 448.764 499.649 446.906 499.018 446.906C497.123 446.906 491.185 434.022 491.185 429.686C491.185 426.094 491.564 425.598 493.964 426.217C495.354 426.589 498.512 426.217 500.913 425.226C504.703 423.616 506.851 424.607 503.819 426.465C501.924 427.58 502.303 429.562 504.324 429.562C508.24 429.562 517.716 416.802 526.433 399.458C531.36 389.795 535.403 382.114 535.403 382.486C535.529 382.858 536.287 389.424 537.172 397.104C538.182 404.785 539.193 411.475 539.572 411.847C539.951 412.218 545.384 411.599 551.448 410.608C566.103 408.006 585.054 406.024 595.54 406.024C611.079 406.024 617.143 411.475 623.839 431.916C627.882 444.428 630.03 447.526 637.357 451.118C644.559 454.711 653.023 453.72 669.195 447.402C695.978 436.995 717.961 424.235 728.068 413.209C736.406 404.042 739.059 398.343 739.817 388.061C740.196 380.504 739.944 378.893 737.291 375.177C733.121 369.106 728.952 366.505 722.256 365.638C717.203 365.018 716.066 365.266 713.665 367.744C710.128 371.46 710.254 374.557 714.297 380.256L717.582 384.84L713.413 388.309C706.591 394.007 705.074 394.875 689.282 401.812C680.944 405.529 672.606 408.502 670.837 408.502C668.31 408.502 655.171 399.334 623.208 375.548C598.951 357.461 577.852 341.604 576.589 340.365C574.189 338.011 574.189 338.011 576.589 337.144C584.675 334.171 592.508 330.207 598.445 325.747C602.236 322.897 605.899 321.039 606.531 321.411C607.163 321.782 604.889 323.765 601.604 325.871C595.54 329.587 595.413 329.587 598.572 330.826C600.341 331.569 605.394 333.799 609.816 335.905C625.861 343.215 638.747 341.356 651.507 329.711C655.55 325.995 659.467 323.021 660.098 323.021C660.73 323.021 663.13 324.88 665.404 327.233C670.837 332.808 679.302 336.277 689.535 337.268C702.169 338.631 706.591 339.994 713.16 345.197C724.657 353.992 728.952 354.736 740.575 349.533C749.04 345.692 751.819 346.064 758.263 352.134C763.569 357.09 767.106 357.461 771.654 353.992C776.076 350.648 778.477 350.895 786.689 355.727C790.605 357.957 797.806 361.673 802.607 363.903C809.177 367 813.598 370.221 819.663 376.54C842.151 399.954 844.299 401.936 849.984 403.794C857.185 406.148 863.123 408.254 869.44 410.608C877.652 413.581 889.78 414.201 893.444 411.847C900.392 407.387 898.371 400.697 889.022 396.857C868.555 388.432 861.354 382.982 861.354 375.92C861.354 371.956 870.829 363.284 876.894 361.673C885.232 359.443 890.538 361.921 905.067 374.557C916.185 384.22 919.09 386.203 922.502 386.203C930.208 386.203 933.114 379.141 928.439 372.204C927.176 370.221 920.227 362.541 913.153 355.107C904.435 345.816 901.024 341.604 902.667 341.604C905.32 341.604 915.679 346.188 922.754 350.524C929.197 354.488 932.861 355.355 936.904 353.869C943.6 351.391 944.105 345.073 938.294 339.622C936.146 337.64 932.988 333.18 931.219 329.587C927.681 322.402 917.827 312.615 911.51 310.137C909.362 309.146 902.919 308.031 897.36 307.536C881.568 306.297 863.123 302.209 848.847 296.882C841.519 294.28 834.95 292.05 834.065 292.05C833.181 292.05 830.022 290.068 826.99 287.466C820.168 281.891 812.588 278.547 804.502 277.556C798.312 276.812 798.312 276.812 796.29 270.866C793.005 261.327 784.541 251.044 774.686 244.726C758.894 234.691 750.682 232.338 723.141 230.108C700.526 228.373 698.379 227.506 689.788 217.967C680.06 207.189 673.49 204.092 659.467 204.092C647.464 204.092 644.559 203.101 631.041 194.429C618.786 186.624 610.953 184.642 599.835 186.5C593.518 187.615 588.086 187.491 573.431 185.881C550.184 183.279 513.168 183.031 498.765 185.385C466.928 190.464 444.187 200.623 413.866 223.542C407.17 228.621 401.106 232.461 400.348 232.09C399.716 231.594 394.537 224.904 388.851 217.1L378.618 202.977L382.534 196.287C389.357 184.518 388.22 182.164 365.858 163.086C342.738 143.14 338.822 141.778 327.451 150.326C324.419 152.68 321.513 154.538 321.008 154.538C320.629 154.538 315.955 151.812 310.648 148.467C292.456 137.07 278.432 131.371 259.608 127.903C249.122 125.92 225.749 125.673 215.642 127.283ZM254.933 130.256C291.445 136.698 328.967 159.989 371.29 202.481C386.198 217.471 389.23 221.064 393.652 230.231C396.558 235.93 399.337 243.116 399.716 246.213L400.601 251.787L392.515 240.762C381.65 225.896 367.121 210.905 350.95 198.269C326.314 178.943 310.901 174.855 283.359 180.43C246.974 187.863 213.874 210.534 187.974 246.089C178.499 259.097 172.435 270.742 167.255 285.98C161.823 302.085 159.675 316.331 160.559 330.95C161.949 353.373 167.129 361.673 200.482 394.131C212.358 405.776 221.58 415.687 221.075 416.183C220.57 416.678 217.158 416.43 213.495 415.439C199.092 411.847 154.116 372.204 132.765 344.453C121.521 329.835 110.782 308.898 106.992 294.528C102.823 278.423 102.318 253.274 105.855 236.302C111.54 208.923 123.163 187.987 143.63 168.165C175.593 137.194 216.148 123.443 254.933 130.256ZM349.308 154.166C362.194 163.705 378.871 178.571 380.766 182.04C383.04 186.376 382.282 189.226 377.228 194.8L373.438 199.136L355.751 183.899C324.293 157.139 326.188 159.122 328.588 155.777C333.894 148.344 340.843 147.848 349.308 154.166ZM536.666 191.827C543.615 194.8 551.069 201.986 553.975 208.799C554.985 211.153 555.87 216.728 555.87 221.064C555.996 235.806 546.015 249.186 532.118 253.15C525.17 255.132 510.641 255.628 504.324 254.141C493.08 251.54 480.32 241.629 475.898 232.214C469.328 217.843 476.53 199.508 491.437 192.942C503.44 187.615 525.422 187.12 536.666 191.827ZM342.106 196.535C371.417 218.215 393.147 242.868 400.222 262.813C405.023 275.945 402.875 303.695 395.168 327.109C380.387 372.327 345.518 407.387 302.057 420.519C291.571 423.616 289.424 423.864 266.304 423.987C245.584 423.987 241.036 423.616 238.51 422.005C234.972 419.775 214 400.573 191.386 379.017C176.983 365.266 172.94 359.939 171.045 352.258L170.161 348.665L176.225 349.533C183.679 350.524 187.848 353.249 204.272 368.239C224.612 386.698 236.741 394.379 255.439 400.573C308.501 418.289 368.764 385.955 386.577 330.454C390.999 316.579 390.62 296.51 385.819 282.759C382.155 272.476 377.102 263.061 371.922 256.867L368.764 253.274L369.522 267.397C370.28 284.741 368.258 294.28 360.931 308.403C355.119 319.057 353.098 320.667 357.393 311.128C361.941 300.722 364.847 287.342 364.847 276.688C364.847 256.991 358.53 242.124 341.348 221.436C327.325 204.587 325.683 201.986 325.683 196.287C325.683 191.827 325.809 191.703 330.61 191.703C334.4 191.703 337.053 192.818 342.106 196.535ZM606.152 219.206C607.668 224.161 609.31 229.86 610.069 231.842C611.585 236.55 611.585 238.408 609.942 236.797C609.058 235.93 601.099 212.64 601.099 210.782C601.099 210.534 601.604 210.286 602.362 210.286C602.994 210.286 604.762 214.374 606.152 219.206ZM700.905 235.682L703.937 238.78L698.631 254.017C691.556 274.582 688.651 286.475 686.882 302.58C686.124 310.013 684.987 317.199 684.355 318.314C682.081 322.526 673.869 316.703 671.848 309.518C669.321 300.846 669.068 284.493 671.09 274.087C674.501 256.743 688.777 232.585 695.473 232.585C696.863 232.585 699.263 233.948 700.905 235.682ZM573.304 257.982C573.304 266.158 571.536 268.76 570.019 262.813C569.261 259.84 571.409 249.929 572.673 249.929C573.052 249.929 573.304 253.522 573.304 257.982ZM430.922 264.671C444.44 268.14 457.326 274.335 469.076 283.13C478.93 290.44 494.722 305.182 493.585 306.049C493.333 306.297 488.405 308.527 482.594 311.004L472.234 315.588L462.38 307.783C457.074 303.447 445.703 294.776 437.239 288.457C420.562 276.317 418.541 274.087 417.277 266.901C416.14 261.327 416.898 261.203 430.922 264.671ZM411.213 308.155C410.329 331.445 403.506 351.267 389.483 371.956C369.143 401.936 337.558 423.244 306.227 428.076C297.383 429.438 298.394 428.447 309.259 424.607C321.513 420.395 338.822 411.351 349.56 403.546C381.903 380.008 400.98 345.073 407.423 298.244C409.444 283.998 409.697 283.13 410.708 287.714C411.339 290.44 411.466 299.607 411.213 308.155ZM635.968 319.924C634.831 322.773 632.683 326.242 631.167 327.481C628.135 330.083 628.008 330.578 633.441 317.446C636.22 311.004 637.231 309.642 637.484 311.748C637.736 313.358 636.978 317.075 635.968 319.924ZM498.765 312.243C501.418 314.225 507.609 322.402 507.609 323.765C507.609 325.499 487.268 335.781 486.258 334.666C485.752 334.047 482.594 330.083 479.309 325.747L473.371 318.066L479.435 315.588C482.72 314.225 486.637 312.615 488.026 311.996C491.564 310.385 496.491 310.509 498.765 312.243ZM514.431 333.18C516.073 335.41 519.863 342.595 522.769 349.037L528.075 360.806L525.17 363.036C522.896 364.77 521 365.142 517.463 364.647C511.399 363.656 511.146 365.762 517.084 367.62C521.885 369.23 523.401 372.08 518.726 370.717C517.084 370.221 506.977 366.009 496.112 361.302C470.339 350.152 470.086 350.152 453.031 361.178C436.228 372.08 436.86 371.708 436.86 370.221C436.86 368.363 450.125 358.328 458.463 353.992C467.686 349.161 473.877 349.161 485.5 353.992C493.964 357.585 498.765 358.576 498.765 356.842C498.765 356.47 496.744 352.63 494.343 348.294C491.943 344.082 489.921 339.994 489.921 339.25C489.921 338.507 492.954 336.029 496.491 333.551C505.208 327.853 510.135 327.729 514.431 333.18ZM174.835 392.025L195.681 410.36L191.133 414.448C185.069 420.023 181.531 419.28 169.656 410.484C152.6 397.476 146.283 391.282 146.283 387.318C146.283 384.344 151.842 373.814 153.358 373.814C153.611 373.814 163.212 381.99 174.835 392.025ZM429.153 425.846C431.048 428.695 431.048 428.695 428.142 427.208C426.626 426.341 425.11 425.846 424.984 426.094C411.845 442.818 395.421 464.002 394.789 464.993C394.41 465.737 400.853 471.311 409.823 477.754L425.489 489.275L431.301 482.957C439.386 474.161 439.892 475.895 432.059 485.187L425.616 492.62L407.928 479.983C398.2 473.046 390.367 466.976 390.494 466.48C391.125 464.126 424.984 422.377 425.995 422.625C426.626 422.749 428.016 424.235 429.153 425.846ZM463.391 449.632C459.979 452.357 459.095 452.357 457.074 450.003C455.81 448.517 455.81 447.402 456.947 444.924L458.337 441.827L462.38 444.552L466.296 447.278L463.391 449.632ZM270.473 447.278C272.747 448.269 279.948 453.596 286.518 459.171C315.323 483.452 342.233 496.708 380.513 505.256C397.948 509.096 404.77 512.07 408.939 517.644C411.971 521.609 418.92 523.963 424.479 522.848C429.785 521.857 435.217 515.91 436.481 509.84C437.491 504.637 437.618 504.513 449.114 499.805L460.611 494.85L469.707 502.159C479.688 510.335 479.814 509.964 468.444 515.662C436.481 531.643 397.19 533.13 355.498 519.998C339.074 514.795 313.175 503.274 303.573 496.832C290.055 487.912 275.526 470.94 267.062 454.711C262.135 445.172 262.64 444.181 270.473 447.278ZM441.155 450.499C446.461 455.083 448.609 463.878 445.324 468.09C440.902 473.665 427.89 474.904 422.457 470.073C419.172 467.347 416.014 458.056 418.92 459.79C419.804 460.286 420.436 461.401 420.436 462.392C420.436 465.861 427.89 470.444 433.575 470.444C441.029 470.444 443.808 468.09 443.808 462.02C443.808 456.693 440.018 451.366 435.344 449.879C434.08 449.508 433.069 448.641 433.069 448.021C433.069 446.287 438.123 447.897 441.155 450.499ZM508.493 463.259C514.557 466.728 519.863 469.701 520.116 469.949C520.369 470.197 517.337 474.409 507.988 486.425C507.735 486.921 503.313 483.452 491.943 473.789L487.016 469.701L491.943 463.259C494.596 459.666 496.87 456.817 496.996 456.817C497.123 456.817 502.303 459.666 508.493 463.259ZM618.407 465.984C617.017 469.329 580.632 516.282 579.368 516.282C576.968 516.282 579.495 512.565 598.193 488.408C614.996 466.728 620.428 460.657 618.407 465.984ZM495.607 480.603C500.66 484.939 504.956 488.779 504.956 489.275C505.208 490.885 485.121 506.371 482.847 506.371C480.32 506.371 465.917 496.584 465.917 494.85C465.917 493.363 483.857 472.922 485.247 472.922C485.752 472.922 490.553 476.391 495.607 480.603ZM843.035 490.39C848.468 491.876 853.774 495.841 853.774 498.566C853.774 501.911 849.478 506.619 840.508 513.308C810.693 535.236 794.521 563.853 788.71 604.488C786.31 621.584 784.541 624.557 776.455 625.053C769.254 625.548 764.453 621.956 762.811 614.77C760.916 606.718 761.421 591.604 763.948 578.596C769.507 550.35 779.361 531.396 798.691 511.574C817.894 491.876 828.885 486.673 843.035 490.39ZM415.256 501.292C410.834 505.628 410.329 511.326 414.119 515.043C416.898 517.768 418.793 518.016 423.468 516.282C427.005 515.043 427.763 516.034 425.237 518.512C421.446 522.228 412.35 518.264 409.571 511.822C407.297 506.619 408.055 503.645 412.476 500.177C417.404 496.336 419.425 497.203 415.256 501.292ZM303.068 520.742C311.533 525.325 317.092 532.758 321.134 545.023C323.914 553.571 324.166 555.429 323.029 562.862C318.229 596.064 286.644 611.178 264.03 591.232C239.394 569.428 247.227 527.184 277.674 517.397C283.865 515.415 295.867 517.025 303.068 520.742ZM902.414 566.455C898.75 574.136 895.844 579.091 895.213 578.472C894.455 577.729 896.729 572.154 900.519 564.597C904.056 557.659 907.341 552.332 907.72 552.704C908.099 553.076 905.699 559.27 902.414 566.455ZM889.148 554.562C889.148 557.164 876.262 581.941 875.251 581.321C874.241 580.702 877.399 573.145 884.727 558.031C886.874 553.819 889.148 551.961 889.148 554.562ZM397.063 575.003C398.2 578.72 398.579 582.932 398.074 586.029C397.19 592.099 395.8 589.993 394.663 580.702C394.158 576.985 393.526 571.906 393.147 569.552C392.262 563.606 394.537 566.827 397.063 575.003ZM979.48 595.072C982.891 613.903 981.249 634.84 975.184 648.219C971.773 655.9 961.287 666.306 953.202 670.271C946.253 673.616 925.913 679.19 924.776 678.075C924.523 677.704 924.902 677.084 925.913 676.837C926.923 676.589 931.724 675.102 936.525 673.492C955.223 667.669 966.214 659.617 972.026 647.104C976.953 636.574 977.964 628.026 977.206 605.107C976.827 593.586 976.827 584.418 977.079 584.79C977.458 585.162 978.595 589.745 979.48 595.072ZM992.114 606.222C993.124 611.673 993.882 621.088 994.009 627.406C994.135 664.448 979.606 684.517 949.032 689.473C926.544 693.189 920.985 692.322 941.831 688.358C979.732 681.049 993.251 661.723 990.977 617.867C990.598 609.319 989.839 600.647 989.46 598.665C988.955 596.559 988.955 595.32 989.46 595.692C989.966 596.187 991.229 600.895 992.114 606.222ZM584.675 599.78C584.675 600.771 567.493 612.664 558.775 617.62C549.805 622.823 540.456 627.035 540.456 625.92C540.456 624.557 555.996 614.275 568.756 607.089C581.643 599.904 584.675 598.417 584.675 599.78ZM437.491 618.115C453.536 626.291 467.812 634.22 469.455 635.583C476.656 642.025 475.898 655.652 468.191 659.493C460.864 663.209 439.639 659.988 422.71 652.555C415.256 649.334 414.624 648.467 413.614 639.299C412.729 631.866 409.823 621.956 404.138 608.08L401.359 601.514L404.896 602.382C406.791 602.753 421.573 609.939 437.491 618.115ZM302.815 619.602C299.404 622.823 268.704 628.645 262.766 627.159C257.46 625.92 260.871 624.805 278.685 622.079C295.614 619.478 303.826 618.611 302.815 619.602ZM1007.15 666.43C1003.48 672.377 985.67 693.437 984.281 693.437C982.007 693.437 982.386 692.818 995.019 677.58C1000.83 670.642 1006.14 664.944 1006.77 664.944C1007.53 664.944 1007.65 665.687 1007.15 666.43ZM771.654 677.084C774.307 679.686 777.087 684.022 777.971 686.995C779.487 691.579 779.361 692.446 777.34 694.676C776.076 696.039 772.665 697.401 769.254 697.897C741.965 701.737 714.55 719.701 695.599 746.088C686.882 758.105 682.586 766.777 678.796 780.28C674.88 794.156 672.858 797.5 668.816 797.5C661.109 797.5 652.897 785.731 652.897 774.706C652.897 756.866 671.974 722.55 692.314 703.843C702.548 694.552 711.897 688.482 726.678 681.544C740.702 674.978 749.672 672.624 759.526 672.501C766.475 672.377 767.233 672.624 771.654 677.084ZM331.999 677.704C331.999 680.058 300.794 689.968 299.91 687.862C299.531 686.623 303.826 684.765 314.691 681.296C332.757 675.474 331.999 675.722 331.999 677.704ZM402.875 679.686C401.232 682.535 390.999 687.615 387.967 686.995C386.451 686.623 388.346 685.013 393.905 682.04C403.633 676.837 404.517 676.589 402.875 679.686ZM1067.28 690.464C1067.28 692.074 1055.66 712.887 1052.76 716.356C1046.44 723.789 1048.33 717.966 1056.8 704.091C1064.25 691.579 1067.28 687.738 1067.28 690.464ZM403.001 710.162C404.012 712.391 404.012 713.63 402.875 714.993C400.348 717.966 352.34 741.752 348.929 741.752C345.518 741.752 343.37 738.531 343.37 733.452C343.37 730.85 345.139 728.249 350.066 723.541C361.057 712.887 375.839 707.436 393.652 707.188C400.853 707.064 401.611 707.312 403.001 710.162ZM422.836 728.497C422.583 728.744 412.729 733.824 400.853 739.77C382.408 749.061 380.008 749.929 384.177 746.336C389.609 741.504 403.254 734.071 413.234 730.603C419.172 728.497 424.226 727.505 422.836 728.497ZM758.894 755.008C753.209 762.193 726.805 793.536 725.162 795.023C721.246 798.863 724.909 792.173 732.111 782.386C740.07 771.485 757.252 752.902 759.273 752.902C760.031 752.902 759.779 753.893 758.894 755.008ZM872.851 814.225C872.977 847.054 862.744 868.115 842.024 877.406C834.192 880.999 814.483 884.468 806.018 883.972L800.08 883.6L806.397 882.609C833.433 878.645 844.299 874.681 853.521 865.637C865.144 854.116 868.808 842.223 869.819 812.367C870.703 787.59 872.724 788.828 872.851 814.225ZM888.896 844.081C888.264 856.717 883.969 865.761 875.504 873.07C864.513 882.609 843.667 890.414 824.716 892.148C817.389 892.768 818.399 892.396 833.56 888.432C854.785 883.105 864.513 878.645 873.23 870.593C882.2 862.292 886.622 852.629 887.632 839.126C888.517 826.489 889.654 830.454 888.896 844.081ZM774.181 846.683C774.055 848.665 749.798 864.522 748.661 863.407C748.029 862.788 752.198 859.071 759.273 854.24C770.265 846.559 774.181 844.577 774.181 846.683ZM858.827 896.113C858.827 896.484 854.027 898.962 848.215 901.688C837.982 906.395 825.98 909.245 825.98 907.015C825.98 906.395 832.423 903.546 840.256 900.697C853.648 895.741 858.827 894.502 858.827 896.113ZM1000.45 909.121C1003.86 917.421 996.409 932.659 982.259 945.667C972.279 954.958 960.908 961.028 951.686 961.896C946 962.515 944.611 962.143 942.337 959.914C937.915 955.578 937.915 955.701 955.855 944.676C966.467 938.11 974.932 930.305 983.396 919.279C995.019 904.041 997.546 902.431 1000.45 909.121Z" fill="#7A7A7A"/>
<path d="M827.91 171.511C823.614 172.502 817.676 177.705 815.402 182.165C810.854 191.828 814.644 203.35 824.12 207.809C830.816 211.03 835.49 210.907 842.439 207.438C848.503 204.465 853.809 196.536 853.809 190.466C853.809 188.731 852.546 184.767 851.03 181.794C846.734 173.493 837.259 169.281 827.91 171.511Z" fill="#7A7A7A"/>
<path d="M1220.69 275.2C1214.88 277.677 1207.8 284.367 1204.64 290.066C1200.47 297.994 1200.73 310.631 1205.4 318.435C1211.85 329.09 1224.73 335.284 1236.73 333.426C1244.57 332.187 1254.3 325.745 1258.59 318.807C1263.27 311.374 1264.53 300.224 1261.37 292.915C1258.46 286.473 1250.88 278.421 1244.82 275.819C1238.76 273.094 1226.37 272.846 1220.69 275.2Z" fill="#7A7A7A"/>
<path d="M585.336 408.127C582.557 408.374 571.06 409.985 559.689 411.719C548.445 413.33 538.844 414.692 538.591 414.692C538.338 414.692 537.706 417.294 537.201 420.515C536.064 428.196 534.801 431.417 531.769 434.39C529.242 436.868 529.242 436.868 536.064 440.708C539.981 442.938 546.298 445.044 550.719 445.788C555.015 446.407 561.458 448.017 564.996 449.38C568.533 450.619 574.724 452.849 578.64 454.212C587.484 457.309 599.107 457.557 613.889 454.955C619.701 453.84 625.133 452.849 625.891 452.477C627.913 451.858 617.047 421.506 613.005 416.303C611.236 414.073 608.33 411.471 606.435 410.48C602.518 408.498 592.538 407.383 585.336 408.127Z" fill="#7A7A7A"/>
<path d="M495.039 433.529C495.039 434.52 496.681 436.874 498.703 438.732L502.367 442.077L503.756 438.113C504.514 435.883 504.893 433.901 504.641 433.653C504.388 433.405 502.114 432.786 499.587 432.414C496.176 431.919 495.039 432.166 495.039 433.529Z" fill="#7A7A7A"/>
<path d="M1135.49 440.712C1132.46 443.685 1132.33 446.659 1134.99 450.375C1137.26 453.596 1143.2 454.092 1146.1 451.118C1149.14 448.269 1148.63 442.447 1145.35 440.217C1141.56 437.615 1138.52 437.739 1135.49 440.712Z" fill="#7A7A7A"/>
<path d="M1048.09 446.907C1041.78 450.252 1037.99 455.95 1037.23 463.012C1036.09 474.285 1045.44 484.072 1057.19 484.072C1077.66 484.072 1085.11 459.915 1068.31 447.774C1063.38 444.181 1053.91 443.81 1048.09 446.907Z" fill="#7A7A7A"/>
<path d="M58.6273 501.543C51.1732 507.242 56.7322 520.002 65.9549 518.267C71.6402 517.152 74.2933 514.055 74.2933 508.728C74.2933 503.525 69.8714 498.941 64.8179 498.941C63.3018 498.941 60.5223 500.056 58.6273 501.543Z" fill="#7A7A7A"/>
<path d="M17.438 595.819C-6.18747 602.508 -5.68211 635.09 18.196 641.284C27.2924 643.638 35.7571 640.913 42.4531 633.356C47.254 628.029 48.2647 624.808 47.5067 616.012C46.2433 601.765 31.4616 591.73 17.438 595.819Z" fill="#7A7A7A"/>
<path d="M1075.87 645.74C1075.49 646.236 1077 650.448 1079.28 655.156C1084.96 666.925 1086.99 678.818 1085.09 690.091C1081.81 709.417 1068.67 728 1052.75 735.681C1045.17 739.273 1029.5 742.866 1020.66 742.99C1016.36 742.99 1016.36 742.99 1018.76 745.592C1022.43 749.556 1030.01 752.901 1037.08 753.768C1041.25 754.264 1044.91 755.626 1047.95 757.98C1053.25 762.192 1059.32 764.05 1067.66 764.05C1075.99 764.05 1090.4 767.395 1099.75 771.484C1108.97 775.572 1115.41 779.908 1130.32 791.553C1160.51 815.339 1193.11 820.418 1212.31 804.189C1230 789.323 1229.75 767.148 1211.56 740.76C1200.44 724.903 1189.45 716.479 1167.08 707.187C1131.2 692.321 1117.81 681.543 1112.25 662.589C1109.6 653.917 1107.58 650.944 1102.4 648.466C1097.98 646.484 1077.38 644.254 1075.87 645.74ZM1101.14 672.252C1104.55 683.03 1101.14 703.966 1094.19 715.611C1086.1 729.239 1074.1 739.769 1067.28 739.026L1063.36 738.654L1072.71 725.398C1084.21 709.046 1087.74 701.489 1092.8 682.286C1095.07 673.862 1097.34 667.42 1098.23 667.42C1098.99 667.42 1100.38 669.526 1101.14 672.252Z" fill="#7A7A7A"/>
<path d="M242.942 694.058C241.173 695.668 239.783 698.518 239.783 700.252C239.783 704.96 245.089 709.543 250.522 709.543C256.207 709.543 259.997 705.951 259.997 700.5C259.997 691.828 249.259 687.74 242.942 694.058Z" fill="#7A7A7A"/>
<path d="M538.817 758.478C526.309 762.814 520.624 775.822 526.057 787.096C535.279 806.05 565.727 798.741 565.727 777.556C565.727 763.929 551.703 753.894 538.817 758.478Z" fill="#7A7A7A"/>
<path d="M259.408 821.536C247.532 826.863 238.562 840.367 238.562 852.631C238.562 871.833 254.607 887.938 273.937 887.938C286.445 887.938 298.447 880.877 305.017 869.727C309.565 862.294 310.576 849.534 307.417 841.234C300.089 822.651 277.348 813.236 259.408 821.536Z" fill="#7A7A7A"/>
<path d="M703.82 881.494C696.997 886.697 697.629 897.351 704.957 901.068C717.085 907.262 728.329 892.396 718.728 882.857C714.432 878.645 708.242 878.025 703.82 881.494Z" fill="#7A7A7A"/>
<path d="M790.475 973.788C787.443 975.398 783.273 979.115 781.126 981.964C777.841 986.548 777.335 988.282 777.335 995.468C777.335 1002.28 777.967 1004.64 780.368 1008.23C789.464 1021.24 806.141 1023.59 818.269 1013.56C840.252 995.096 816.122 960.532 790.475 973.788Z" fill="#7A7A7A"/>
<path d="M867.422 1046.01C856.81 1048.49 847.966 1053.32 839.627 1061.13C825.477 1074.38 819.413 1087.89 819.413 1106.59C819.413 1162.22 887.005 1189.84 927.054 1150.57C944.236 1133.72 950.048 1109.07 942.215 1086.9C938.804 1076.99 933.497 1069.3 924.78 1061.13C909.24 1046.63 888.142 1041.06 867.422 1046.01Z" fill="#7A7A7A"/>
<path d="M691.552 1070.17C687.635 1074.63 687.509 1076.37 690.541 1079.09C695.848 1083.8 704.818 1079.59 702.291 1073.64C700.522 1069.68 697.743 1066.33 696.1 1066.33C695.469 1066.33 693.321 1068.07 691.552 1070.17Z" fill="#7A7A7A"/>
</svg>
