<svg width="1000" height="1000" viewBox="0 0 1000 1000" fill="none" xmlns="http://www.w3.org/2000/svg">
<g clip-path="url(#clip0_130_907)">
<path d="M654.119 112.514C643.462 111.428 633.499 111.763 623.976 113.453C615.198 115.07 602.12 119.469 595.534 122.985C589.569 126.22 588.363 125.995 578.595 120.71C566.097 113.83 565.314 113.715 552.855 116.857C548.673 117.897 542.229 116.311 537.324 113.087C533.949 110.881 533.527 110.771 531.134 111.567C529.661 111.982 518.766 117.657 506.859 124.043L485.169 135.685L482.056 140.724C480.281 143.541 476.159 150.268 472.825 155.781C437.27 214.325 435.74 216.585 431.769 215.553C427.46 214.434 409.278 212.722 404.666 213.029C397.842 213.471 394.552 214.566 387.529 218.677C382.01 221.939 379.286 222.295 373.118 220.692C371.512 220.275 368.665 220.421 366.808 220.913C364.246 221.665 361.912 221.59 357.158 220.443C351.305 219.011 350.561 219.083 344.939 221.078C341.71 222.277 336.355 223.632 332.925 224.247C329.602 224.801 323.71 226.46 319.945 227.963C311.516 231.266 306.197 231.833 293.583 230.948C283.195 230.198 281.423 230.712 277.28 235.217C275.764 236.773 271.587 239.763 267.831 241.888C263.024 244.538 260.564 246.557 259.203 248.861C256.22 253.757 254.243 255.015 245.704 257.404C230.553 261.441 221.824 268.122 213.381 281.966C208.953 289.144 203.472 295.871 196.18 302.926C193.798 305.319 191.786 308.341 190.404 311.703C188.556 316.096 187.73 317.122 184.295 319.065C182.149 320.279 179.881 322.259 179.285 323.433C178.689 324.608 172.691 333.859 165.89 344.053C158.5 355.069 153.147 363.957 152.576 366.023C151.411 370.24 153.217 374.519 157.277 377.523C160.898 380.148 162.063 382.488 162.081 387.012C162.099 391.535 163.685 393.986 167.666 395.64C173.29 397.899 175.297 396.206 184.56 381.689C190.473 372.416 193.305 368.721 195.321 367.65L198.005 366.132L196.698 368.894C192.503 377.196 190.938 381.22 188.494 390.066C185.913 399.407 185.861 399.925 187.402 402.541C188.758 404.843 189.535 405.31 192.944 405.753C199.824 406.744 202.092 404.763 209.944 390.766C216.962 378.147 220.897 373.41 225.944 371.532C233.859 368.45 235.836 370.47 237.409 383.46C238.762 394.622 240.319 397.507 245.172 397.971C249.663 398.429 251.931 396.449 253.4 390.806C254.108 388.243 254.752 384.6 254.917 382.694C255.081 380.787 255.965 377.915 256.806 376.185C257.776 374.31 258.514 371.312 258.722 368.265C259.337 358.501 259.977 356.186 262.705 354.503C264.016 353.692 266.51 353.188 268.291 353.296C274.541 353.946 277.864 353.392 282.518 350.968C285.155 349.616 290.332 347.594 293.899 346.483C299.154 344.836 301.753 343.296 307.193 338.684C311.315 335.236 315.852 332.251 318.353 331.395C324.359 329.322 346.804 329.041 354.323 330.995C356.943 331.676 356.92 331.758 355.591 334.603C354.216 337.613 329.34 376.515 324.825 382.696C323.471 384.648 319.548 387.704 315.508 390.198C311.706 392.489 307.958 395.236 307.216 396.284C305.058 399.179 303.941 404.205 304.411 408.403C304.669 410.419 304.338 413.257 303.757 414.701C303.116 416.041 293.585 431.197 282.509 448.343C269.772 467.894 261.658 481.203 260.536 484.278C258.942 488.737 258.86 489.69 260.294 495.645C261.688 501.413 261.7 503.01 260.3 508.406L258.717 514.463L254.323 516.599C249.737 518.775 247.287 521.417 246.305 524.971C245.871 526.542 242.706 528.821 234.418 533.579C228.255 537.205 221.808 541.2 220.107 542.442C215.539 545.862 199.101 564.717 198.393 567.279C197.319 571.165 194.108 573.609 186.522 576.156C182.526 577.51 173.967 580.957 167.479 583.79C142.341 594.802 135.94 598.632 131.733 605.336C127.924 611.257 125.503 613.464 119.652 616.285C115.259 618.422 112.845 620.275 111.054 622.823C109.593 624.835 107.802 627.382 106.93 628.573C106.057 629.764 100.547 633.649 94.7671 637.197C88.9027 640.724 81.9124 645.376 79.1309 647.577C75.0545 650.859 74.9324 651.138 73.9561 652.213L73.0654 652.978L71.858 653.662C71.858 653.662 71.2618 653.697 70.248 654.572C68.3748 656.19 67.8866 656.727 67.8866 656.727C66.5078 658.031 66.8492 657.942 65.5931 659.211C63.7503 660.637 64.1528 660.409 62.8596 661.402C61.8833 662.477 62.0143 662.333 61.3952 663.015C60.4189 664.09 60.8681 664.185 56.006 669.656C43.3039 684.165 34.5271 699.871 31.4571 713.604C28.4853 726.655 33.071 739.719 36.162 744.51C39.253 749.3 39.893 749.688 39.893 749.688L40.8971 750.724L42.2243 752.066C43.954 753.18 45.2848 753.526 45.2848 753.526C45.2848 753.526 46.9323 753.954 54.6209 755.952C61.8025 757.818 63.4764 757.987 68.3336 757.123C79.1988 755.162 94.3188 747.306 108.334 736.24C112.387 733.04 118.747 728.047 122.326 725.256C129.529 719.507 134.644 717.381 143.73 716.286C147.03 715.815 152.017 714.807 154.71 713.912C157.487 713.038 160.923 712.071 162.458 711.761C163.993 711.451 167.06 709.855 169.298 708.31C177.95 702.23 178.334 702.152 189.786 701.673C210.694 700.726 232.948 697.205 255.503 691.282C271.422 687.09 274.665 685.185 277.956 677.535C280.178 672.441 282.208 670.665 287.004 669.696C293.464 668.274 298.769 665.133 301.653 660.921C304.255 657.078 305.933 655.919 320.777 648.081C325.968 645.354 328.642 643.213 333.159 638.007C336.352 634.318 341.369 629.597 344.319 627.439C355.822 618.91 361.427 612.392 369.669 597.964C375.006 588.807 376.861 587.34 383.615 587.146C392.811 586.966 394.065 588 399.252 600.69L402.579 608.643L400.114 615.268C398.116 620.862 397.805 622.642 398.246 627.276C399.576 641.798 399.398 644.41 396.518 650.573C385.914 672.893 380.565 680.452 351.938 713.594C331.542 737.268 326.139 744.37 321.875 752.92C318.719 759.1 316.06 761.511 309.901 763.809C304.042 766.007 301.783 768.61 297.476 778.301C294.765 784.508 294.552 785.604 294.945 789.428C295.903 799.069 295.835 799.317 292.429 807.381C281.519 833.432 277.727 856.99 281.4 875.488C283.262 884.478 289.56 895.773 295.72 901.007C306.373 909.977 323.447 910.781 334.79 902.83C339.503 899.536 347.528 890.811 351.536 884.499C353.441 881.538 359.365 870.584 364.73 860.016C371.218 847.348 375.24 840.33 376.642 839.188C378.949 837.395 380.23 837.02 389.001 835.755C395.877 834.795 404.895 830.67 408.28 826.942C410.187 824.956 411.294 822.586 412.55 818.039C415.2 808.449 417.299 806.425 428.114 802.679C431.428 801.502 436.933 798.945 440.414 796.837C451.43 790.396 473.136 775.746 477.61 771.681C487.462 762.899 495.288 751.288 498.006 741.45C498.783 738.639 501.375 734.174 505.874 727.723C511.705 719.403 515.889 712.781 526.947 694.39C530.105 689.185 531.01 685.256 530.81 678.115C530.529 669.625 532.258 666.973 541.144 662.016C548.013 658.131 550.096 655.836 555.929 645.213C557.977 641.404 561.937 637.56 564.607 636.747C566.125 636.167 569.971 632.736 574.374 627.944C581.687 619.831 586.361 616.35 591.095 615.276C593.228 614.767 593.856 614.133 594.564 611.57C595.021 609.917 595.028 606.286 594.508 603.581C592.462 591.974 593.014 574.573 595.755 564.653C598.45 554.898 598.79 555.961 600.953 582.219C601.521 589.012 602.874 606.73 603.921 621.622C606.109 652.051 609.363 689.973 611.788 692.995C615.761 698.281 626.412 696.441 628.148 690.158C629.221 686.272 622.003 589.283 618.237 553.749C616.754 539.452 616.346 532.08 617.054 529.518C617.883 526.189 643.089 484.449 650.183 474.508C653.129 470.4 655.602 470.954 659.292 476.609C662.488 481.427 665.219 483.997 669.553 486.009C676.392 489.116 678.258 492.524 677.453 500.024C676.807 505.97 678.25 512.547 681.503 518.798C683.099 521.87 684.688 525.296 684.86 526.315C685.433 528.502 684.415 543.655 683.216 552.913C682.076 561.3 682.457 566.804 684.441 571.75C685.53 574.691 685.758 577.142 685.114 580.785C683.949 588.28 682.129 591.262 676.778 594.568C672.094 597.427 653.918 615.032 651.938 618.593C648.489 624.52 658.361 631.072 667.614 629.046C668.957 628.775 672.69 626.733 675.894 624.641C682.624 620.276 685.095 619.855 688.219 622.971C691.258 626.064 691.317 628.472 688.371 639.136C686.041 647.569 684.796 650.435 678.55 661.571C674.613 668.611 671.219 674.995 670.99 675.822C670.762 676.648 671.442 678.774 672.406 680.531C674.07 683.356 674.762 683.802 677.918 684.179C680.099 684.479 682.677 683.998 684.694 682.927C686.603 681.916 687.562 681.723 686.995 682.462C686.513 683.222 685.061 685.857 683.693 688.515C680.888 694.077 681.263 696.655 685.238 699.637C687.33 701.244 688.136 701.276 694.037 700.24C697.551 699.647 701.335 699.39 702.349 699.653C703.363 699.917 705.996 699.892 708.19 699.488C710.362 699.166 713.509 698.921 715.121 698.985C716.817 699.072 719.718 698.407 721.604 697.48C725.484 695.564 725.461 695.647 741.272 670.87C751.828 654.297 751.873 654.132 753.767 639.738C754.19 636.569 754.825 635.583 757.958 632.764C762.991 628.313 764.06 625.755 764.266 618.454C764.422 612.647 764.673 611.737 767.386 606.506C769.06 603.397 771.68 597.52 773.306 593.601C774.955 589.6 778.112 583.42 780.345 579.925C785.845 571.164 786.452 568.309 784.788 558.928C783.389 551.21 783.418 550.774 785.862 541.929C788.215 533.414 788.259 532.273 787.275 525.018C786.743 520.715 786.609 512.351 786.979 506.422C788.428 485.445 787.908 479.462 783.668 471.537C782.419 469.175 780.812 464.504 780.091 461.216C779.353 457.657 777.045 451.918 774.44 447.254C770.809 440.728 770.067 438.497 769.942 434.035C769.883 428.349 766.708 412.638 764.297 405.632C762.126 399.397 753.995 385.233 752.389 384.816C748.925 383.916 743.4 377.695 738.637 369.369C735.885 364.579 733.764 360.129 733.901 359.633C734.038 359.137 737.089 353.993 740.577 348.254C760.677 315.819 761.73 312.992 762.56 289.993C763.073 275.684 763.187 275.27 767.853 258.053L772.65 240.692L771.305 236.71C769.821 232.248 765.652 228.329 756.627 222.972C753.606 221.124 750.661 218.675 749.921 217.419C749.288 216.103 748.558 212.192 748.412 208.787C747.687 193.713 741.728 175.949 732.175 160.708C717.374 136.925 697.428 122.262 670.492 115.528C665.4 114.293 657.997 112.901 654.119 112.514ZM683.347 131.273C702.081 139.508 719.392 156.5 728.024 175.401C732.098 184.257 736.171 196.391 737.136 202.401C738.741 212.653 737.205 226.077 733.442 235.111L731.503 239.835L729.795 231.594C724.602 206.144 712.025 188.078 689.362 173.417C674.455 163.784 656.991 156.854 639.413 153.615C620.482 150.025 605.707 151.059 587.329 157.27C573.461 161.907 573.461 161.907 576.29 153.959C578.403 147.951 583.466 143.064 593.953 136.574C603.106 130.978 610.897 127.687 620.472 125.479C641.778 120.471 663.139 122.477 683.347 131.273ZM543.181 126.305C545.642 128.539 545.537 129.575 542.735 129.556C540.21 129.52 535.736 127.028 533.935 124.7C530.763 120.774 538.465 122.067 543.181 126.305ZM571.402 137.891C571.964 138.48 570.738 139.314 567.892 140.435C562.953 142.253 561.642 143.064 558.326 146.544C556.396 148.612 542.461 170.863 532.229 188.23C530.669 190.925 529.98 191.455 528.29 191.016C523.558 189.786 523.574 190.056 528.074 173.77C532.818 156.928 536.331 148.803 541.698 142.489C548.695 134.206 555.146 132.161 564.641 135.16C567.89 136.181 570.902 137.407 571.402 137.891ZM538.056 134.365C537.942 134.779 536.702 136.317 535.4 137.751C532.038 141.396 528.521 147.571 522.846 159.918C514.642 177.811 497.237 207.047 489.351 216.251C482.507 224.308 486.159 216.662 502.607 188.595C511.569 173.203 520.507 157.893 522.526 154.519C524.438 151.206 527.549 145.192 529.366 141.234C534.058 131.466 533.95 131.526 536.263 132.659C537.401 133.132 538.193 133.869 538.056 134.365ZM665.042 172.946C702.962 189.09 724.199 218.089 725.258 255.225C725.466 262.012 725.095 264.663 722.37 274.853C720.612 281.219 718.912 286.714 718.567 286.979C718.161 287.139 716.978 286.832 715.948 286.298C714.142 285.297 714.087 284.84 716.059 274.099C717.219 267.933 718.206 259.772 718.197 255.871C718.551 229.026 704.472 205.255 678.18 188.321C665.726 180.3 659.472 177.701 642.298 173.326C617.773 167.042 606.802 166.761 590.541 172.193C574.302 177.543 560.075 186.428 551.194 196.613C546.569 201.88 545.411 202.465 543.457 200.362C541.294 198.028 555.159 184.884 568.221 176.937C585.538 166.374 607.097 161.433 627.866 163.285C636.98 164.059 655.821 168.955 665.042 172.946ZM514.859 138.35C513.094 141.79 505.421 146.618 498.44 148.614C495.387 149.505 492.724 149.965 492.539 149.651C492.439 149.359 492.95 148.163 493.823 146.972C495.567 144.59 515.931 133.489 516.095 134.861C516.065 135.296 515.547 136.845 514.859 138.35ZM670.282 188.395C679.904 193.554 689.216 200.493 695.141 206.906C701.521 213.969 701.685 215.34 695.246 209.148C677.598 192.069 651.842 181.389 623.981 179.642C603.582 178.417 584.861 182.59 566.644 192.477C558.042 197.064 555.708 196.989 562.637 192.233C582.196 178.797 604.185 173.612 630.16 176.286C642.046 177.514 660.282 182.962 670.282 188.395ZM685.694 214.552C692.946 220.424 697.332 231.753 696.557 242.096C696.221 246.261 692.989 253.042 689.934 256.235C688.678 257.503 685.584 257.231 684.214 255.635C683.236 254.583 673.59 228.862 671.64 222.153C669.83 215.923 670.323 213.482 673.842 211.561C677.192 209.596 680.826 210.54 685.694 214.552ZM502.113 167.113C502.553 168.468 494.485 181.611 488.492 189.535C481.627 198.649 463.718 218.894 462.138 219.369C459.767 220.082 462.65 214.895 475.807 194.479C489.797 172.684 492.017 169.894 497.308 167.459C500.606 166.012 501.795 165.967 502.113 167.113ZM757.193 238.625C759.323 240.419 761.209 242.77 761.488 243.728C761.682 244.665 761.73 245.474 761.645 245.453C760.378 245.123 746.485 235.754 745.469 234.515C744.161 233.023 744.522 233.028 748.746 234.126C752.041 234.982 754.5 236.242 757.193 238.625ZM757.05 247.005C759.512 249.24 759.644 250.072 757.863 256.52C755.921 263.547 751.945 270.4 742.196 283.727C734.321 294.528 732.376 296.326 729.249 295.514C724.349 294.24 727.617 286.672 735.825 280.565C742.89 275.312 746.188 270.587 747.6 263.511C748.603 258.898 748.377 257.422 746.329 251.396C742.651 240.783 742.582 241.031 749.52 243.453C752.746 244.558 756.112 246.141 757.05 247.005ZM671.536 240.556C674.94 248.883 676.945 256.049 676.086 256.535C675.849 256.739 674.139 254.08 672.419 250.798C669.305 245.026 666.552 235.982 666.641 231.398C666.589 228.637 666.835 229.056 671.536 240.556ZM527.814 197.981C529.367 198.916 531.036 200.413 531.568 201.437C532.532 203.194 532.287 203.751 528.693 209.551C526.567 212.985 524.21 216.272 523.435 216.779C520.745 218.65 511.817 214.912 511.495 211.816C511.331 210.444 515.773 202.56 519.653 197.366C521.352 195.15 523.133 195.258 527.814 197.981ZM710.582 258.854C710.337 265.967 707.207 277.293 704.088 282.685C702.749 284.906 701.502 286.797 701.288 286.919C701.073 287.04 702.679 280.901 704.757 273.378C706.859 265.772 708.89 257.439 709.152 254.849C710.014 248.782 710.794 251.2 710.582 258.854ZM536.166 218.227C534.864 219.661 533.57 220.742 533.147 220.632C531.88 220.303 533.627 215.618 535.977 212.684L538.259 209.998L538.311 212.759C538.439 214.919 537.904 216.197 536.166 218.227ZM475.858 216.909C474.572 218.613 472.818 220.372 471.875 220.836C470.333 221.499 470.402 221.251 471.708 218.489C472.549 216.758 474.515 213.902 476.1 212.099C478.902 208.84 478.987 208.862 478.601 211.242C478.404 212.609 477.166 215.123 475.858 216.909ZM752.912 287.22C752.433 288.956 751.524 290.935 750.957 291.674C750.062 292.948 749.916 292.821 749.557 290.513C749.192 288.557 749.489 287.483 750.752 285.861C752.995 282.989 754.002 283.605 752.912 287.22ZM503.481 222.138C505.55 223.828 507.466 225.743 507.582 226.305C508.34 228.806 506.267 228.444 501.424 225.325C497.818 222.97 496.256 221.412 496.176 220.063C495.996 218.421 496.257 218.134 497.862 218.551C498.876 218.815 501.413 220.449 503.481 222.138ZM552.129 246.653L558.643 258.801L557.772 264.245C556.486 272.506 557.323 282.913 559.773 290.106C561.04 293.714 561.915 296.777 561.7 296.898C560.949 297.323 553.311 287.275 550.936 282.76C545.509 272.577 542.153 258.503 542.364 246.596C542.509 239.191 543.76 232.693 544.884 233.871C545.322 234.251 548.521 240.044 552.129 246.653ZM537.213 236.397C536.875 242.866 537.822 254.188 539.513 262.159C545.606 291.564 564.96 312.631 597.029 325.04C618.143 333.185 640.574 333.609 661.307 326.414C669.813 323.486 684.059 315.846 690.25 310.809C692.449 309.077 694.534 307.758 694.872 307.846C695.294 307.956 695.972 309.107 696.413 310.462C697.155 312.692 697.064 313.023 694.122 315.803C692.391 317.48 687.762 320.796 683.723 323.29C668.185 332.986 649.466 338.135 629.661 338.039C619.704 338.021 617.969 337.747 603.752 334.141C589.534 330.536 587.975 329.953 580.796 325.784C565.323 316.89 553.027 304.036 543.115 286.487C534.722 271.635 530.644 257.55 530.364 242.503C530.212 232.894 530.281 232.646 533.427 232.401C537.065 232.017 537.458 232.562 537.213 236.397ZM498.847 233.339C499.809 234.12 501.058 236.483 501.484 238.543C502.306 242.123 502.003 243.551 496.093 264.61C490.817 283.706 489.2 288.248 485.418 296.037C473.919 319.631 458.773 333.15 439.568 337.109C432.195 338.56 429.071 338.723 429.368 337.648C429.436 337.4 431.665 335.233 434.323 332.822C441.325 326.49 450.581 315.604 453.662 310.025C455.114 307.39 456.007 305.141 455.754 305.075C455.393 305.07 450.275 309.5 444.308 315.037C438.256 320.553 433.093 325.148 432.602 325.286C432.111 325.425 433.12 323.738 434.797 321.604C444.578 308.817 449.184 302.305 449.022 301.908C448.814 301.677 445.857 304.187 442.333 307.436C438.81 310.685 432.756 315.225 428.976 317.433L422.123 321.589L428.353 313.461C434.736 305.107 440.057 295.68 441.588 290.141C442.28 287.309 441.33 288.125 431.505 298.774C425.456 305.265 418.616 311.994 416.287 313.87L411.934 317.169L413.919 309.001C415.858 300.999 415.63 298.548 413.237 302.622C410.224 307.953 401.624 316.793 396.709 319.504C393.489 321.325 391.587 321.983 391.516 321.255C391.507 320.633 393.042 317.044 394.922 313.191C396.801 309.338 398.398 305.854 398.366 305.314C398.334 304.774 395.767 306.854 392.627 310.025C385.198 317.576 381.732 318.979 375.034 317.327C370.556 316.163 369.864 315.718 368.638 313.272C367.905 311.664 367.145 308.188 367.07 305.511C366.91 302.811 366.552 300.503 366.129 300.393C365.791 300.305 365.019 301.788 364.41 303.667C362.025 311.643 360.895 310.817 362.964 302.672L365.164 294.383L358.561 304.186C354.996 309.55 350.917 315.136 349.639 316.487L347.149 318.941L349.253 309.033C352.746 292.13 352.158 279.839 347.235 265.534C343.379 254.254 336.842 245.467 328.37 240.076C325.664 238.398 325.502 238.001 326.534 236.232C329.042 231.744 331.353 231.902 342.734 237.252C346.438 238.923 349.934 240.363 350.486 240.329C351.146 240.235 349.354 238.529 346.593 236.394C343.81 234.341 341.64 232.36 341.732 232.029C342.029 230.954 346.726 230.669 349.852 231.481C353.401 232.403 358.616 237.126 362.829 243.182C367.019 249.321 369.425 257.655 370.103 268.641C370.422 274.041 371.054 278.635 371.477 278.745C372.659 279.052 374.028 273.117 373.877 267.762C373.618 258.213 371.182 250.315 365.14 240.061L359.384 230.414L362.256 231.16C364.622 231.775 366.515 233.773 372.605 241.558C382.044 253.935 382.521 254.502 383.357 254.099C383.702 253.834 381.926 249.119 379.38 243.584C376.834 238.05 375.104 233.17 375.471 232.822C376.919 231.515 380.253 235.837 386.696 247.258C390.288 253.596 393.247 258.618 393.338 258.287C393.727 256.882 391.46 249.027 388.72 242.556C383.911 231.117 384.074 231.513 385.254 230.845C387.079 229.813 390.219 233.199 394.959 241.607L399.329 249.388L405.549 247.195C412.69 244.62 417.134 244.269 428.536 245.282C439.938 246.296 450.883 245.684 452.529 243.986C453.287 243.208 454.676 242.771 455.521 242.991C457.886 243.606 458.387 240.812 457.159 234.113C456.561 231.033 456.316 228.312 456.554 228.108C456.791 227.904 460.055 228.22 463.756 228.916C470.799 230.303 473.477 230.113 477.464 228.137L479.696 226.944L479.54 229.473C479.451 230.779 478.852 237.535 478.208 244.456C476.885 260.061 476.862 260.144 478.616 258.384C480.89 256.051 482.713 244.209 482.079 235.361C481.869 230.876 481.623 227.179 481.669 227.014C481.851 226.353 497.301 232.051 498.847 233.339ZM745.071 309.372C744.249 312.348 742.883 315.98 742.027 317.441C741.17 318.902 736.758 326.351 732.384 333.986C727.926 341.599 723.873 348.077 723.336 348.381C722.799 348.685 722.345 348.035 722.181 346.663C722 345.021 723.076 342.111 725.858 336.632C729.679 329.03 744.302 298.717 744.883 297.273C744.997 296.859 745.437 298.214 745.864 300.274C746.284 302.687 746.053 305.817 745.071 309.372ZM729.854 301.519C730.747 302.548 731.165 303.986 730.822 305.226C730.091 307.872 721.582 319.66 719.191 321.431C717.298 322.711 717.044 322.645 713.9 320.588C708.826 317.32 708.801 316.427 714.31 308.29C722.419 296.309 721.707 296.921 725.157 298.526C726.863 299.235 728.916 300.655 729.854 301.519ZM710.931 297.576C710.312 298.833 708.651 301.237 707.151 303.062C704.648 306.222 704.541 306.283 704.029 304.2C703.185 300.703 707.914 294.4 710.702 295.125C711.716 295.388 711.725 296.011 710.931 297.576ZM432.428 228.573C437.897 233.361 438.016 234.898 432.862 233.559C430.158 232.856 422.787 228.725 421.855 227.509C421.609 227.09 426.384 223.901 426.975 224.054C427.144 224.098 429.567 226.146 432.428 228.573ZM413.73 235.941C414.211 238.459 414.508 240.662 414.209 240.762C413.672 241.065 407.955 225.048 408.23 224.056C408.725 222.59 412.652 231.32 413.73 235.941ZM403.884 227.003C405.877 229.293 407.354 234.107 407.418 238.465C407.406 240.146 406.699 239.43 404.386 235.019C402.705 231.924 400.847 228.163 400.198 226.577C399.225 224.198 399.294 223.95 400.477 224.257C401.237 224.455 402.806 225.66 403.884 227.003ZM681.625 302.366C675.087 313.249 658.247 324.379 646.612 325.52C644.847 325.681 646.548 324.44 652.728 321.084C662.749 315.625 670.344 310.421 677.645 303.99C680.518 301.458 682.977 299.439 683.062 299.461C683.231 299.505 682.589 300.844 681.625 302.366ZM397.238 231.39C399.186 233.845 401.709 239.463 400.958 239.888C400.72 240.092 398.964 237.598 397.199 234.481C393.77 228.539 393.729 227.377 397.238 231.39ZM525.676 283.727C535.722 306.362 555.517 325.506 582.914 339.093C589.684 342.448 593.964 344.003 605.623 347.032C621.085 351.05 630.514 351.994 644.797 351.098C651.321 350.756 651.598 350.739 649.113 351.865C642.472 354.925 625.688 356.677 613.289 355.67C606.632 355.181 589.143 350.636 582.596 347.783C563.947 339.57 544.766 323.775 532.39 306.294C523.01 293.047 516.506 274.964 517.627 265.332L518.148 261.48L520.5 269.357C521.753 273.67 524.132 280.136 525.676 283.727ZM659.53 301.054C655.675 303.863 646.118 307.316 640.439 307.878C637.63 308.211 632.816 307.935 629.706 307.393L624.1 306.379L631.798 305.721C639.772 305.047 649.662 303.009 656.527 300.451C661.658 298.595 662.588 298.836 659.53 301.054ZM724.712 328.98C716.54 344.134 716.716 343.826 714.787 342.615C713.841 342.104 713.003 341.532 712.942 341.427C712.672 341.091 727.576 319.268 728.679 318.226C730.947 316.246 729.337 320.435 724.712 328.98ZM557.086 310.319C563.688 316.908 571.324 322.702 580.585 327.856C586.442 331.238 589.269 332.15 603.694 335.987C621.268 340.554 627.327 341.242 642.54 340.588C646.554 340.479 649.886 340.547 650.071 340.861C650.626 341.803 640.066 343.312 631.017 343.619C624.684 343.923 623.449 344.133 625.73 344.726C627.335 345.143 631.866 345.789 635.766 346.093C639.582 346.376 642.884 346.88 643.007 347.089C643.316 347.612 632.485 347.81 625.867 347.508C617.744 347.081 602.591 343.586 593.87 340.08C573.456 332.028 557.36 319.162 546.898 302.621C539.733 291.19 539.135 288.11 545.795 297.107C548.898 301.28 553.963 307.204 557.086 310.319ZM682.812 341.661C673.349 352.315 660.797 362.345 657.235 362.128C655.262 362.058 653.483 362.925 650.35 365.744C643.976 371.441 642.215 373.554 639.87 378.438C638.655 380.869 635.91 385.56 633.722 388.89L629.805 394.872L626.969 390.06L624.026 385.307L604.799 376.235C594.217 371.271 584.474 366.878 583.038 366.505C579.889 365.775 578.071 366.454 574.072 370.111C569.966 373.829 567.641 374.377 563.284 372.447L559.788 371.007L561.878 365.082C563.9 359.405 563.929 358.97 562.39 357.329C561.497 356.3 558.269 354.22 555.371 352.581C552.366 351.003 548.829 348.4 547.459 346.804C543.034 341.844 540.597 340.502 531.833 338.136C527.271 336.95 521.532 335.105 518.943 333.989C511.766 330.795 508.911 331.293 503.243 336.732C501.512 338.408 500.025 339.528 499.902 339.319C499.756 339.193 501.505 335.483 503.753 331.282C507.039 324.959 508.656 320.417 512.395 307.212L516.918 290.843L519.509 296.213C532.62 322.834 555.095 342.763 584.728 353.83C602.053 360.282 622.653 362.09 640.57 358.86C655.142 356.267 664.788 351.508 680.566 339.305C685.201 335.636 689.095 333.015 689.28 333.329C689.465 333.643 686.61 337.42 682.812 341.661ZM704.767 341.518C710.235 346.306 720.625 357.866 722.198 361.022C723.57 363.593 725.011 362.639 711.207 368.355C702.41 372.006 699.843 374.086 700.142 377.265C700.268 378.449 702.453 383.979 705.06 389.618C707.668 395.258 711.889 405.215 714.46 411.643C717.008 418.153 719.693 424.167 720.44 425.07C721.602 426.435 722.999 426.621 731.106 426.778C742.928 426.926 749.203 428.468 754.049 432.563C759.586 437.103 772.669 458.578 771.801 461.72C771.71 462.05 766.803 461.13 760.888 459.593C748.13 456.277 739.9 455.911 727.692 458.144C712.714 460.897 696.158 468.379 686.528 476.686C684.758 478.176 683.079 479.335 682.741 479.247C682.403 479.159 681.885 477.429 681.65 475.33C681.079 470.84 683.43 461.35 686.161 457.364C690.208 451.238 699.873 444.446 711.085 439.917C714.36 438.553 716.913 437.178 716.705 436.947C716.52 436.633 714.509 436.376 712.236 436.406C707.523 436.422 699.722 439.091 689.907 443.806L683.221 447.03L685.251 441.976C686.366 439.253 686.921 436.916 686.583 436.828C686.245 436.741 682.552 439.945 678.439 444.016C674.326 448.086 670.634 451.291 670.211 451.181C668.944 450.852 673.539 439.464 677.035 434.347C678.872 431.635 682.507 426.997 685.049 424.025C693.042 414.761 694.091 413.261 692.159 414.354C688.318 416.457 678.064 427.349 670.333 437.302C665.779 443.295 661.821 448.115 661.399 448.005C661.061 447.917 660.949 446.028 661.205 443.79C661.982 437.701 669.592 421.958 679.161 406.989C683.758 399.855 688.095 393.007 688.883 391.794L690.244 389.49L687.662 391.3C684.044 393.904 675.469 403.637 670.25 411.053C667.848 414.505 665.651 417.212 665.313 417.124C664.975 417.036 665.717 412.71 667.049 407.563C669.331 398.321 669.354 398.238 667.173 401.216C665.688 403.311 663.85 408.327 661.024 418.225C653.804 443.374 654.3 441.907 652.786 441.16C650.534 440.131 646.24 428.471 646.089 423.116C645.994 418.218 646.124 418.075 653.049 404.811C670.178 372.314 679.057 357.874 689.638 345.472C694.744 339.445 697.702 336.935 699.391 337.374C699.814 337.484 702.282 339.366 704.767 341.518ZM490.432 303.454C485.835 313.867 478.346 325.566 470.988 333.844C465.559 340.053 462.885 342.193 456.66 345.715C444.447 352.554 433.995 354.002 414.921 351.261C404.04 349.674 403.41 349.333 404.474 344.825C404.967 342.383 405.335 342.036 406.726 342.574C426.763 350.351 436.918 349.977 452.956 340.765C471.655 330.118 484.286 314.882 493.262 292.228L495.765 285.79L494.534 291.229C493.881 294.249 492.013 299.7 490.432 303.454ZM328.326 247.773C338.787 256.782 346.412 278.346 345.409 296.072C344.821 307.704 338.627 321.6 334.656 320.568C332.544 320.019 332.363 318.378 334.008 312.425C337.023 301.513 337.131 285.06 334.189 273.752C332.276 266.255 325.677 254.084 320.274 248.073C318.135 245.656 316.08 243.262 315.749 242.821C315.333 242.359 317.199 242.489 319.734 243.148C323.113 244.026 325.488 245.263 328.326 247.773ZM314.979 248.558C319.409 252.19 327.617 266.728 329.569 274.412C332.032 284.178 332.433 295.181 330.695 303.767C328.516 314.277 326.472 316.758 314.275 323.867C308.885 326.985 304.209 329.491 303.955 329.425C303.617 329.338 303.451 326.991 303.675 324.213C304.018 316.417 303.167 303.436 301.92 298.771C301.308 296.397 300.822 295.207 300.909 296.204C301.276 308.97 300.745 318.756 299.158 326.141C297.403 334.457 297.25 334.683 294.567 336.201C291.562 337.901 287.262 337.404 286.243 335.19C285.958 334.584 285.461 328.518 285.208 321.896C284.955 315.273 284.099 306.899 283.384 303.258C281.716 295.204 278.435 287.086 277.147 287.814C276.181 288.361 277.263 294.933 280.379 308.236C283.728 322.663 282.78 331.011 276.655 338.103C274.809 340.193 273.039 341.682 272.624 341.22C272.27 340.862 271.889 338.637 271.83 336.229C271.395 317.154 258.391 303.586 230.256 292.996L225.346 291.1L228.26 289.731C231.067 288.422 236.977 288.008 244.14 288.629C247.595 288.907 247.618 288.824 245.796 287.553C244.75 286.75 240.094 284.92 235.431 283.442C230.661 282.026 226.911 280.52 227.003 280.189C227.3 279.114 235.233 277.277 241.035 276.924C244.098 276.657 249.402 276.795 252.75 277.133C256.182 277.493 259.891 277.837 261.142 277.896L263.391 277.949L261.199 276.05C259.907 274.828 255.949 273.091 251.202 271.592L243.29 269.092L246.373 267.767C251.212 265.658 257.384 265.932 267.945 268.677C273.184 270.038 277.561 270.91 277.675 270.496C277.767 270.166 275.282 268.014 272.015 265.747C265.564 261.235 265.932 260.888 275.776 262.294C278.571 262.666 280.567 262.653 280.32 262.234C279.989 261.794 277.16 259.907 274.077 257.954C269.042 254.874 268.627 254.411 269.775 253.203C272.831 250.01 277.193 250.612 284.657 255.387C292.291 260.206 299.899 267.411 308.229 277.904L316.004 287.456L310.656 278.624C302.366 265.039 293.748 256.243 282.803 250.298C277.846 247.592 277.969 247.801 280.214 245.903C282.505 243.84 287.853 242.838 291.317 243.738C301.371 246.351 314.249 262.013 321.862 281.004C325.343 289.706 326.403 289.804 324.556 281.084C322.522 271.074 317.613 262.622 306.237 249.387C303.913 246.657 302.157 244.163 302.294 243.667C302.637 242.427 311.741 245.856 314.979 248.558ZM503.195 305.441L505.894 307.472L504.092 311.7C501.091 318.629 497.257 320.379 493.064 316.543C490.918 314.479 494.177 306.288 498.041 304.102C500.057 303.031 499.888 302.987 503.195 305.441ZM732.222 373.905C733.199 374.956 733.877 376.107 733.763 376.52C733.649 376.934 730.605 378.447 727.008 379.993C722.491 381.92 719.739 383.686 718.17 385.759L715.797 388.776L713.907 384.474C712.85 382.073 712 379.903 712.069 379.655C712.434 378.332 714.337 377.675 716.602 377.998C718.675 378.359 719.427 377.934 720.313 376.038C721.352 373.916 721.759 373.755 725.122 374.364C728.063 374.862 728.831 374.707 729.196 373.384C729.721 371.483 730.082 371.488 732.222 373.905ZM715.495 370.533C715.426 370.781 714.086 372.027 712.599 373.147C706.76 377.567 706.769 378.189 713.555 391.648C715.089 394.617 718.092 401.777 720.146 407.45C724.496 419.567 724.096 419.374 738.124 417.438C743.105 416.782 748.078 416.48 749.177 416.765C753.401 417.863 763.87 430.773 761.616 432.048C761.294 432.23 759.273 431.351 757.282 430.036C751.309 426.091 745.294 424.263 735.059 423.287C729.953 422.757 724.831 421.958 723.74 421.32C722.479 420.638 718.739 413.198 712.335 398.686C707.088 386.867 702.935 376.661 703.095 376.083C703.506 374.595 705.744 373.05 710.3 371.309C714.365 369.708 715.792 369.458 715.495 370.533ZM493.589 321.198C494.888 322.067 495.797 323.367 495.614 324.028C495.34 325.02 491.654 331.151 484.442 342.833C483.455 344.438 482.672 344.323 478.706 341.963C476.731 340.918 475.861 339.806 476.112 338.896C476.233 338.13 479.108 333.296 482.413 328.218C488.869 318.288 488.999 318.145 493.589 321.198ZM749.635 395.442C750.644 397.033 751.623 399.06 751.84 399.914C752.174 401.329 751.936 401.533 750.331 401.116C749.063 400.787 747.509 398.877 745.858 395.347L743.221 390.142L745.595 391.38C746.856 392.062 748.71 393.873 749.635 395.442ZM736.801 392.727C740.704 397.286 739.203 399.111 732.866 397.464C729.994 396.718 729.994 396.718 731.022 392.998C732.232 388.616 733.061 388.566 736.801 392.727ZM658.755 382.193C659.556 383.553 659.35 384.297 657.592 387.384C654.258 392.898 652.556 394.139 649.652 392.853C648.346 392.336 646.8 391.048 646.329 390.128C645.512 388.498 645.672 387.92 647.958 383.906C649.449 381.458 650.918 379.093 651.285 378.746C652.366 377.786 657.583 380.205 658.755 382.193ZM522.248 346.278C524.347 347.532 525.783 347.905 527.233 347.573C528.898 347.12 529.528 347.461 530.722 349.366C532.741 352.549 540.786 355.88 544.053 354.868C545.741 354.332 547.753 354.589 550.979 355.693C554.69 357.012 555.82 357.837 556.923 360.073C558.535 363.416 557.944 366.541 556.014 365.33C555.238 364.863 546.499 360.111 536.454 354.842C520.191 346.186 516.14 343.804 518.59 344.441C519.013 344.551 520.673 345.425 522.248 346.278ZM748.453 405.945C750.467 407.177 751.988 407.572 753.269 407.196C754.804 406.886 755.327 407.288 756.254 409.833C757.628 413.38 757.13 413.87 754.409 411.923C752.879 410.905 751.673 410.68 749.755 411.068C747.622 411.577 746.777 411.357 744.263 409.641C742.587 408.496 741.119 407.583 741.034 407.561C740.865 407.517 740.276 408.339 739.703 409.43C738.869 410.809 738.033 411.212 736.428 410.794C735.245 410.487 733.057 410.539 731.523 410.849C728.73 411.452 728.645 411.43 729.194 409.446C729.559 408.123 729.219 407.06 728.212 406.444C725.591 404.788 726.924 403.895 730.642 404.861C732.585 405.366 734.919 405.44 735.777 404.955C737.257 404.187 742.361 403.741 744.688 404.169C745.218 404.218 746.878 405.092 748.453 405.945ZM536.44 358.826C546.67 364.408 552.374 368.017 553.198 369.295C554.47 371.575 554.669 371.183 544.949 387.353C540.032 395.645 539.664 395.992 537.552 395.443C535.27 394.851 526.255 390.116 525.678 389.257C525.577 388.965 526.228 388.248 527.194 387.701C528.957 386.565 534.02 378.399 534.842 375.423C535.117 374.431 534.968 373.329 534.553 372.867C533.221 371.458 516.984 363.694 515.771 363.822C514.198 363.945 509.356 371.636 508.038 376.078C507.017 379.446 506.887 379.589 504.996 378.566C498.125 374.92 494.819 372.466 494.424 370.945C494.129 369.717 495.733 365.881 499.928 357.579C503.215 351.256 506.126 345.633 506.432 345.181C507.328 343.907 518.017 348.811 536.44 358.826ZM490.6 353.648C488.184 357.805 484.516 365.181 482.362 370.026C476.1 384.171 474.284 385.826 462.291 387.937C455.814 389.089 453.542 389.119 449.233 387.999C444.586 386.792 443.725 386.302 442.246 383.791C441.321 382.222 440.796 380.845 441.095 380.745C441.31 380.624 445.391 379.292 450.07 377.761C464.299 373.13 478.026 363.76 489.634 350.917C492.391 347.823 494.665 345.49 494.789 345.699C494.85 345.804 493.039 349.409 490.6 353.648ZM600.679 383.937C624.272 395.561 625.717 396.557 626.217 400.32C626.592 402.898 626.226 404.221 623.766 409.518C620.336 416.69 611.191 432.743 607.917 437.386C604.642 442.028 596.489 448.593 593.098 449.395C590.328 449.916 589.483 449.697 581.575 445.87C569.103 439.882 567.635 438.969 566.016 435.978L564.605 433.219L568.247 434.786C570.268 435.666 574.8 437.287 578.258 438.539L584.626 440.726L588.49 438.54C591.496 436.84 592.407 435.837 593.161 433.108C594.737 427.404 592.974 425.263 582.506 419.884C577.588 417.366 572.701 415.387 571.619 415.372C569.769 415.511 565.09 420.32 564.274 422.944C563.475 425.837 562.075 424.676 560.306 419.609C557.392 411.143 557.998 407.313 563.335 398.156C570.799 385.564 577.202 376.153 579.043 375.39C581.397 374.407 582.05 374.666 600.679 383.937ZM650.019 399.062C650.782 400.235 636.755 419.538 635.074 419.722C634.437 419.734 633.046 419.195 632.169 418.435L630.454 417.104L635.965 406.663C638.985 400.979 641.652 395.913 642.066 395.4C642.678 394.496 648.864 397.344 650.019 399.062ZM460.162 353.359C453.841 358.539 443.446 364.698 443.389 363.266C443.216 361.272 447.705 357.476 455.456 353.022C459.727 350.676 463.691 348.782 464.282 348.936C464.789 349.068 462.967 351.075 460.162 353.359ZM568.531 380.988C568.801 381.324 557.898 397.186 557.101 397.777C556.35 398.202 553.436 393.014 552.77 390.183C552.126 387.269 553.469 383.719 556.821 379.451C558.651 377.091 558.735 377.113 563.499 378.883C566.134 379.833 568.408 380.779 568.531 380.988ZM241.114 301.222C251.643 306.705 260.76 315.986 264.05 324.727C265.888 329.546 266.205 337.248 264.636 339.322C263.917 340.286 263.177 339.031 261.508 334.256C257.088 321.411 250.258 312.371 240.526 306.298C234.108 302.326 225.019 299.167 217.687 298.502C214.784 298.191 213.117 297.669 213.254 297.173C213.437 296.511 217.765 295.598 221.909 295.346C224.926 295.244 236.302 298.643 241.114 301.222ZM440.19 360.751C438.842 365.629 432.396 369.624 425.986 369.553C423.821 369.523 423.659 369.126 423.33 363.104C423.23 359.534 423.246 356.525 423.545 356.426C424.082 356.122 436.482 357.129 439.507 357.65C440.629 357.852 440.784 358.602 440.19 360.751ZM379.179 347.555C380.757 349.383 382.208 356.583 381.158 357.107C380.192 357.654 366.82 350.989 367.048 350.162C367.163 349.749 368.779 348.486 370.673 347.205C374.329 344.788 376.916 344.929 379.179 347.555ZM414.445 358.226C416.752 359.711 417.409 361.92 417.244 367.105C417.119 369.199 416.751 369.546 413.75 369.918C409.43 370.479 405.29 369.403 405.132 367.679C405 366.847 405.432 364.301 405.987 361.964C406.953 358.139 407.366 357.627 409.499 357.118C410.842 356.846 411.908 356.592 411.993 356.614C412.077 356.636 413.146 357.356 414.445 358.226ZM511.812 388.312C528.988 396.939 536.69 401.511 536.279 402.999C535.594 405.479 527.614 417.316 525.851 418.453C524.219 419.446 523.266 419.288 518.227 417.535C504.144 412.458 483.579 402.329 481.431 399.29C479.652 396.878 484.811 383.776 488.872 380.224C490.534 378.795 491.087 378.762 494.921 380.29C497.218 381.152 504.834 384.726 511.812 388.312ZM550.296 402.742L551.076 405.16L547.697 404.282C544.233 403.382 544.155 403.007 547.129 400.767C548.723 399.587 549.414 400.032 550.296 402.742ZM372.759 356.697C376.609 358.495 379.653 360.26 379.516 360.756C379.402 361.17 378.68 361.159 377.988 360.714C377.189 360.329 374.515 359.191 372.072 358.202C365.265 355.635 363.143 354.464 363.372 353.637C363.646 352.645 364.575 352.887 372.759 356.697ZM630.363 423.991C633.043 424.776 633.146 426.044 630.798 429.952C629.506 432.009 627.555 435.135 626.523 436.905C624.895 439.848 624.358 440.152 622.161 439.581C617.092 438.264 617.076 437.994 621.726 430.342C626.643 422.05 626.773 421.907 628.303 422.924C628.91 423.348 629.856 423.859 630.363 423.991ZM639.128 433.889C637.552 439.593 635.942 440.504 635.694 435.832C635.504 433.568 638.946 427.994 640.129 428.301C640.467 428.389 639.951 430.913 639.128 433.889ZM228.76 327.252C233.233 329.744 240.677 335.577 240.449 336.403C240.38 336.651 238.766 335.612 236.798 334.214C233.553 331.865 221.471 325.447 216.039 323.149C214.924 322.594 216.237 322.758 219.048 323.399C221.752 324.102 226.093 325.762 228.76 327.252ZM543.141 409.301C543.28 409.78 542.006 413.081 540.217 416.604C533.982 429.338 534.976 430.659 561.167 444.022C579.182 453.222 579.412 453.371 578.521 456.595C578.133 458 577.414 458.965 576.822 458.811C576.231 458.658 571.189 455.93 565.54 452.778C551.827 445.051 550.368 444.76 543.766 448.006C539.886 449.922 537.753 450.431 535.726 449.904C531.839 448.894 510.395 437.031 509.094 435.186C508.308 434.096 508.235 432.394 508.806 430.327C510.222 425.202 508.537 423.435 494.078 414.804C486.983 410.657 480.987 406.795 480.617 406.167C480.186 405.435 480.462 405.418 481.576 405.973C483.905 407.376 507.996 418.509 514.65 421.302C525.746 426.046 526.429 425.869 532.826 416.81C535.182 413.523 537.669 410.094 538.304 409.107C539.567 407.486 542.623 407.571 543.141 409.301ZM764.13 467.524C767.343 469.333 771.326 471.963 772.849 473.333C778.756 478.501 781.653 486.697 780.853 496.147L780.622 499.277L775.654 494.973C752.525 474.786 715.088 478.526 689.613 503.538C687.469 505.728 685.338 507.212 685.069 506.876C683.653 505.445 687.373 500.83 695.517 493.642C709.123 481.761 719.52 476.577 732.283 475.286C742.068 474.284 758.053 478.704 767.655 484.92C768.724 485.641 768.63 484.996 767.189 482.673C764.678 478.653 756.56 473.619 749.801 471.863C743.211 470.151 735.419 470.164 725.981 471.876C709.79 474.757 696.794 481.481 690.596 490.148C688.897 492.365 687.237 494.769 686.8 495.364C685.407 497.129 685.328 492.501 686.545 487.767C687.968 482.289 689.982 480.242 699.565 474.403C712.412 466.578 723.634 462.671 735.516 461.949C747.781 461.148 755.161 462.623 764.13 467.524ZM581.147 423.164C589.24 427.305 590.01 428.125 589.21 431.019C587.474 437.301 583.615 438.159 575.438 433.997C566.439 429.531 566.146 429.278 567.334 424.98C569.093 418.614 571.541 418.275 581.147 423.164ZM216.175 329.21C226.732 333.282 235.393 337.659 236.357 339.416C237.181 340.693 218.678 335.885 213.145 333.295C204.415 329.166 196.505 324.364 197.893 323.927C199.796 323.27 204.65 324.709 216.175 329.21ZM441.503 391.395C445.102 394.103 448.278 396.7 448.586 397.223C450.667 400.511 413.422 400.933 397.455 397.759L389.376 396.191L390.545 393.926C391.249 392.691 392.861 389.477 394.145 386.798L396.575 381.936L402.459 383.908C407.161 385.573 410.041 385.966 417.195 385.965C421.993 385.971 426.407 386.055 426.829 386.165C427.336 386.296 426.989 388.864 426.144 391.923L424.675 397.567L427.749 395.619C429.727 394.36 431.465 392.331 432.488 389.939C433.397 387.96 434.299 386.334 434.552 386.399C434.806 386.465 437.905 388.688 441.503 391.395ZM471.927 398.947C474.687 404.36 473.883 405.303 463.858 408.812C451.417 413.199 439.43 414.958 423.763 414.962C409.477 414.883 398.258 413.208 371.73 407.289C344.865 401.282 338.108 400.501 328.501 402.169C322.385 403.327 320.255 404.811 319.09 409.027C318.313 411.838 316.303 412.556 314.111 410.658C312.004 408.781 311.543 405.206 313.018 402.488C315.565 398.188 327.238 393.955 337.816 393.691C341.385 393.556 348.834 394.782 362.912 397.909C397.242 405.412 407.532 406.846 427.207 407.085C444.932 407.172 458.919 404.073 466.759 398.313C469.947 395.951 470.392 395.978 471.927 398.947ZM555.421 425.162C557.987 432.917 557.827 433.496 553.769 431.467C549.081 429.097 547.695 427.23 548.403 424.668C549.089 422.188 551.79 418.637 552.72 418.878C553.058 418.966 554.277 421.764 555.421 425.162ZM632.978 449.923C634.368 457.019 632.901 466.916 629.832 470.814C628.286 472.805 619.834 476.191 619.24 475.062C619.056 474.748 629.404 444.83 630.023 443.573C630.131 443.513 630.491 443.518 630.914 443.628C631.421 443.759 632.279 446.552 632.978 449.923ZM620.224 445.28C620.9 445.456 619.792 451.105 616.704 463.593C608.351 496.776 608.16 510.903 614.685 578.078C618.826 620.445 620.412 645.843 619.201 650.225C618.584 652.457 617.933 653.174 616.36 653.297C615.148 653.424 613.711 653.051 613.065 652.44C611.688 651.196 603.541 545.322 603.145 523.157C602.644 495.47 607.46 462.963 614.333 446.939C615.799 443.599 616.167 443.251 617.658 444.082C618.603 444.593 619.717 445.148 620.224 445.28ZM370.129 384.899L372.561 387.569L370.211 387.224C368.199 386.967 361.794 382.29 362.068 381.298C362.388 380.14 368.028 382.669 370.129 384.899ZM762.905 492.281C772.589 497.544 778.704 506.221 778.484 514.227C778.436 516.696 778.413 516.778 775.508 515.492L772.604 514.205L774.91 518.969C776.09 521.58 778.017 525.093 779.088 526.789C780.591 529.217 780.839 530.611 780.177 533.008L779.332 536.067L774.699 530.876C767.157 522.448 755.093 513.997 747.996 512.153C743.856 511.077 744.98 512.255 754.623 519.634C759.29 523.062 764.843 527.872 767.067 530.311C770.915 534.412 777.326 545.293 776.276 545.817C776.038 546.021 774.23 544.045 772.367 541.612C767.462 535.109 759.018 528.308 751.779 525.009C740.038 519.654 737.206 520.07 747.329 525.713C750.395 527.396 753.67 529.31 754.716 530.114C756.476 531.28 756.43 531.445 754.857 531.568C753.453 531.735 754.608 533.453 760.611 540.24C776.211 557.851 777.96 560.698 776.384 566.402C775.379 570.039 770.848 579.229 770.172 579.053C769.918 578.987 768.032 576.636 766.092 573.828C760.97 566.472 753.937 559.151 748.094 555.063C742.481 551.124 730.28 546.447 729.846 548.018C729.572 549.01 730.034 549.307 738.718 553.601C746.771 557.555 755.901 565.155 760.253 571.691C764.258 577.516 766.632 585.31 765.581 589.113L764.85 591.758L759.201 585.329C748.588 573.267 737.687 566.181 724.383 562.547C720.159 561.449 714.936 560.358 712.84 560.079L708.962 559.692L712.445 558.559C715.544 557.503 715.758 557.382 714.222 556.717C711.694 555.705 706.775 556.465 697.225 559.566L688.872 562.268L689.057 559.304C689.715 551.678 699.987 542.031 714.228 535.719C718.361 533.869 721.366 532.169 720.905 531.872C719.06 530.683 706.724 534.035 700.675 537.247C697.24 539.19 694.28 540.725 694.196 540.703C694.027 540.659 694.577 539.65 695.258 538.498C697.713 534.529 701.084 531.506 707.14 527.94C710.406 525.954 712.605 524.221 712.098 524.09C711.507 523.936 707.556 525.124 703.407 526.704C699.15 528.345 695.583 529.456 695.46 529.247C695.421 529.06 696.652 526.898 698.335 524.412C702.658 518.27 702.272 517.372 696.999 521.052C694.524 522.801 692.331 524.181 692.078 524.115C691.825 524.049 690.459 521.125 688.977 517.639L686.407 511.211L692.114 505.96C702.509 496.522 712.998 491.008 725.934 488.433C740.62 485.426 752.675 486.698 762.905 492.281ZM601.608 458.252C599.936 462.337 598.424 465.843 598.232 465.881C598.018 466.003 595.545 465.449 592.718 464.537L587.548 462.928L595.847 456.489C600.46 452.903 604.292 450.178 604.415 450.387C604.538 450.596 603.303 454.085 601.608 458.252ZM476.071 429.175C488.514 435.598 490.421 436.891 487.333 436.266C485.176 435.882 482.543 435.907 481.43 436.327C480.318 436.747 478.491 436.804 477.393 436.518C474.774 435.838 458.5 422.305 458.843 421.065C459.002 420.486 459.578 420.37 460.101 420.772C460.562 421.069 467.833 424.908 476.071 429.175ZM456.762 427.613C472.965 440.418 485.643 445.662 497.47 444.482L503.341 443.881L517.621 451.845C525.454 456.273 533.133 460.927 534.679 462.214C537.602 464.746 539.609 469.609 538.809 472.503C537.804 476.14 539.288 477.323 550.783 482.26L561.879 487.004L561.114 491.412C560.728 493.793 559.284 500.329 557.923 505.912L555.474 516.085L546.632 516.623C541.743 516.947 537.153 517.172 536.408 517.245C535.388 517.334 535.671 516.965 537.242 515.866L539.457 514.404L537.185 514.434C535.934 514.375 532.664 514.411 529.946 514.414C520.497 514.528 509.561 512.483 499.781 508.879C481.757 502.334 459.066 489.084 439.933 474.099C421.031 459.264 412.736 450.286 413.969 445.821C414.654 443.341 417.963 440.214 421.085 439.076C423.095 438.357 423.617 438.759 428.559 444.473C434.847 451.867 442.777 458.89 450.158 463.643C458.522 469.095 458.029 468.258 448.192 459.942C438.816 451.924 432.121 444.69 428.984 439.002L427.157 435.78L429.726 434.676C434.006 432.952 435.887 433.353 437.929 436.453C445.941 449.079 458.97 460.262 471.901 465.572L475.566 467.056L471.205 463.176C456.767 450.209 444.905 439.063 442.957 436.608C441.756 435.055 439.79 431.354 438.639 428.309L436.539 422.801L439.775 421.249C444.322 418.887 447.103 419.964 456.762 427.613ZM425.982 422.007C425.434 423.991 410.818 437.56 407.973 438.681C403.885 440.366 397.756 438.95 389.794 434.666C381.623 430.15 378.858 426.065 378.672 418.219C378.599 416.517 379.005 416.356 382.353 416.695C385.424 417.05 423.155 421.095 425.528 421.357C425.866 421.445 426.073 421.676 425.982 422.007ZM589.655 471.361C592.429 472.791 594.866 474.133 594.966 474.425C595.151 474.739 594.763 476.144 594.037 477.462L592.714 479.953L586.875 477.816C583.587 476.607 580.744 475.425 580.452 475.172C579.829 474.478 580.658 471.15 581.836 469.507C582.862 468.089 583.2 468.177 589.655 471.361ZM624.259 481.151C623.734 483.052 619.196 489.316 618.436 489.118C617.675 488.921 617.888 484.546 618.824 481.156C619.418 479.007 619.825 478.846 622.022 479.417C623.542 479.812 624.442 480.489 624.259 481.151ZM335.903 410.118C330.021 415.678 330.128 415.617 330.16 412.879C330.238 409.975 331.67 408.398 334.931 407.739C338.683 406.942 338.822 407.421 335.903 410.118ZM558.288 470.83C561.524 472.557 563.453 473.767 562.501 473.609C559.752 473.071 547.24 466.896 546.539 465.828C545.8 464.572 549.926 466.354 558.288 470.83ZM597.975 494.345C597.659 500.731 597.266 506.743 597.037 507.57C596.672 508.893 591.004 511.053 590.472 510.028C589.917 509.087 591.58 497.823 593.157 492.119C594.733 486.414 597.491 481.018 598.147 482.251C598.355 482.482 598.206 487.937 597.975 494.345ZM371.569 427.538C375.561 430.79 385.164 441.26 403.075 462.307C411.149 471.759 418.13 479.598 418.468 479.686C418.89 479.796 415.52 472.983 411.141 464.58C399.676 442.816 400.206 442.865 417.596 464.485C424.54 473.112 433.153 483.236 436.585 486.875C452.628 503.537 472.378 516.289 493.865 523.734L500.825 526.074L497.051 526.954C494.15 527.618 491.586 527.394 486.663 526.204C479.819 524.425 478.031 524.669 482.258 526.742C486.423 528.711 491.138 529.67 510.996 532.527C530.854 535.383 560.391 541.552 565.524 543.949C567.123 544.719 568.353 545.837 568.194 546.415C567.714 548.151 563.485 548.381 551.768 547.197C542.593 546.319 534.367 544.625 504.974 537.607C485.342 532.949 468.353 528.889 467.255 528.603C452.078 525.191 526.393 548.578 546.97 553.748C564.42 558.105 564.897 558.672 559.088 565.935C554.977 570.98 553.495 570.772 544.014 563.79C533.38 556.064 529.53 554.267 517.795 551.837C499.739 548.032 477.758 549.585 458.995 555.874C451.793 558.344 438.742 564.611 439.151 565.426C439.358 565.657 442.649 564.563 446.607 563.021C453.732 560.177 469.244 556.145 469.737 556.982C469.945 557.213 466.325 558.842 461.685 560.56C449.966 564.958 435.837 573.159 422.603 583.366C415.491 588.783 410.394 592.155 409.143 592.096C407.592 592.136 406.423 591.123 404.667 588.629C401.409 583.706 396.657 580.256 391.211 578.664L386.61 577.291L387.87 574.695C397.773 554.585 398.96 532.919 391.695 508.082C387.433 493.684 377.101 473.721 369.459 465.001C365.326 460.294 354.55 451.115 348.223 446.812C346.232 445.497 344.878 444.171 345.245 443.823C346.563 442.66 355.101 443.549 359.865 445.319C370.759 449.479 376.867 455.23 387.343 471.066C391.095 476.826 394.237 481.186 394.328 480.856C394.602 479.864 383.917 456.265 381.421 452.515C377.731 446.86 371.226 441.891 363.681 439.045C357.719 436.698 352.291 433.072 352.725 431.502C352.816 431.171 355.488 431.334 358.621 431.793L364.357 432.664L363.147 430.488C361.798 427.834 361.531 425.195 362.504 424.296C363.607 423.254 368.308 424.918 371.569 427.538ZM573.781 485.223C571.604 490.151 570.618 491.755 569.857 491.558C569.519 491.47 569.999 489.734 570.954 487.59C571.886 485.528 572.886 483.218 573.114 482.392C573.404 481.67 574.01 481.118 574.517 481.25C575.108 481.403 574.804 482.831 573.781 485.223ZM584.052 488.69C586.135 489.674 586.482 490.384 586.196 493.057C584.987 504.97 584.891 513.185 585.761 517.576C586.258 520.363 586.532 522.65 586.402 522.793C586.103 522.892 578.658 523.616 568.152 524.607C567.238 524.636 568.104 520.519 572.238 505.556L577.515 486.459L579.542 486.986C580.641 487.271 582.6 488.046 584.052 488.69ZM565.022 508.731C563.514 514.187 562.341 514.503 562.375 509.461C562.442 504.96 562.992 503.951 564.935 504.456C565.78 504.675 565.821 505.838 565.022 508.731ZM596.822 517.526C596.66 520.408 594.488 520.73 592.947 518.114C591.776 516.126 591.805 515.691 593.086 515.315C595.265 514.641 596.987 515.62 596.822 517.526ZM347.193 452.836C360.174 459.93 375.457 479.673 383.64 499.875C391.638 519.763 393.588 547.118 388.04 561.625C385.644 568.002 384.473 569.293 374.345 578.091L366.139 585.174L364.411 581.269C361.162 573.691 354.874 563.019 350.702 558.125C348.378 555.394 341.669 548.866 335.762 543.698C317.017 527.309 302.972 518.166 286.768 511.917C281.943 510.043 278.093 508.245 278.184 507.914C278.504 506.757 288.075 505.877 295.261 506.415C304.228 507.062 314.906 510.368 324.022 515.395C327.657 517.314 331.023 518.898 331.468 518.925C333.126 518.824 320.807 509.332 315.512 506.538C309.186 503.211 296.935 500.028 289.934 499.803C286.963 499.74 284.399 499.517 284.275 499.307C284.152 499.098 284.641 497.985 285.214 496.893C286.621 494.423 289.836 493.93 300.806 494.211C305.136 494.273 308.851 494.264 309.066 494.142C309.925 493.656 303.928 489.794 301.224 489.092C299.619 488.675 297.237 487.79 295.87 487.169C293.703 486.163 293.541 485.766 294.582 484.619C296.336 482.86 303.164 481.09 310.263 480.631L316.173 480.217L312.954 478.76C311.209 477.864 308.32 476.848 306.631 476.408C303.781 475.579 303.511 475.243 304.037 473.342C304.905 470.201 309.919 467.782 316.122 467.622C319.883 467.447 324.306 468.154 330.789 469.927C338.646 471.969 341.09 472.958 346.54 476.501C363.353 487.427 373.904 505.94 382.048 539.068C387.495 561.306 388.216 558.038 383.468 532.615C377.679 501.782 365.622 478.89 349.715 468.288C342.504 463.579 331.566 460.559 322.578 460.971C319.093 461.128 316.145 460.982 315.875 460.647C315.691 460.333 320.205 457.43 325.787 454.273C337.271 447.776 337.908 447.765 347.193 452.836ZM447.822 486.516C480.608 510.099 500.652 517.523 537.712 520.064C555.416 521.209 555.732 521.38 558.314 526.127C560.179 529.536 562.038 530.019 572.684 529.507C577.466 529.243 581.542 529.239 581.643 529.531C582.136 530.368 571.293 532.246 563.641 532.739C551.675 533.439 545.201 532.289 513.716 523.664C482.823 515.193 479.703 514.028 466.327 505.413C457.309 499.703 431.957 477.077 435.359 477.873C435.782 477.983 441.417 481.839 447.822 486.516ZM737.531 571.989C747.537 577.07 760.763 590.165 761.712 595.905C762.094 598.131 760.591 602.259 759.577 601.995C759.323 601.93 757.175 598.89 754.848 595.185C749.756 587.393 744.493 581.861 737.435 576.926C730.9 572.392 716.32 567.806 707.115 567.363C700.497 567.061 700.257 566.29 706.226 565.006C713.707 563.494 726.434 566.27 737.531 571.989ZM732.049 591.83C746.036 598.565 758.204 612.537 755.431 618.639C754.721 620.227 754.429 619.974 751.01 615.63C743.343 606.017 734.202 600.098 719.983 595.517C712.155 593.04 710.725 592.314 709.154 590.133C708.184 588.729 707.374 586.747 707.371 585.771C707.383 584.091 707.828 584.118 716.615 586.401C721.769 587.741 728.706 590.163 732.049 591.83ZM588.206 590.336C588.167 593.427 588.525 599.014 589.048 602.694C589.57 606.374 589.808 609.448 589.593 609.57C589.401 609.608 587.629 610.123 585.75 610.697L582.228 611.643L576.694 604.8C573.668 601.001 571.296 597.461 571.478 596.799C571.89 595.311 572.458 595.548 575.997 599.125C580.621 603.694 581.117 602.228 576.927 596.089L573.315 590.808L580.609 581.451C584.681 576.218 588.47 571.355 589.143 570.555C589.993 569.447 589.959 571.21 589.296 576.886C588.745 581.173 588.245 587.245 588.206 590.336ZM711.814 605.09C717.098 609.564 723.904 618.687 722.701 619.438C721.949 619.863 702.703 602.013 701.161 599.398C699.474 596.656 706.199 600.175 711.814 605.09ZM536.581 566.111C542.187 570.403 547.701 575.026 548.886 576.309C552.019 580.047 552.777 585.826 550.972 592.357C550.127 595.416 549.188 597.83 548.851 597.742C548.597 597.676 546.27 593.97 543.727 589.411C538.802 580.688 535.639 577.385 528.414 573.381C519.468 568.398 507.059 566.769 491.91 568.503C487.313 569.08 483.292 569.542 483.077 569.663C481.49 570.491 484.285 570.863 491.693 570.927C510.116 571.107 525.923 574.86 533.045 580.876C536.867 584.084 543.156 594.756 549.459 608.976L552.145 614.99L550.192 620.419C548.467 625.021 541.758 634.885 540.575 634.578C540.321 634.512 534.245 629.3 527.023 622.993C519.693 616.747 513.571 611.7 513.356 611.822C513.034 612.004 516.398 615.891 520.722 620.559C530.765 631.408 533.783 635.56 535.63 641.002C538.505 649.28 537.358 654.742 531.909 658.731L529.97 660.176L527.861 654.046C523.448 640.849 513.672 629.359 501.691 623.233C494.943 619.796 484.003 615.802 484.805 617.162C485.197 617.707 490.65 622.225 496.964 627.233C523.102 647.67 528.498 654.034 526.328 661.888C525.963 663.21 525.474 664.324 525.305 664.28C525.136 664.236 522.752 662.376 520.099 660.18C516.546 657.308 513.502 655.542 509.599 654.262L504.03 652.461L513.698 660.732C524.496 669.829 524.227 669.493 523.728 679.819C523.499 683.924 522.944 686.261 521.652 688.318L519.962 691.157L515.897 686.202C511.833 681.247 504.473 675.436 501.994 675.235C501.187 675.202 503.089 677.823 506.268 681.396C511.986 687.578 516.986 695.7 516.461 697.601C515.554 700.555 514.111 700.535 511.302 697.59C502.838 688.568 488.482 677.926 476.315 671.486C456.31 660.971 435.304 656.044 411.539 656.514C407.163 656.618 403.325 656.418 403.224 656.126C402.114 654.242 406.12 653.511 419.76 652.98C444.338 652.189 445.673 652.271 457.157 655.609C462.711 657.141 467.212 658.222 467.134 657.847C466.972 657.451 464.042 655.272 460.583 653.044C454.379 648.951 453.956 648.841 433.763 643.593L413.147 638.236L416.66 636.668C421.245 634.493 430.169 633.002 437.685 633.005C441.039 632.991 443.848 632.657 443.939 632.327C444.191 631.417 442.9 631.171 430.345 629.415C424.333 628.561 419.318 627.701 419.218 627.409C418.786 626.677 427.784 623.61 433.47 622.695C436.601 622.179 444.13 621.478 450.186 621.191L461.215 620.601L455.2 618.772C447.181 616.334 440.917 616.39 424.749 619.188C417.36 620.369 411.228 621.257 411.128 620.965C411.004 620.756 413.633 618.781 416.967 616.546C420.301 614.311 422.991 612.441 422.868 612.231C422.745 612.022 420.235 612.256 417.273 612.815C414.25 613.27 411.656 613.482 411.494 613.086C410.877 612.039 421.583 604.1 428.683 600.363C432.585 598.364 441.037 594.979 447.488 592.933C464.709 587.307 463.574 587.81 460.119 587.532C456.242 587.145 447.164 588.862 438.151 591.659C434.2 592.848 430.809 593.65 430.601 593.419C429.985 592.372 450.709 581.277 460.273 577.471C465.749 575.35 470.097 573.379 469.912 573.065C469.357 572.123 458.387 575.12 449.551 578.584C444.674 580.506 433.648 586.324 424.993 591.43C416.315 596.617 409.323 600.294 409.528 599.55C410.077 597.566 439.086 577.459 449.942 571.597C468.266 561.65 489.157 556.18 510.266 555.817C521.012 555.597 525.015 557.169 536.581 566.111ZM301.405 527.771C322.397 536.681 341.518 553.346 351.53 571.188C355.839 578.864 359.869 588.861 360.222 592.497C360.396 594.491 358.859 597.104 357.676 596.797C357.253 596.687 354.221 593.241 351.011 589.128C344.629 581.09 337.89 574.998 333.004 573.019C330.076 571.815 330.199 572.025 335.47 577.204C343.302 584.91 347.051 589.694 350.798 596.782C354.321 603.368 355.049 606.304 353.117 607.397C352.258 607.883 350.395 605.449 346.365 598.731C343.237 593.665 340.449 589.662 340.127 589.844C339.805 590.027 340.463 592.235 341.536 594.907C343.543 599.77 345.223 606.143 344.835 607.548C344.698 608.044 343.165 609.33 341.402 610.466C337.639 612.944 334.193 616.568 333.622 618.634C333.393 619.461 332.735 620.531 332.13 621.082C331.265 621.92 329.317 619.465 323.323 610.022C319.163 603.447 315.444 598.227 315.122 598.41C314.8 598.592 316.832 604.347 319.711 611.298C322.505 618.227 325.055 625.712 325.268 627.894C325.637 631.8 325.615 631.882 322.184 635.776C317.713 640.816 309.715 644.852 302.847 645.459C295.295 646.244 286.053 643.31 279.363 638.028C265.42 626.873 255.291 615.026 245.119 597.763C231.371 574.431 224.488 551.82 229.451 546.642C230.86 545.147 231.106 545.566 231.752 552.733C233.135 566.738 238.941 581.449 248.947 596.365C259.098 611.408 269.341 622.842 279.076 629.89C283.912 633.362 295.195 639.395 296.031 638.992C296.268 638.788 293.469 636.465 289.893 633.676C272.991 620.777 257.274 602.605 246.853 583.948C240.271 572.048 239.31 567.988 245.358 577.889C250.69 586.451 257.279 594.72 262.225 599.107C264.125 600.752 265.902 602.189 266.155 602.255C266.408 602.32 264.559 599.182 262.109 595.267C255.006 583.94 247.489 566.569 241.937 548.646C239.323 540.081 239.679 538.135 244.468 537.519C255.027 536.01 265.771 538.093 272.284 542.709C274.921 544.635 276.12 545.212 276.072 544.402C275.921 542.325 271.482 538.071 265.879 534.754C259.898 531.162 258.259 529.23 258.35 525.621C258.369 523.587 258.714 523.323 261.216 523.441C264.61 523.614 270.933 525.966 280.078 530.558C283.736 532.394 286.956 533.851 287.278 533.669C287.922 533.305 287.922 533.305 279.409 526.751C275.142 523.516 271.826 520.439 272.025 520.048C272.703 517.92 287.32 521.718 301.405 527.771ZM571.866 605.229C578.629 612.214 578.184 615.465 569.133 625.607L562.862 632.572L560.673 628.37L558.483 624.169L561.704 612.512L564.924 600.856L567.553 602.159C568.898 602.863 570.866 604.26 571.866 605.229ZM556.747 633.73C556.222 635.631 543.323 654.785 542.731 654.632C541.379 654.28 541.094 650.396 542.248 647.86C544.02 644.068 555.482 631.097 556.313 632.022C556.667 632.38 556.884 633.234 556.747 633.73ZM208.337 582.091C211.766 591.311 219.805 605.805 226.875 615.616C234.875 626.645 244.356 636.905 258.232 649.283C264.847 655.167 270.887 661.166 271.604 662.505C273.408 665.809 273.159 670.972 270.964 674.654C269.427 677.268 268.591 677.671 263.097 678.547C259.774 679.101 254.825 680.296 252.218 681.213C248.39 682.611 246.732 682.712 243.291 681.729C239.658 680.785 237.566 679.178 228.997 671.192C223.45 666.029 218.589 661.665 218.167 661.555C215.378 660.83 224.893 672.606 233.463 680.593C236.486 683.416 238.964 685.921 238.918 686.086C238.872 686.251 231.046 688.028 221.478 689.883C209.692 692.225 203.2 693.108 201.172 692.581C198.131 691.791 185.168 682.663 179.729 677.439C170.789 668.825 164.608 658.093 160.901 644.636C159.748 640.615 158.666 637.321 158.451 637.443C157.7 637.868 158.715 645.663 160.382 652.742C163.954 667.67 169.473 677.521 179.235 686.437C184.073 690.885 184.181 690.824 176.257 690.005C172.019 689.613 164.38 686.122 160.412 682.787C150.49 674.449 142.273 656.01 141.246 640.06C140.45 627.537 145.916 607.427 151.836 601.079C154.654 598.09 154.553 597.798 154.194 608.603C153.904 615.882 154.52 623.485 155.294 622.977C155.508 622.856 156.077 619.814 156.591 616.314C158.049 605.795 161.831 598.005 166.394 595.913C167.636 595.349 167.969 596.765 168.466 606.109C168.818 612.049 169.206 617.2 169.452 617.618C169.637 617.932 171.604 611.798 173.796 603.862C175.989 595.925 178.223 589.151 178.698 588.743C180.039 587.497 183.24 587.708 185.293 589.128C186.362 589.849 191.296 599.194 196.287 609.972C201.385 620.689 206.552 631.158 207.808 633.168L210.135 636.873L208.016 630.12C206.795 626.347 203.185 615.486 199.954 605.874C193.957 587.924 193.281 584.47 195.179 581.862C196.181 580.527 196.558 580.802 200.086 586.061C202.127 589.161 206.657 596.363 210.155 602.057C213.653 607.75 216.873 612.486 217.464 612.639C217.971 612.771 215.941 607.991 212.834 601.867C206.002 588.573 203.477 581.98 203.667 577.688C203.932 572.795 205.348 574.226 208.337 582.091ZM432.475 644.322C432.292 644.983 417.412 647.053 416.252 646.663C414.101 645.927 416.771 645.115 423.601 644.32C431.92 643.38 432.726 643.413 432.475 644.322ZM456.507 673.693C457.738 674.81 456.932 674.778 452.009 673.587C439.589 670.36 411.778 667.12 403.527 667.812C402.23 667.918 402.276 667.752 404.039 666.615C406.599 664.888 414.619 664.048 422.803 664.58C430.434 665.146 454.384 671.546 456.507 673.693ZM245.101 623.72C259.711 637.706 271.084 646.686 281.691 652.544C285.557 654.612 288.701 656.669 288.633 656.917C288.336 657.992 281.912 658.626 279.04 657.88C272.365 656.145 260.598 646.62 249.631 634.2C244.336 628.128 237.404 617.821 238.925 618.216C239.263 618.304 242.017 620.792 245.101 623.72ZM473.325 689.848C481.71 694.242 489.062 700.405 494.883 707.854C501.45 716.206 501.497 717.016 496.103 724.741C492.698 729.527 490.949 733.237 488.409 740.462C482.605 757.207 479.561 758.72 454.677 756.684C448.381 756.2 443.269 756.023 443.177 756.354C443.086 756.684 447.765 758.432 453.588 760.299C459.433 762.084 464.574 764.129 465.028 764.779C466.453 766.832 464.621 771.495 461.746 773.052C457.859 775.32 450.442 774.634 435.172 770.577C424.212 767.64 420.585 766.343 415.651 763.555C407.211 758.704 399.007 752.673 390.752 744.857C380.682 735.418 379.956 736.735 388.948 748.11C400.534 762.551 412.535 770.897 431.304 777.369L442.774 781.413L441.353 784.588C439.336 788.937 437.32 790.008 430.266 790.302C422.299 790.624 412.4 788.76 404.716 785.434C401.411 783.955 398.377 782.812 398.139 783.016C397.089 783.541 408.727 790.907 413.406 792.655C416.041 793.605 418.332 794.82 418.494 795.217C418.571 795.592 416.546 796.04 413.89 796.147C407.964 796.291 396.22 793.239 389.979 789.934C383.654 786.607 383.485 786.563 385.104 789.553C387.44 793.881 392.521 796.797 401.73 799.19C406.208 800.353 409.857 801.567 409.789 801.815C409.697 802.146 407.957 803.2 405.963 804.188C398.249 807.855 387.391 806.185 374.725 799.261C355.525 788.778 340.69 770.037 339.835 755.107C339.342 747.713 342.35 740.431 349.4 731.631C355.233 724.286 365.58 714.038 366.932 714.39C367.27 714.477 367.428 716.202 367.24 718.191C366.114 729.151 368.421 744.725 372.239 752.54C374.791 757.722 375.333 756.091 374.221 746.675C373.149 737.447 373.394 717.221 374.699 710.205C375.836 704.121 381.003 693.945 386.246 687.422C394.077 677.761 407.262 676.58 433.431 683.468C453.179 688.689 468.257 696.062 486.589 709.686C492.071 713.769 496.846 717.137 497.184 717.224C497.522 717.312 496.789 715.704 495.64 713.633C490.985 705.247 481.271 697.14 464.554 687.834L454.178 682.125L460.4 684.185C463.88 685.356 469.689 687.928 473.325 689.848ZM135.723 658.739C139.116 668.747 144.562 676.896 152.6 683.858C156.253 687.022 160.459 690.153 161.973 690.901C166.307 692.913 165.818 694.027 161.171 692.819C149.681 689.833 137.28 678.016 130.53 663.769C124.66 651.256 122.583 632.553 126.407 625.926C127.462 624.074 127.841 625.324 130.425 637.603C132.016 645.282 134.379 654.756 135.723 658.739ZM119.041 641.113C121.177 658.946 125.091 668.38 134.756 678.955C141.074 685.913 149.701 692.054 158.707 696.166C162.58 697.881 166.138 699.426 166.476 699.514C168.25 699.975 166.359 702.23 164.018 702.508C160.381 702.892 140.101 696.647 134.136 693.325C117.357 683.915 107.592 659.935 112.846 640.921C114.33 635.547 117.158 629.902 117.729 631.114C117.852 631.323 118.423 635.813 119.041 641.113ZM107.113 651.836C109.065 669.355 115.49 682.809 126.395 691.845C132.579 696.997 141.802 701.963 148.645 703.741C152.34 704.79 152.486 704.916 150.753 705.618C147.286 707.021 143.462 706.116 136.168 702.36C127.491 697.712 118.316 690.278 113.603 683.737C108.868 677.278 105.368 667.331 104.548 658.169C103.303 643.668 105.6 637.975 107.113 651.836ZM99.5819 654.841C101.72 676.927 107.839 687.555 126.895 702.165C130.263 704.724 133.147 707.068 133.354 707.299C133.455 707.591 130.831 708.238 127.486 708.875C116.728 710.776 108.767 707.467 100.661 697.475C92.2015 687.124 89.0807 675.149 91.5706 662.86C92.9298 656.302 96.7485 647.725 98.1848 648.098C98.5228 648.186 99.2054 651.287 99.5819 654.841ZM333.593 771.471C339.895 781.438 349.172 790.14 361.195 797.428C371.918 803.848 377.796 806.172 391.136 809.019C404.561 811.887 404.876 812.058 404.243 817.298C403.715 821.503 399.961 824.603 395.784 824.315C391.247 824.022 378.256 819.583 372.922 816.602C365.405 812.345 357.015 806 350.599 799.725C347.222 796.544 344.322 793.93 344.107 794.051C343.57 794.355 346.381 798.275 348.674 800.466C350.905 802.552 375.426 820.974 381.523 825.128C385.398 827.819 385.522 828.028 383.581 828.498C375.156 830.473 357.171 827.395 348.371 822.538C335.727 815.531 321.299 799.909 317.936 789.466C316.057 783.484 317.132 780.573 322.954 774.909C325.657 772.333 328.261 769.466 328.896 768.479C329.423 767.553 330.159 766.858 330.328 766.902C330.581 766.967 332.006 769.021 333.593 771.471ZM317.028 805.533C322.241 812.558 334.01 823.06 340.858 826.788C347.413 830.264 356.027 833.831 361.857 835.346L366.757 836.62L363.877 839.504C358.983 844.435 352.888 847.813 346.75 849.053C337.435 850.974 334.615 849.71 319.871 837.195C308.427 827.487 305.383 819.165 308.672 807.26C310.088 802.135 311.44 799.208 312.285 799.427C312.454 799.471 314.587 802.241 317.028 805.533ZM305.039 880.391C312.211 891.469 312.297 892.466 306.129 890.864C302.496 889.92 298.128 886.392 296.224 882.796C294.482 879.597 293.507 872.964 294.003 868.219L294.439 864.345L296.296 867.132C297.328 868.64 301.203 874.609 305.039 880.391Z" fill="#7A7A7A"/>
<path d="M729.14 445.451C718.131 444.983 706.82 446.917 708.053 449.009C708.322 449.345 714.234 449.907 721.297 450.236C737.397 450.964 748.915 452.539 758.033 455.263C766.283 457.85 766.511 457.023 758.627 453.113C751.856 449.759 736.394 445.741 729.14 445.451Z" fill="#7A7A7A"/>
<path d="M578.114 384.409C573.19 389.775 568.794 397.493 569.122 400.236C569.163 401.399 570.257 403.012 571.472 403.86C573.417 405.34 590.925 414.408 597.933 417.558C603.719 420.214 605.512 418.642 611.377 405.28C613.935 399.299 614.255 398.142 613.538 396.804C612.713 395.526 588.02 382.641 584.725 381.785C583.626 381.5 577.275 393.672 575.882 398.715C575.082 401.608 573.929 400.865 592.188 409.509C597.298 411.988 601.456 414.309 601.365 414.64C601.274 414.971 600.675 415.17 599.999 414.994C598.225 414.533 579.405 405.301 576.553 403.496C572.463 400.927 572.621 399.373 577.926 389.676C580.525 384.858 582.473 380.757 582.373 380.465C582.165 380.234 580.242 381.949 578.114 384.409Z" fill="#7A7A7A"/>
<path d="M496.557 477.694C506.163 485.861 518.889 491.914 544.056 500.138L552.683 503L552.87 501.01C553.142 499.043 552.827 498.873 541.61 494.895C513.377 484.988 504.679 481.399 498.098 477.031C494.577 474.698 491.41 472.723 491.134 472.74C490.88 472.674 493.342 474.909 496.557 477.694Z" fill="#7A7A7A"/>
<path d="M491.921 487.919C498.52 493.532 507.642 498.207 518.066 501.447L527.269 504.193L509.401 495.119C499.541 490.165 490.649 485.639 489.512 485.166C488.397 484.611 489.498 485.872 491.921 487.919Z" fill="#7A7A7A"/>
<path d="M377.851 471.745C382.091 479.669 395.195 496.808 396.96 496.647C398.895 496.529 386.683 477.141 381.907 472.799C376.314 467.801 375.639 467.626 377.851 471.745Z" fill="#7A7A7A"/>
<path d="M268.673 560.778C264.135 560.485 267.312 563.082 280.14 570.403C287.488 574.616 295.56 579.815 298.045 581.967C300.445 584.097 302.705 585.747 302.92 585.626C303.756 585.223 295.214 575.826 290.469 572.024C282.901 565.981 273.633 561.181 268.673 560.778Z" fill="#7A7A7A"/>
<path d="M213.646 617.362C212.68 617.909 213.785 621.12 218.576 631.314C226.544 648.359 232.111 655.742 240.057 659.756C245.353 662.55 244.832 659.845 239.126 655.261C232.751 650.149 229.794 646.102 225.558 636.85C222.001 628.748 215.75 617.289 214.82 617.047C214.567 616.981 213.991 617.098 213.646 617.362Z" fill="#7A7A7A"/>
<path d="M189.532 629.26C189.638 635.756 191.444 643.314 194.33 649.912C196.73 655.32 205.178 667.351 209.571 671.771C213.634 675.75 213.12 672.693 208.645 665.948C203.754 658.74 198.97 648.194 194.025 633.972C192.295 629.092 190.55 624.917 190.128 624.808C189.705 624.698 189.411 626.748 189.532 629.26Z" fill="#7A7A7A"/>
<path d="M182.642 637.482C181.246 648.106 188.175 663.995 197.651 672.306C202.597 676.692 201.862 674.109 195.4 664.721C188.137 653.973 185.753 648.835 184.121 639.993C183.064 634.314 183.003 634.209 182.642 637.482Z" fill="#7A7A7A"/>
<path d="M440.535 700.776C437.811 701.131 437.811 701.131 439.067 703.141C439.914 704.336 444.487 707.12 451.68 710.584C467.788 718.491 474.339 723.294 480.899 731.999C485.388 738.039 484.567 734.458 479.473 725.691C474.21 716.881 467.647 710.48 458.908 705.728C453.321 702.681 444.218 700.227 440.535 700.776Z" fill="#7A7A7A"/>
<path d="M408.566 695.215C411.377 699.135 417.585 705.179 423.445 709.537C428.612 713.449 452.365 727.773 453.093 727.431C453.438 727.166 408.438 693.055 407.424 692.792C407.002 692.682 407.511 693.789 408.566 695.215Z" fill="#7A7A7A"/>
<path d="M390.094 697.503C388.678 702.629 395.722 718.104 403.348 726.554C407.773 731.514 416.466 739.71 416.626 739.131C416.695 738.883 414.331 735.965 411.445 732.646C404.527 724.911 399.565 716.976 395.058 706.413C390.45 695.558 390.574 695.767 390.094 697.503Z" fill="#7A7A7A"/>
<path d="M400.125 706.755C400.404 707.714 402.354 711.144 404.411 714.514C410.304 723.666 425.484 735.585 433.849 737.759C435.623 738.22 433.877 736.348 427.524 731.153C417.472 722.959 408.633 714.637 403.838 709.049C400.167 704.64 399.536 704.299 400.125 706.755Z" fill="#7A7A7A"/>
<path d="M382.677 703.374C382.98 711.781 388.117 722.686 394.91 729.236C400.826 735.026 402.699 734.804 397.972 728.968C393.269 723.05 386.617 711.398 384.67 705.664C383.124 701.098 382.501 700.404 382.677 703.374Z" fill="#7A7A7A"/>
<path d="M350.761 741.864C349.537 743.672 349.279 744.934 349.53 747.303C349.905 749.882 351.738 752.75 353.343 753.168C353.766 753.277 353.161 740.716 352.645 739.961C352.522 739.752 351.657 740.59 350.761 741.864Z" fill="#7A7A7A"/>
<path d="M351.178 762.972C351.063 763.385 351.413 765.071 351.931 766.8C352.929 770.072 355.744 772.664 358.731 772.997C360.213 773.205 359.765 772.203 356.432 767.881C352.267 762.634 351.475 761.897 351.178 762.972Z" fill="#7A7A7A"/>
<path d="M628 686L610.485 686C619.665 770.208 655.366 851.097 702.72 857.58C753.67 858.726 798.481 736.802 862.436 726.335C897.349 720.621 934.286 805.999 948.39 849.402L958.594 843.629C941.277 786.628 908.494 726.698 863.111 714.524C827.452 704.959 753.378 835.017 703.439 844.982C663.488 852.953 637.69 742.067 628 686Z" fill="#7A7A7A"/>
</g>
<defs>
<clipPath id="clip0_130_907">
<rect width="1000" height="1000" fill="white"/>
</clipPath>
</defs>
</svg>
