<svg width="12" height="12" viewBox="0 0 12 12" fill="none" xmlns="http://www.w3.org/2000/svg">
<path d="M3.08481 0.603902C3.58433 0.214907 4.23755 0 4.88658 0C5.27503 0 5.58903 0.133267 5.82739 0.345173C5.89163 0.402201 5.94867 0.464032 5.9997 0.527664C6.05073 0.464032 6.10777 0.402201 6.17201 0.345173C6.41037 0.133267 6.72437 0 7.11282 0C7.76185 0 8.41567 0.214907 8.91399 0.603902C9.30305 0.905853 9.60744 1.32306 9.72692 1.82671C9.97909 1.86873 10.203 1.9972 10.3843 2.16708C10.6725 2.43782 10.8785 2.82921 11.0076 3.23202C11.139 3.64082 11.2045 4.10005 11.1847 4.54127C11.1745 4.76698 11.1414 4.9975 11.0784 5.21781L11.1174 5.23582C11.3396 5.34027 11.5197 5.50415 11.6548 5.72206C11.9099 6.13327 12 6.72516 12 7.47974C12 8.34717 11.668 8.93607 11.2417 9.30165C11.0197 9.49204 10.7598 9.63322 10.4792 9.71586C10.3774 10.185 10.1682 10.6241 9.86801 10.9987C9.43393 11.5414 8.75909 12 7.8525 12C7.12603 12 6.55386 11.5978 6.18642 11.2136C6.12126 11.1449 6.05916 11.0734 6.0003 10.9993C5.94123 11.0732 5.87893 11.1446 5.81358 11.213C5.44614 11.5984 4.87397 12 4.1475 12C3.24031 12 2.56547 11.5414 2.13199 10.9987C1.83136 10.6242 1.62173 10.1851 1.51959 9.71586C1.23921 9.63316 0.979539 9.49199 0.757693 9.30165C0.331415 8.93547 0 8.34717 0 7.47974C0 6.72516 0.0900586 6.13327 0.344624 5.72206C0.479685 5.49818 0.681142 5.32194 0.920999 5.21781C0.859314 4.99721 0.823648 4.77015 0.81473 4.54127C0.794917 4.10005 0.860359 3.64082 0.991845 3.23202C1.12093 2.82981 1.32626 2.43782 1.61505 2.16708C1.79566 1.99106 2.02447 1.8726 2.27248 1.82671C2.39256 1.32246 2.69635 0.905853 3.08481 0.603902ZM3.63837 1.31406C3.31055 1.56918 3.11843 1.90895 3.11843 2.30035C3.11837 2.37165 3.10138 2.44192 3.06885 2.50537C3.03633 2.56882 2.98919 2.62364 2.93133 2.66532C2.87347 2.70699 2.80653 2.73433 2.73604 2.74508C2.66554 2.75584 2.5935 2.74969 2.52584 2.72716C2.44359 2.69955 2.35653 2.70615 2.23165 2.82381C2.09236 2.95408 1.95127 3.18999 1.8492 3.50695C1.7471 3.82802 1.7016 4.1644 1.71471 4.50105C1.72972 4.83482 1.80898 5.11216 1.93386 5.29945C1.95452 5.33048 1.97126 5.36395 1.98369 5.3991H2.63331C3.06557 5.39901 3.48185 5.56249 3.79849 5.85671C4.11513 6.15092 4.30867 6.55405 4.34022 6.98509C4.59886 7.08828 4.81359 7.27813 4.94766 7.52217C5.08173 7.7662 5.1268 8.04923 5.07516 8.32283C5.02353 8.59643 4.87839 8.84357 4.66459 9.02197C4.4508 9.20037 4.18164 9.29893 3.90318 9.30077C3.62471 9.30262 3.35427 9.20764 3.13812 9.0321C2.92198 8.85655 2.77357 8.61135 2.71831 8.33847C2.66305 8.06558 2.70436 7.78197 2.83518 7.53618C2.966 7.29039 3.17819 7.0977 3.43543 6.9911C3.40692 6.7988 3.31022 6.62316 3.16297 6.49621C3.01572 6.36926 2.82774 6.29946 2.63331 6.29955H1.05729C0.967229 6.50845 0.900585 6.86923 0.900585 7.47974C0.900585 8.09265 1.12333 8.42881 1.34427 8.61851C1.58623 8.82561 1.8522 8.87964 1.92905 8.87964C2.04848 8.87964 2.16301 8.92707 2.24746 9.01151C2.33191 9.09594 2.37935 9.21046 2.37935 9.32986C2.37935 9.58199 2.51864 10.04 2.83564 10.4362C3.14064 10.8186 3.57532 11.0995 4.1475 11.0995C4.52994 11.0995 4.88177 10.8846 5.16216 10.5917C5.29784 10.4488 5.40351 10.3005 5.47316 10.1805C5.49951 10.1356 5.52259 10.0888 5.5422 10.0406L5.54581 10.0322V4.34857H5.00785C4.90336 4.60686 4.71226 4.82077 4.46733 4.95364C4.22239 5.08651 3.93886 5.13006 3.66533 5.07684C3.3918 5.02362 3.1453 4.87694 2.96807 4.66193C2.79084 4.44692 2.69392 4.17697 2.69392 3.89835C2.69392 3.61973 2.79084 3.34978 2.96807 3.13477C3.1453 2.91976 3.3918 2.77308 3.66533 2.71986C3.93886 2.66663 4.22239 2.71019 4.46733 2.84306C4.71226 2.97593 4.90336 3.18984 5.00785 3.44812H5.54581V1.92456L5.544 1.89035C5.53373 1.70546 5.49735 1.52296 5.43593 1.34827C5.3819 1.2042 5.31165 1.09195 5.2288 1.01811C5.15495 0.952076 5.05288 0.90045 4.88658 0.90045C4.42668 0.90045 3.97098 1.05533 3.63776 1.31466L3.63837 1.31406ZM6.4542 9.0009V10.0322L6.4572 10.0406C6.46921 10.0724 6.49202 10.1199 6.52684 10.1805C6.59589 10.3005 6.70156 10.4488 6.83784 10.5917C7.11763 10.8846 7.47006 11.0995 7.8525 11.0995C8.42408 11.0995 8.85876 10.8186 9.16436 10.4362C9.48076 10.04 9.62065 9.58139 9.62065 9.32986C9.62065 9.21046 9.66809 9.09594 9.75254 9.01151C9.83699 8.92707 9.95152 8.87964 10.0709 8.87964C10.1478 8.87964 10.4132 8.82561 10.6557 8.61851C10.8761 8.42881 11.0988 8.09265 11.0988 7.47974C11.0988 6.75458 11.004 6.38119 10.8893 6.1969C10.8534 6.13316 10.7989 6.08186 10.7332 6.04982C10.6725 6.02101 10.5813 5.9994 10.4402 5.9994C10.3587 5.99939 10.2787 5.97727 10.2088 5.9354C10.1389 5.89352 10.0817 5.83346 10.0432 5.76161C10.0047 5.68977 9.98652 5.60883 9.99045 5.52744C9.99439 5.44605 10.0203 5.36725 10.0655 5.29945C10.1904 5.11156 10.2697 4.83482 10.2853 4.50105C10.2982 4.16436 10.2525 3.82799 10.1502 3.50695C10.0481 3.18999 9.90704 2.95468 9.76835 2.82381C9.64287 2.70615 9.55581 2.69955 9.47416 2.72716C9.40647 2.74981 9.33436 2.75605 9.26378 2.74535C9.19321 2.73465 9.12618 2.70733 9.06825 2.66564C9.01031 2.62396 8.96311 2.56909 8.93055 2.50558C8.89799 2.44207 8.88099 2.37172 8.88097 2.30035C8.88097 1.90895 8.68885 1.56918 8.36103 1.31406C8.02902 1.05533 7.57272 0.89985 7.11222 0.89985C6.94652 0.89985 6.84505 0.952076 6.7706 1.01751C6.6766 1.10968 6.60582 1.22283 6.56407 1.34767C6.49674 1.53283 6.45964 1.72762 6.4542 1.92456V8.10045H6.83604C7.05101 8.10045 7.25717 8.01507 7.40917 7.86309C7.56118 7.71111 7.64657 7.50498 7.64657 7.29004V6.21251C7.38824 6.10802 7.1743 5.91696 7.04141 5.67206C6.90853 5.42716 6.86496 5.14367 6.91819 4.87018C6.97142 4.59669 7.11813 4.35023 7.33317 4.17303C7.54821 3.99582 7.8182 3.89892 8.09686 3.89892C8.37553 3.89892 8.64551 3.99582 8.86056 4.17303C9.0756 4.35023 9.2223 4.59669 9.27553 4.87018C9.32876 5.14367 9.2852 5.42716 9.15231 5.67206C9.01942 5.91696 8.80548 6.10802 8.54716 6.21251V7.29004C8.54716 7.74379 8.36688 8.17895 8.04598 8.4998C7.72509 8.82065 7.28986 9.0009 6.83604 9.0009H6.4542ZM3.89413 3.5982C3.81451 3.5982 3.73816 3.62982 3.68186 3.68611C3.62556 3.7424 3.59394 3.81874 3.59394 3.89835C3.59394 3.97795 3.62556 4.0543 3.68186 4.11059C3.73816 4.16688 3.81451 4.1985 3.89413 4.1985C3.97375 4.1985 4.0501 4.16688 4.1064 4.11059C4.1627 4.0543 4.19433 3.97795 4.19433 3.89835C4.19433 3.81874 4.1627 3.7424 4.1064 3.68611C4.0501 3.62982 3.97375 3.5982 3.89413 3.5982ZM3.59394 8.10045C3.59394 8.18005 3.62556 8.2564 3.68186 8.31269C3.73816 8.36898 3.81451 8.4006 3.89413 8.4006C3.97375 8.4006 4.0501 8.36898 4.1064 8.31269C4.1627 8.2564 4.19433 8.18005 4.19433 8.10045C4.19433 8.02084 4.1627 7.9445 4.1064 7.88821C4.0501 7.83192 3.97375 7.8003 3.89413 7.8003C3.81451 7.8003 3.73816 7.83192 3.68186 7.88821C3.62556 7.9445 3.59394 8.02084 3.59394 8.10045ZM7.79667 5.09895C7.79667 5.17855 7.8283 5.2549 7.88459 5.31119C7.94089 5.36748 8.01725 5.3991 8.09686 5.3991C8.17648 5.3991 8.25284 5.36748 8.30913 5.31119C8.36543 5.2549 8.39706 5.17855 8.39706 5.09895C8.39706 5.01934 8.36543 4.943 8.30913 4.88671C8.25284 4.83042 8.17648 4.7988 8.09686 4.7988C8.01725 4.7988 7.94089 4.83042 7.88459 4.88671C7.8283 4.943 7.79667 5.01934 7.79667 5.09895Z" fill="white"/>
</svg>
