<svg width="12" height="14" viewBox="0 0 12 14" fill="none" xmlns="http://www.w3.org/2000/svg">
<path d="M10.7136 11C10.5227 11.001 10.3345 11.0523 10.1629 11.15L8.3202 9H6.85672V10H7.96493L9.55698 11.8575C9.47317 12.0576 9.42908 12.2772 9.42798 12.5C9.42798 12.7967 9.50338 13.0867 9.64465 13.3334C9.78592 13.58 9.98671 13.7723 10.2216 13.8858C10.4565 13.9994 10.715 14.0291 10.9644 13.9712C11.2138 13.9133 11.4429 13.7704 11.6227 13.5607C11.8025 13.3509 11.9249 13.0836 11.9745 12.7926C12.0242 12.5017 11.9987 12.2001 11.9014 11.926C11.8041 11.6519 11.6393 11.4176 11.4279 11.2528C11.2165 11.088 10.9679 11 10.7136 11ZM10.7136 13C10.6289 13 10.546 12.9707 10.4755 12.9157C10.4051 12.8608 10.3501 12.7827 10.3177 12.6913C10.2853 12.6 10.2768 12.4994 10.2933 12.4025C10.3098 12.3055 10.3507 12.2164 10.4106 12.1464C10.4705 12.0765 10.5469 12.0289 10.63 12.0096C10.7131 11.9903 10.7993 12.0002 10.8776 12.0381C10.9559 12.0759 11.0229 12.14 11.0699 12.2222C11.117 12.3044 11.1422 12.4011 11.1422 12.5C11.1422 12.6326 11.097 12.7598 11.0166 12.8536C10.9363 12.9473 10.8273 13 10.7136 13ZM10.7136 5.5C10.4486 5.50092 10.1903 5.59754 9.97423 5.77659C9.75815 5.95564 9.59488 6.20834 9.50684 6.5H6.85672V7.5H9.50684C9.58578 7.75859 9.72413 7.98688 9.90676 8.15993C10.0894 8.33299 10.3093 8.44414 10.5424 8.48125C10.7755 8.51836 11.0129 8.48 11.2286 8.37035C11.4443 8.26071 11.63 8.084 11.7654 7.85954C11.9008 7.63508 11.9808 7.37151 11.9965 7.09762C12.0123 6.82373 11.9632 6.55007 11.8546 6.30653C11.746 6.063 11.5822 5.85896 11.381 5.71672C11.1798 5.57448 10.9489 5.49951 10.7136 5.5ZM10.7136 7.5C10.6289 7.5 10.546 7.47068 10.4755 7.41573C10.4051 7.36079 10.3501 7.2827 10.3177 7.19134C10.2853 7.09998 10.2768 6.99944 10.2933 6.90245C10.3098 6.80546 10.3507 6.71637 10.4106 6.64645C10.4705 6.57652 10.5469 6.5289 10.63 6.50961C10.7131 6.49031 10.7993 6.50022 10.8776 6.53806C10.9559 6.5759 11.0229 6.63999 11.0699 6.72221C11.117 6.80444 11.1422 6.90111 11.1422 7C11.1422 7.13261 11.097 7.25979 11.0166 7.35355C10.9363 7.44732 10.8273 7.5 10.7136 7.5ZM10.7136 6.28893e-07C10.3728 0.000397736 10.0459 0.158561 9.80491 0.439779C9.56388 0.720998 9.42832 1.1023 9.42798 1.5C9.42945 1.73953 9.48062 1.97508 9.57712 2.1865L7.96922 4H6.85672V5H8.31548L10.2011 2.874C10.3762 2.96312 10.5662 3.00554 10.7572 2.99818C10.9482 2.99083 11.1354 2.93387 11.3051 2.83147C11.4748 2.72906 11.6229 2.58379 11.7384 2.40621C11.854 2.22864 11.9341 2.02324 11.9731 1.80496C12.012 1.58669 12.0087 1.36103 11.9634 1.14442C11.9182 0.927811 11.8321 0.7257 11.7115 0.552801C11.5908 0.379903 11.4387 0.240567 11.266 0.144939C11.0934 0.0493107 10.9047 -0.000203548 10.7136 6.28893e-07ZM10.7136 2C10.6289 2 10.546 1.97068 10.4755 1.91574C10.4051 1.86079 10.3501 1.78271 10.3177 1.69134C10.2853 1.59998 10.2768 1.49945 10.2933 1.40246C10.3098 1.30546 10.3507 1.21637 10.4106 1.14645C10.4705 1.07652 10.5469 1.0289 10.63 1.00961C10.7131 0.990315 10.7993 1.00022 10.8776 1.03806C10.9559 1.0759 11.0229 1.13999 11.0699 1.22222C11.117 1.30444 11.1422 1.40111 11.1422 1.5C11.1422 1.63261 11.097 1.75979 11.0166 1.85355C10.9363 1.94732 10.8273 2 10.7136 2Z" fill="white"/>
<path d="M6.85672 2H7.7138V1H6.85672C6.6125 1.00095 6.3713 1.06315 6.14949 1.18237C5.92767 1.30159 5.73041 1.47505 5.57108 1.691C5.41175 1.47505 5.21449 1.30159 4.99267 1.18237C4.77086 1.06315 4.52967 1.00095 4.28545 1H3.8569C2.83434 1.00132 1.85398 1.47585 1.13091 2.31948C0.40785 3.16311 0.00113429 4.30693 0 5.5V8.5C0.00113429 9.69307 0.40785 10.8369 1.13091 11.6805C1.85398 12.5241 2.83434 12.9987 3.8569 13H4.28545C4.52967 12.999 4.77086 12.9369 4.99267 12.8176C5.21449 12.6984 5.41175 12.5249 5.57108 12.309C5.73041 12.5249 5.92767 12.6984 6.14949 12.8176C6.3713 12.9369 6.6125 12.999 6.85672 13H7.7138V12H6.85672C6.62947 11.9997 6.4116 11.8943 6.25091 11.7068C6.09023 11.5193 5.99985 11.2651 5.99963 11V3C5.99985 2.73487 6.09023 2.48067 6.25091 2.29319C6.4116 2.10571 6.62947 2.00027 6.85672 2ZM4.28545 12H3.8569C3.13628 11.9985 2.44017 11.6946 1.8957 11.1438C1.35124 10.593 0.994759 9.83208 0.891373 9H1.71418V8H0.857089V6H2.14272C2.48359 5.9996 2.8104 5.84144 3.05143 5.56022C3.29246 5.279 3.42802 4.8977 3.42836 4.5V3.5H2.57127V4.5C2.57127 4.63261 2.52612 4.75979 2.44575 4.85355C2.36538 4.94732 2.25638 5 2.14272 5H0.891373C0.994759 4.16792 1.35124 3.40699 1.8957 2.8562C2.44017 2.30541 3.13628 2.0015 3.8569 2H4.28545C4.51269 2.00027 4.73056 2.10571 4.89125 2.29319C5.05194 2.48067 5.14231 2.73487 5.14254 3V5H4.28545V6H5.14254V8H4.28545C3.94458 8.0004 3.61777 8.15856 3.37674 8.43978C3.13571 8.721 3.00015 9.1023 2.99981 9.5V10.5H3.8569V9.5C3.8569 9.36739 3.90205 9.24021 3.98242 9.14645C4.06279 9.05268 4.17179 9 4.28545 9H5.14254V11C5.14231 11.2651 5.05194 11.5193 4.89125 11.7068C4.73056 11.8943 4.51269 11.9997 4.28545 12Z" fill="white"/>
</svg>
