<svg width="1200" height="1200" viewBox="0 0 1200 1200" fill="none" xmlns="http://www.w3.org/2000/svg">
<circle cx="600" cy="600" r="600" fill="#009978"/>
<path d="M430.389 418H490.5V527.5H361.952L396.627 440.927C402.102 427.125 415.447 418 430.389 418ZM545.25 527.5V418H637.869C648.933 418 659.427 423.019 666.384 431.688L743.034 527.5H545.25ZM837.478 528.641L723.416 386.062C702.656 360.056 671.175 345 637.869 345H430.389C385.563 345 345.298 372.261 328.759 413.78L281.309 532.519C254.162 543.241 235 569.589 235 600.5V728.25C235 748.439 251.311 764.75 271.5 764.75H309.483C318.152 816.534 363.206 856 417.5 856C471.794 856 516.848 816.534 525.517 764.75H674.483C683.152 816.534 728.206 856 782.5 856C836.794 856 881.848 816.534 890.517 764.75H928.5C948.689 764.75 965 748.439 965 728.25V673.5C965 599.131 909.338 537.766 837.478 528.641ZM730.83 728.25C733.153 721.379 736.819 715.038 741.614 709.596C746.409 704.153 752.237 699.718 758.761 696.547C765.285 693.376 772.373 691.533 779.615 691.125C786.857 690.717 794.108 691.753 800.946 694.171C807.785 696.589 814.074 700.341 819.45 705.211C824.826 710.08 829.181 715.969 832.261 722.536C835.342 729.103 837.087 736.216 837.395 743.463C837.703 750.71 836.568 757.946 834.056 764.75C831.733 771.621 828.067 777.962 823.272 783.404C818.477 788.847 812.649 793.282 806.125 796.453C799.601 799.624 792.513 801.467 785.271 801.875C778.029 802.283 770.778 801.247 763.94 798.829C757.101 796.411 750.811 792.659 745.436 787.789C740.06 782.92 735.705 777.031 732.625 770.464C729.544 763.897 727.799 756.784 727.491 749.537C727.183 742.29 728.318 735.054 730.83 728.25ZM417.5 691.75C432.021 691.75 445.946 697.518 456.214 707.786C466.482 718.054 472.25 731.979 472.25 746.5C472.25 761.021 466.482 774.946 456.214 785.214C445.946 795.482 432.021 801.25 417.5 801.25C402.979 801.25 389.054 795.482 378.786 785.214C368.518 774.946 362.75 761.021 362.75 746.5C362.75 731.979 368.518 718.054 378.786 707.786C389.054 697.518 402.979 691.75 417.5 691.75Z" fill="white"/>
</svg>
