<svg width="24" height="24" viewBox="0 0 24 24" fill="none" xmlns="http://www.w3.org/2000/svg">
<path d="M3 12C3 13.1819 3.23279 14.3522 3.68508 15.4442C4.13738 16.5361 4.80031 17.5282 5.63604 18.364C6.47177 19.1997 7.46392 19.8626 8.55585 20.3149C9.64778 20.7672 10.8181 21 12 21C13.1819 21 14.3522 20.7672 15.4442 20.3149C16.5361 19.8626 17.5282 19.1997 18.364 18.364C19.1997 17.5282 19.8626 16.5361 20.3149 15.4442C20.7672 14.3522 21 13.1819 21 12C21 10.8181 20.7672 9.64778 20.3149 8.55585C19.8626 7.46392 19.1997 6.47177 18.364 5.63604C17.5282 4.80031 16.5361 4.13738 15.4442 3.68508C14.3522 3.23279 13.1819 3 12 3C10.8181 3 9.64778 3.23279 8.55585 3.68508C7.46392 4.13738 6.47177 4.80031 5.63604 5.63604C4.80031 6.47177 4.13738 7.46392 3.68508 8.55585C3.23279 9.64778 3 10.8181 3 12Z" stroke="white" stroke-width="2" stroke-linecap="round" stroke-linejoin="round"/>
<path d="M14.8 9.00016C14.6188 8.68592 14.3557 8.42686 14.0386 8.25071C13.7215 8.07456 13.3625 7.98795 13 8.00016H11C10.4696 8.00016 9.96086 8.21087 9.58579 8.58594C9.21071 8.96102 9 9.46972 9 10.0002C9 10.5306 9.21071 11.0393 9.58579 11.4144C9.96086 11.7894 10.4696 12.0002 11 12.0002H13C13.5304 12.0002 14.0391 12.2109 14.4142 12.5859C14.7893 12.961 15 13.4697 15 14.0002C15 14.5306 14.7893 15.0393 14.4142 15.4144C14.0391 15.7894 13.5304 16.0002 13 16.0002H11C10.6375 16.0124 10.2785 15.9258 9.96142 15.7496C9.64435 15.5735 9.38115 15.3144 9.2 15.0002" stroke="white" stroke-width="2" stroke-linecap="round" stroke-linejoin="round"/>
<path d="M12 7V17" stroke="white" stroke-width="2" stroke-linecap="round" stroke-linejoin="round"/>
</svg>
