<svg width="608" height="608" viewBox="0 0 608 608" fill="none" xmlns="http://www.w3.org/2000/svg">
<path d="M29.3333 2.93327C19.0667 6.93327 6.8 19.3333 2.93333 29.7333L0.975037 34.8961C0.330382 36.5956 0 38.3982 0 40.2159V261.333V482.451C0 484.268 0.330382 486.071 0.975037 487.771L2.93333 492.933C6.8 503.6 19.0667 515.867 29.7333 519.733C37.4667 522.667 37.6 522.667 163.467 522.667H283.387C287.365 522.667 291.18 521.086 293.993 518.273L294.133 518.133C298.133 514.133 298.667 512.8 298.667 506.8C298.667 501.2 298 499.333 294.8 495.733V495.733C292.341 492.935 288.802 491.322 285.076 491.302L167.733 490.667C52.9333 490 44.2667 489.867 40.9333 487.6C38.9333 486.4 36.2667 483.733 35.0667 481.733C32.8 478.267 32.6667 466.267 32.6667 261.333C32.6667 56.4 32.8 44.3999 35.0667 40.9333C36.2667 38.9333 38.9333 36.2666 40.9333 35.0666C44.4 32.7999 55.4667 32.6666 240 32.6666C424.533 32.6666 435.6 32.7999 439.067 35.0666C441.067 36.2666 443.733 38.9333 444.933 40.9333C447.2 44.2666 447.333 53.3333 447.733 182.267L447.99 314.869C447.996 317.748 445.909 320.206 443.067 320.667V320.667C423.867 324 405.333 330.4 391.2 338.933C354.267 360.933 329.867 395.6 321.867 437.067C319.733 448.533 319.333 477.333 321.333 488.8C331.867 549.067 379.733 596.4 440.4 606.8C455.467 609.333 487.467 607.6 502 603.6C527.067 596.533 548.533 583.867 566.667 565.467C588 543.867 601.333 518.267 606.533 488.8C608.4 478.533 608.4 449.467 606.533 439.2C596.667 383.2 554.533 337.6 500.533 324.133C494.667 322.667 487.733 321.2 485.067 320.667V320.667C482.149 320.206 480 317.691 480 314.737V178.667V40.2159C480 38.3982 479.67 36.5956 479.025 34.8961L477.067 29.7333C473.2 19.0666 460.933 6.79994 450.267 2.93327L445.109 0.976779C443.406 0.330949 441.6 0.000548972 439.779 0.00174543L239.6 0.133269H39.4329C37.6042 0.133269 35.7908 0.467677 34.0824 1.11999L29.3333 2.93327ZM490 356.133C522.533 364 550 386.667 564.667 417.467C578.4 446.533 578.4 481.467 564.667 510.533C545.733 550.4 507.6 574.8 464 574.8C420.4 574.8 382.267 550.4 363.333 510.267C349.6 481.467 349.733 446.4 363.333 417.467C386.267 369.067 438.8 343.6 490 356.133Z" fill="white"/>
<path d="M484.4 444.266L455.905 472.664C450.058 478.491 440.601 478.499 434.745 472.681L424.933 462.933L408.921 447.025C406.111 444.233 402.31 442.666 398.349 442.666H397.467C391.2 442.666 389.867 443.2 385.867 447.2C381.867 451.2 381.333 452.533 381.333 458.8V459.653C381.333 463.632 382.914 467.447 385.727 470.26L409.733 494.267L433.74 518.273C436.553 521.086 440.368 522.667 444.347 522.667H445.333H446.441C450.427 522.667 454.249 521.08 457.063 518.258L499.6 475.6L542.258 433.062C545.081 430.248 546.667 426.426 546.667 422.441V421.466C546.667 415.2 546.134 413.866 542.134 409.866C538.134 405.866 536.8 405.333 530.534 405.333H529.665C525.696 405.333 521.888 406.906 519.077 409.708L484.4 444.266Z" fill="white"/>
<path d="M68.5333 73.8667L68.3934 74.0066C65.5804 76.8196 64 80.635 64 84.6132V122.667V160.72C64 164.698 65.5804 168.514 68.3934 171.327L68.5333 171.467L68.6733 171.607C71.4863 174.42 75.3016 176 79.2799 176H117.333H155.387C159.365 176 163.18 174.42 165.993 171.607L166.133 171.467L166.273 171.327C169.086 168.514 170.667 164.698 170.667 160.72V122.667V84.6132C170.667 80.6349 169.086 76.8196 166.273 74.0066L166.133 73.8667L165.993 73.7267C163.18 70.9137 159.365 69.3333 155.387 69.3333H117.333H79.2799C75.3016 69.3333 71.4863 70.9137 68.6733 73.7267L68.5333 73.8667ZM138.667 122.667V129C138.667 137.284 131.951 144 123.667 144H117.333H111C102.716 144 96 137.284 96 129V122.667V116.333C96 108.049 102.716 101.333 111 101.333H117.333H123.667C131.951 101.333 138.667 108.049 138.667 116.333V122.667Z" fill="white"/>
<path d="M196.533 111.2C192.533 115.2 192 116.533 192 122.667C192 128.8 192.533 130.133 196.533 134.133L196.673 134.273C199.486 137.086 203.302 138.667 207.28 138.667H304H400.72C404.698 138.667 408.514 137.086 411.327 134.273L411.467 134.133C415.467 130.133 416 128.8 416 122.667C416 116.533 415.467 115.2 411.467 111.2L411.327 111.06C408.514 108.247 404.698 106.667 400.72 106.667H304H207.28C203.302 106.667 199.486 108.247 196.673 111.06L196.533 111.2Z" fill="white"/>
<path d="M68.5333 212.533L68.3934 212.673C65.5804 215.486 64 219.301 64 223.28V261.333V299.387C64 303.365 65.5804 307.18 68.3934 309.993L68.5333 310.133L68.6733 310.273C71.4863 313.086 75.3016 314.667 79.2799 314.667H117.333H155.387C159.365 314.667 163.18 313.086 165.993 310.273L166.133 310.133L166.273 309.993C169.086 307.18 170.667 303.365 170.667 299.387V261.333V223.28C170.667 219.301 169.086 215.486 166.273 212.673L166.133 212.533L165.993 212.393C163.18 209.58 159.365 208 155.387 208H117.333H79.2799C75.3016 208 71.4863 209.58 68.6733 212.393L68.5333 212.533ZM138.667 261.333V267.666C138.667 275.951 131.951 282.667 123.667 282.667H117.333H111C102.716 282.667 96 275.951 96 267.667V261.333V255C96 246.716 102.716 240 111 240H117.333H123.667C131.951 240 138.667 246.716 138.667 255V261.333Z" fill="white"/>
<path d="M196.533 249.867C192.533 253.867 192 255.2 192 261.333C192 267.467 192.533 268.8 196.533 272.8L196.673 272.94C199.486 275.753 203.302 277.333 207.28 277.333H304H400.72C404.698 277.333 408.514 275.753 411.327 272.94L411.467 272.8C415.467 268.8 416 267.467 416 261.333C416 255.2 415.467 253.867 411.467 249.867L411.327 249.727C408.514 246.914 404.698 245.333 400.72 245.333H304H207.28C203.302 245.333 199.486 246.914 196.673 249.727L196.533 249.867Z" fill="white"/>
<path d="M68.5333 351.2L68.3934 351.34C65.5804 354.153 64 357.968 64 361.947V400V438.054C64 442.032 65.5804 445.847 68.3934 448.66L68.5333 448.8L68.6733 448.94C71.4863 451.753 75.3016 453.333 79.2799 453.333H117.333H155.387C159.365 453.333 163.18 451.753 165.993 448.94L166.133 448.8L166.273 448.66C169.086 445.847 170.667 442.032 170.667 438.054V400V361.947C170.667 357.968 169.086 354.153 166.273 351.34L166.133 351.2L165.993 351.06C163.18 348.247 159.365 346.667 155.387 346.667H117.333H79.2799C75.3016 346.667 71.4863 348.247 68.6733 351.06L68.5333 351.2ZM138.667 400V406.333C138.667 414.618 131.951 421.333 123.667 421.333H117.333H111C102.716 421.333 96 414.618 96 406.333V400V393.667C96 385.383 102.716 378.667 111 378.667H117.333H123.667C131.951 378.667 138.667 385.383 138.667 393.667V400Z" fill="white"/>
<path d="M196.533 388.533C192.533 392.533 192 393.867 192 400C192 406.133 192.533 407.467 196.533 411.467L196.673 411.607C199.486 414.42 203.302 416 207.28 416H250.667H294.053C298.032 416 301.847 414.42 304.66 411.607L304.8 411.467C308.8 407.467 309.333 406.133 309.333 400C309.333 393.867 308.8 392.533 304.8 388.533L304.66 388.393C301.847 385.58 298.032 384 294.053 384H250.667H207.28C203.302 384 199.486 385.58 196.673 388.393L196.533 388.533Z" fill="white"/>
</svg>
