<svg width="15" height="12" viewBox="0 0 15 12" fill="none" xmlns="http://www.w3.org/2000/svg">
<path d="M1.55249 4.61538L6.11548 9.41106L3.91821 4.61538H1.55249ZM7.49976 10.1827L10.0559 4.61538H4.9436L7.49976 10.1827ZM3.94019 3.69231L5.43433 0.923077H3.51538L1.40601 3.69231H3.94019ZM8.88403 9.41106L13.447 4.61538H11.0813L8.88403 9.41106ZM5.0022 3.69231H9.99731L8.50317 0.923077H6.49634L5.0022 3.69231ZM11.0593 3.69231H13.5935L11.4841 0.923077H9.56518L11.0593 3.69231ZM12.092 0.1875L14.9045 3.87981C14.9729 3.96635 15.0046 4.06611 14.9998 4.17909C14.9949 4.29207 14.9534 4.38942 14.8752 4.47115L7.84399 11.8558C7.7561 11.9519 7.64136 12 7.49976 12C7.35815 12 7.24341 11.9519 7.15552 11.8558L0.124268 4.47115C0.0461426 4.38942 0.00463867 4.29207 -0.000244141 4.17909C-0.00512695 4.06611 0.0266113 3.96635 0.0949707 3.87981L2.90747 0.1875C2.99536 0.0625 3.11987 0 3.28101 0H11.7185C11.8796 0 12.0041 0.0625 12.092 0.1875Z" fill="white"/>
</svg>
