<svg width="662" height="612" viewBox="0 0 662 612" fill="none" xmlns="http://www.w3.org/2000/svg">
<path d="M505.5 22L571.5 82.5L652 158L505.5 286.5L488.5 270V210.5L448 172.5L392.5 179L373.5 158L505.5 22Z" fill="#CFD4FF"/>
<path d="M20.3369 174.107L80.6852 107.968L156 27.2949L284.836 173.499L268.375 190.537L208.875 190.674L170.969 231.261L177.596 286.746L156.64 305.794L20.3369 174.107Z" fill="#CFD4FF"/>
<mask id="path-3-outside-1_168_1017" maskUnits="userSpaceOnUse" x="0" y="0" width="662" height="612" fill="black">
<rect fill="white" width="662" height="612"/>
<path d="M428.23 79.1839C367.141 140.126 355.004 152.906 355.004 156C355.004 158.825 357.836 162.592 368.22 172.951C375.502 180.35 382.515 186.538 383.593 186.942C384.672 187.211 396 185.865 408.542 183.713C421.218 181.561 431.602 179.946 431.737 180.081C431.871 180.215 407.732 204.565 378.199 234.027L324.257 287.839L277.732 241.426C252.245 216 231.477 195.013 231.612 194.744C231.882 194.61 240.782 195.955 251.571 197.704C280.834 202.682 278.272 203.354 293.78 187.749C304.029 177.39 307.131 173.623 307.131 170.798C307.131 167.704 294.724 154.789 233.77 93.9821C175.782 36.1345 159.734 20.7982 157.037 20.7982C154.34 20.7982 138.293 36.1345 79.7656 94.5202C32.2967 141.874 6 169.049 6 170.798C6 172.547 32.2967 199.722 79.9004 247.076C136 303.175 154.475 320.798 156.902 320.798C160.678 320.798 186.301 296.448 187.515 291.605C187.919 289.991 186.705 278.825 184.683 266.987C182.66 255.013 181.311 245.058 181.581 244.789C181.851 244.52 203.023 265.103 228.51 290.529L275.035 336.942L231.073 380.798L187.11 424.655L148.946 424.386L110.647 424.251L84.6203 450.215L58.5934 476.314V512.502V548.691L84.4855 574.655L110.378 600.619H147.598H184.683L210.035 575.327L235.388 550.036L235.253 511.83L235.118 473.623L279.351 429.498L323.583 385.372L369.973 431.65L416.228 477.794L416.498 516.404L416.633 554.879L442.39 580.439L468.012 606H504.963H541.913L567.94 580.036L593.967 554.072V517.883V481.695L568.075 455.731L542.183 429.767H504.288H466.529L419.6 382.951L372.805 336.269L426.747 282.457C456.415 252.861 480.689 229.587 480.689 230.664C480.689 231.74 479.205 241.426 477.317 252.188C475.429 262.951 473.946 273.175 473.946 275.058C473.946 279.901 500.108 306 504.963 306C507.66 306 524.112 290.26 582.234 232.278C629.703 184.924 656 157.749 656 156C656 154.251 629.703 127.076 582.1 79.722C524.382 22.1435 507.525 6.00002 504.963 6.00002C502.4 6.00002 485.544 22.009 428.23 79.1839ZM571.446 90.4843L637.12 156L625.658 167.435L614.195 178.87L548.116 112.951L482.037 47.0314L493.095 36C499.299 29.8117 504.558 24.8341 504.963 24.8341C505.367 24.8341 535.17 54.296 571.446 90.4843ZM168.5 50.3946L179.288 61.157L113.21 127.076L47.1307 192.996L36.0726 181.964L24.8797 170.798L90.5539 105.283C126.83 69.0942 156.633 39.6323 157.037 39.6323C157.442 39.6323 162.566 44.4754 168.5 50.3946ZM537.732 124.117L603.407 189.632L554.185 238.735L504.963 287.839L497.141 280.036L489.32 272.233L493.905 243.982L498.625 215.731L472.463 189.498C456.01 173.085 445.357 163.399 443.604 163.399C442.12 163.399 429.174 165.283 414.88 167.57L388.853 171.874L380.761 163.937L372.805 156L421.622 107.3C448.593 80.3946 470.844 58.4664 471.249 58.4664C471.654 58.4664 501.456 87.9283 537.732 124.117ZM281.373 178.466L273.687 186.269L245.637 181.561C226.488 178.332 216.913 177.256 215.295 178.063C210.17 180.888 163.78 228.915 163.78 231.471C163.78 232.816 165.803 246 168.23 260.529L172.815 287.031L164.859 294.834L157.037 302.637L107.411 253.13L57.9191 203.758L123.998 137.839L190.077 71.9193L239.568 121.291L289.195 170.798L281.373 178.466ZM348.936 338.556L223.116 464.072L209.631 450.619L196.145 437.166L321.83 311.785L447.649 186.269L461.135 199.722L474.62 213.175L348.936 338.556ZM264.382 250.036L313.199 298.87L299.444 312.592L285.824 326.179L236.197 276.673L186.705 227.3L199.786 214.117C207.068 206.987 213.542 201.067 214.216 201.067C214.89 201.067 237.411 223.13 264.382 250.036ZM442.255 455.327L428.77 468.78L381.571 421.695L334.371 374.61L347.857 361.157L361.342 347.704L408.542 394.789L455.741 441.874L442.255 455.327ZM198.438 460.978L220.419 482.906V513.175V543.444L199.247 564.565L177.94 585.821H147.598H117.255L95.4087 564.027L73.4274 542.099V512.502V482.906L95.2739 461.112L117.255 439.184H146.923H176.591L198.438 460.978ZM557.151 466.359L579.133 488.287V517.883V547.48L557.151 569.408L535.305 591.202H504.963H474.62L452.774 569.408L430.793 547.48V517.883V488.287L452.639 466.493L474.62 444.565H504.963H535.305L557.151 466.359Z"/>
</mask>
<path d="M428.23 79.1839C367.141 140.126 355.004 152.906 355.004 156C355.004 158.825 357.836 162.592 368.22 172.951C375.502 180.35 382.515 186.538 383.593 186.942C384.672 187.211 396 185.865 408.542 183.713C421.218 181.561 431.602 179.946 431.737 180.081C431.871 180.215 407.732 204.565 378.199 234.027L324.257 287.839L277.732 241.426C252.245 216 231.477 195.013 231.612 194.744C231.882 194.61 240.782 195.955 251.571 197.704C280.834 202.682 278.272 203.354 293.78 187.749C304.029 177.39 307.131 173.623 307.131 170.798C307.131 167.704 294.724 154.789 233.77 93.9821C175.782 36.1345 159.734 20.7982 157.037 20.7982C154.34 20.7982 138.293 36.1345 79.7656 94.5202C32.2967 141.874 6 169.049 6 170.798C6 172.547 32.2967 199.722 79.9004 247.076C136 303.175 154.475 320.798 156.902 320.798C160.678 320.798 186.301 296.448 187.515 291.605C187.919 289.991 186.705 278.825 184.683 266.987C182.66 255.013 181.311 245.058 181.581 244.789C181.851 244.52 203.023 265.103 228.51 290.529L275.035 336.942L231.073 380.798L187.11 424.655L148.946 424.386L110.647 424.251L84.6203 450.215L58.5934 476.314V512.502V548.691L84.4855 574.655L110.378 600.619H147.598H184.683L210.035 575.327L235.388 550.036L235.253 511.83L235.118 473.623L279.351 429.498L323.583 385.372L369.973 431.65L416.228 477.794L416.498 516.404L416.633 554.879L442.39 580.439L468.012 606H504.963H541.913L567.94 580.036L593.967 554.072V517.883V481.695L568.075 455.731L542.183 429.767H504.288H466.529L419.6 382.951L372.805 336.269L426.747 282.457C456.415 252.861 480.689 229.587 480.689 230.664C480.689 231.74 479.205 241.426 477.317 252.188C475.429 262.951 473.946 273.175 473.946 275.058C473.946 279.901 500.108 306 504.963 306C507.66 306 524.112 290.26 582.234 232.278C629.703 184.924 656 157.749 656 156C656 154.251 629.703 127.076 582.1 79.722C524.382 22.1435 507.525 6.00002 504.963 6.00002C502.4 6.00002 485.544 22.009 428.23 79.1839ZM571.446 90.4843L637.12 156L625.658 167.435L614.195 178.87L548.116 112.951L482.037 47.0314L493.095 36C499.299 29.8117 504.558 24.8341 504.963 24.8341C505.367 24.8341 535.17 54.296 571.446 90.4843ZM168.5 50.3946L179.288 61.157L113.21 127.076L47.1307 192.996L36.0726 181.964L24.8797 170.798L90.5539 105.283C126.83 69.0942 156.633 39.6323 157.037 39.6323C157.442 39.6323 162.566 44.4754 168.5 50.3946ZM537.732 124.117L603.407 189.632L554.185 238.735L504.963 287.839L497.141 280.036L489.32 272.233L493.905 243.982L498.625 215.731L472.463 189.498C456.01 173.085 445.357 163.399 443.604 163.399C442.12 163.399 429.174 165.283 414.88 167.57L388.853 171.874L380.761 163.937L372.805 156L421.622 107.3C448.593 80.3946 470.844 58.4664 471.249 58.4664C471.654 58.4664 501.456 87.9283 537.732 124.117ZM281.373 178.466L273.687 186.269L245.637 181.561C226.488 178.332 216.913 177.256 215.295 178.063C210.17 180.888 163.78 228.915 163.78 231.471C163.78 232.816 165.803 246 168.23 260.529L172.815 287.031L164.859 294.834L157.037 302.637L107.411 253.13L57.9191 203.758L123.998 137.839L190.077 71.9193L239.568 121.291L289.195 170.798L281.373 178.466ZM348.936 338.556L223.116 464.072L209.631 450.619L196.145 437.166L321.83 311.785L447.649 186.269L461.135 199.722L474.62 213.175L348.936 338.556ZM264.382 250.036L313.199 298.87L299.444 312.592L285.824 326.179L236.197 276.673L186.705 227.3L199.786 214.117C207.068 206.987 213.542 201.067 214.216 201.067C214.89 201.067 237.411 223.13 264.382 250.036ZM442.255 455.327L428.77 468.78L381.571 421.695L334.371 374.61L347.857 361.157L361.342 347.704L408.542 394.789L455.741 441.874L442.255 455.327ZM198.438 460.978L220.419 482.906V513.175V543.444L199.247 564.565L177.94 585.821H147.598H117.255L95.4087 564.027L73.4274 542.099V512.502V482.906L95.2739 461.112L117.255 439.184H146.923H176.591L198.438 460.978ZM557.151 466.359L579.133 488.287V517.883V547.48L557.151 569.408L535.305 591.202H504.963H474.62L452.774 569.408L430.793 547.48V517.883V488.287L452.639 466.493L474.62 444.565H504.963H535.305L557.151 466.359Z" fill="#3E409B"/>
<path d="M428.23 79.1839C367.141 140.126 355.004 152.906 355.004 156C355.004 158.825 357.836 162.592 368.22 172.951C375.502 180.35 382.515 186.538 383.593 186.942C384.672 187.211 396 185.865 408.542 183.713C421.218 181.561 431.602 179.946 431.737 180.081C431.871 180.215 407.732 204.565 378.199 234.027L324.257 287.839L277.732 241.426C252.245 216 231.477 195.013 231.612 194.744C231.882 194.61 240.782 195.955 251.571 197.704C280.834 202.682 278.272 203.354 293.78 187.749C304.029 177.39 307.131 173.623 307.131 170.798C307.131 167.704 294.724 154.789 233.77 93.9821C175.782 36.1345 159.734 20.7982 157.037 20.7982C154.34 20.7982 138.293 36.1345 79.7656 94.5202C32.2967 141.874 6 169.049 6 170.798C6 172.547 32.2967 199.722 79.9004 247.076C136 303.175 154.475 320.798 156.902 320.798C160.678 320.798 186.301 296.448 187.515 291.605C187.919 289.991 186.705 278.825 184.683 266.987C182.66 255.013 181.311 245.058 181.581 244.789C181.851 244.52 203.023 265.103 228.51 290.529L275.035 336.942L231.073 380.798L187.11 424.655L148.946 424.386L110.647 424.251L84.6203 450.215L58.5934 476.314V512.502V548.691L84.4855 574.655L110.378 600.619H147.598H184.683L210.035 575.327L235.388 550.036L235.253 511.83L235.118 473.623L279.351 429.498L323.583 385.372L369.973 431.65L416.228 477.794L416.498 516.404L416.633 554.879L442.39 580.439L468.012 606H504.963H541.913L567.94 580.036L593.967 554.072V517.883V481.695L568.075 455.731L542.183 429.767H504.288H466.529L419.6 382.951L372.805 336.269L426.747 282.457C456.415 252.861 480.689 229.587 480.689 230.664C480.689 231.74 479.205 241.426 477.317 252.188C475.429 262.951 473.946 273.175 473.946 275.058C473.946 279.901 500.108 306 504.963 306C507.66 306 524.112 290.26 582.234 232.278C629.703 184.924 656 157.749 656 156C656 154.251 629.703 127.076 582.1 79.722C524.382 22.1435 507.525 6.00002 504.963 6.00002C502.4 6.00002 485.544 22.009 428.23 79.1839ZM571.446 90.4843L637.12 156L625.658 167.435L614.195 178.87L548.116 112.951L482.037 47.0314L493.095 36C499.299 29.8117 504.558 24.8341 504.963 24.8341C505.367 24.8341 535.17 54.296 571.446 90.4843ZM168.5 50.3946L179.288 61.157L113.21 127.076L47.1307 192.996L36.0726 181.964L24.8797 170.798L90.5539 105.283C126.83 69.0942 156.633 39.6323 157.037 39.6323C157.442 39.6323 162.566 44.4754 168.5 50.3946ZM537.732 124.117L603.407 189.632L554.185 238.735L504.963 287.839L497.141 280.036L489.32 272.233L493.905 243.982L498.625 215.731L472.463 189.498C456.01 173.085 445.357 163.399 443.604 163.399C442.12 163.399 429.174 165.283 414.88 167.57L388.853 171.874L380.761 163.937L372.805 156L421.622 107.3C448.593 80.3946 470.844 58.4664 471.249 58.4664C471.654 58.4664 501.456 87.9283 537.732 124.117ZM281.373 178.466L273.687 186.269L245.637 181.561C226.488 178.332 216.913 177.256 215.295 178.063C210.17 180.888 163.78 228.915 163.78 231.471C163.78 232.816 165.803 246 168.23 260.529L172.815 287.031L164.859 294.834L157.037 302.637L107.411 253.13L57.9191 203.758L123.998 137.839L190.077 71.9193L239.568 121.291L289.195 170.798L281.373 178.466ZM348.936 338.556L223.116 464.072L209.631 450.619L196.145 437.166L321.83 311.785L447.649 186.269L461.135 199.722L474.62 213.175L348.936 338.556ZM264.382 250.036L313.199 298.87L299.444 312.592L285.824 326.179L236.197 276.673L186.705 227.3L199.786 214.117C207.068 206.987 213.542 201.067 214.216 201.067C214.89 201.067 237.411 223.13 264.382 250.036ZM442.255 455.327L428.77 468.78L381.571 421.695L334.371 374.61L347.857 361.157L361.342 347.704L408.542 394.789L455.741 441.874L442.255 455.327ZM198.438 460.978L220.419 482.906V513.175V543.444L199.247 564.565L177.94 585.821H147.598H117.255L95.4087 564.027L73.4274 542.099V512.502V482.906L95.2739 461.112L117.255 439.184H146.923H176.591L198.438 460.978ZM557.151 466.359L579.133 488.287V517.883V547.48L557.151 569.408L535.305 591.202H504.963H474.62L452.774 569.408L430.793 547.48V517.883V488.287L452.639 466.493L474.62 444.565H504.963H535.305L557.151 466.359Z" stroke="#3E409B" stroke-width="12" mask="url(#path-3-outside-1_168_1017)"/>
<path d="M135.989 470.334L136.002 470.33C143.371 468.272 151.86 468.633 159.624 470.782C167.381 472.93 174.721 476.948 179.65 482.535L179.691 482.582L179.73 482.63C182.16 485.625 185.802 491.212 187.804 495.491L187.815 495.513L187.825 495.536C189.27 498.761 190.216 501.215 190.666 504.202C191.105 507.113 191.049 510.385 190.78 515.221C190.433 521.778 189.557 526.893 187.514 531.55C185.466 536.217 182.349 540.189 177.901 544.626L177.892 544.635L177.883 544.643C168.976 553.384 158.407 556.97 144.745 556.26L144.734 556.26L144.723 556.259C132.633 555.546 122.347 550.814 115.082 543.056C107.819 535.299 103.736 524.688 103.736 512.502C103.736 492.298 116.252 475.939 135.989 470.334ZM152.876 490.643L152.867 490.641L152.859 490.638C149.486 489.696 147.84 489.389 146.34 489.451C144.826 489.514 143.236 489.96 139.966 491.116L139.961 491.117C134.819 492.924 130.318 497.019 127.444 502.037C124.564 507.064 123.508 512.671 124.738 517.376C128.03 529.395 137.841 536.425 149.374 535.476L149.377 535.476C161.097 534.522 169.116 526.437 169.957 514.445L169.958 514.438C170.796 502.848 164.333 493.771 152.876 490.643Z" fill="#3E409B" stroke="#3E409B" stroke-width="6"/>
<path d="M463.548 532.691L463.557 532.716C466.936 542.534 475.743 552.276 485.852 557.175L463.548 532.691ZM463.548 532.691L463.54 532.665M463.548 532.691L463.54 532.665M463.54 532.665C461.904 527.621 461.363 520.931 461.713 514.607C462.059 508.328 463.31 501.92 465.619 497.533M463.54 532.665L465.619 497.533M465.619 497.533C467.821 493.226 471.971 488.533 476.433 484.673C480.878 480.827 486.04 477.456 490.473 476.133C519.865 467.129 548.554 486.898 548.554 516.807C548.554 524.089 547.722 530.027 545.552 535.374C543.376 540.736 539.945 545.278 535.094 549.909C522.805 561.866 501.614 564.819 485.853 557.175L465.619 497.533ZM517.035 498.17L517.013 498.155L516.992 498.14C514.623 496.475 510.693 495.289 506.486 494.943C502.249 494.594 498.433 495.156 496.26 496.315L496.254 496.318C493.428 497.818 490.55 500.119 488.173 502.662C485.774 505.228 484.089 507.821 483.398 509.825C482.363 512.991 482.124 517.044 482.682 521.014C483.243 525.012 484.561 528.571 486.307 530.858C491.104 537.115 497.257 540.349 503.382 540.771C509.496 541.192 515.9 538.834 521.277 533.291C531.536 522.573 529.845 506.85 517.035 498.17Z" fill="#3E409B" stroke="#3E409B" stroke-width="6"/>
</svg>
