<svg width="683" height="683" viewBox="0 0 683 683" fill="none" xmlns="http://www.w3.org/2000/svg">
<path d="M299.6 16.6666C160.534 33.4666 44.5335 134.133 10.6669 267.333C2.80018 298.533 0.800183 314.8 0.800183 348.667C0.66685 365.867 1.46685 383.2 2.53352 390.667C16.9335 495.067 74.0002 581.467 164.134 636.133C191.6 652.667 228 668 240.134 668C246.134 668 247.467 667.467 251.467 663.467C254.4 660.533 256 657.6 256.134 655.067C256.4 649.733 255.734 595.333 255.6 595.2C255.467 595.067 250 595.867 243.334 596.933C228.934 599.2 206.934 598.533 195.334 595.333C180 591.333 168.4 584.8 158.134 574.267C149.6 565.867 147.334 562.267 138.934 545.333C127.867 522.8 120.534 512.8 108.267 504.267C89.3335 490.933 86.2669 485.067 96.6669 481.467C100.8 480.133 103.867 480 110.4 481.067C128.534 484 144.934 495.6 157.734 514.533C173.734 538.267 186.934 547.467 209.6 550.667C220 552.133 234.267 550.533 247.6 546.533C257.067 543.6 257.067 543.6 260.667 529.067C263.067 519.733 269.6 507.333 275.467 501.2L278.8 497.733L270.4 496.8C256.667 495.2 231.334 489.467 218.934 485.067C196.534 477.2 182.134 468.667 166.267 453.467C136.667 425.2 122.8 384.133 124.4 329.333C124.934 310.533 125.6 305.6 128.534 295.333C133.334 279.2 140.267 265.6 150.4 252.267C156.8 243.733 158.4 240.8 157.467 238.933C154.667 233.6 152 216.533 152 204.133C152 189.867 154.4 174.933 158.667 161.867C162 152.133 163.734 151.467 178 153.467C196.134 156 222 166.667 245.467 181.333C254.934 187.333 256.134 187.733 260.267 186.533C271.467 183.333 301.467 178.667 320.267 177.333C350.667 175.067 392 178.667 418.534 185.867L425.734 187.867L437.867 180.4C461.2 166 485.6 156 503.867 153.333C518.267 151.333 519.467 152 523.2 163.867C524.934 169.467 527.067 178.667 528 184.4C530.267 198.133 529.067 223.467 525.734 234L523.2 242L529.334 249.467C549.334 274.4 557.6 299.6 557.467 335.467C557.334 424.933 516.934 476 433.467 492.667C424.934 494.267 414.534 496.133 410.267 496.667L402.534 497.6L407.2 502.667C412.934 509.067 418.934 520.667 422.134 531.467C424.134 538.267 424.534 547.733 425.2 598.667C425.867 643.2 426.4 658.8 427.734 660.933C430 665.067 436.134 668 442.134 668C454.534 668 502.534 646.267 530 628.4C552 613.867 569.867 599.2 588 580.533C639.334 527.867 670 464.667 680.134 390.667C682.8 371.467 682.4 323.067 679.467 303.333C656.534 151.333 535.334 34.6666 381.6 16.6666C361.067 14.2666 319.734 14.2666 299.6 16.6666Z" fill="white"/>
</svg>
