<svg width="100" height="100" viewBox="0 0 100 100" fill="none" xmlns="http://www.w3.org/2000/svg">
<path d="M90.8563 41.8396H87.5V41.6666H50V58.3333H73.548C70.1125 68.0354 60.8813 75 50 75C36.1938 75 25 63.8062 25 50C25 36.1937 36.1938 25 50 25C56.373 25 62.1709 27.4041 66.5855 31.3312L78.3709 19.5458C70.9292 12.6104 60.975 8.33331 50 8.33331C26.9896 8.33331 8.33337 26.9896 8.33337 50C8.33337 73.0104 26.9896 91.6667 50 91.6667C73.0105 91.6667 91.6667 73.0104 91.6667 50C91.6667 47.2062 91.3792 44.4791 90.8563 41.8396Z" fill="#FFC107"/>
<path d="M13.1375 30.6062L26.827 40.6458C30.5312 31.475 39.502 25 50 25C56.3729 25 62.1708 27.4041 66.5854 31.3312L78.3708 19.5458C70.9291 12.6104 60.975 8.33331 50 8.33331C33.9958 8.33331 20.1166 17.3687 13.1375 30.6062Z" fill="#FF3D00"/>
<path d="M50 91.6681C60.7625 91.6681 70.5417 87.5493 77.9354 80.8514L65.0396 69.9389C60.7157 73.2272 55.4322 75.0057 50 75.0014C39.1625 75.0014 29.9604 68.091 26.4937 58.4473L12.9062 68.916C19.8021 82.4098 33.8062 91.6681 50 91.6681Z" fill="#4CAF50"/>
<path d="M90.8563 41.8396H87.5V41.6667H50V58.3334H73.5479C71.9046 62.9509 68.9445 66.9858 65.0333 69.9396L65.0396 69.9354L77.9354 80.8479C77.0229 81.6771 91.6667 70.8334 91.6667 50C91.6667 47.2063 91.3792 44.4792 90.8563 41.8396Z" fill="#1976D2"/>
</svg>
