<svg width="285" height="304" viewBox="0 0 285 304" fill="none" xmlns="http://www.w3.org/2000/svg">
<path d="M137.223 0.38855C113.889 2.52188 85.3559 15.1886 68.0226 31.1886C55.4893 42.7886 44.4226 61.5886 39.8893 79.1886C38.5559 84.1219 37.0893 88.2552 36.6893 88.2552C34.4226 88.2552 27.0893 95.7219 24.5559 100.655C18.2893 113.189 20.2893 128.255 30.1559 141.322C34.2893 146.789 35.8893 150.522 37.6226 158.655C38.8226 164.255 40.0226 169.322 40.4226 169.989C40.6893 170.522 39.2226 173.055 36.9559 175.589C32.8226 180.389 28.6893 191.455 28.9559 197.455C28.9559 200.255 29.3559 199.855 30.6893 195.589C33.0893 188.122 36.0226 182.789 39.7559 179.189L43.0893 176.255L45.6226 181.855C51.3559 194.789 66.9559 215.989 74.6893 221.722C78.2893 224.389 78.0226 223.989 73.0893 218.255C66.9559 211.322 56.2893 193.455 50.8226 180.922C47.3559 173.189 47.4893 172.122 52.0226 170.522C52.6893 170.255 52.4226 164.789 51.3559 158.255C48.8226 140.789 49.0893 109.055 52.0226 93.0553C55.3559 74.6553 55.3559 74.5219 59.2226 77.5886C62.2893 80.1219 62.2893 80.2552 60.5559 91.8552C59.6226 98.2552 58.9559 114.922 58.8226 128.922C58.8226 158.922 60.0226 164.122 70.2893 179.589C74.0226 185.189 77.3559 189.455 77.7559 189.055C78.5559 188.389 74.5559 180.655 71.2226 176.389C67.7559 171.855 69.2226 171.455 74.5559 175.455C81.3559 180.655 98.1559 187.989 109.756 190.789C123.223 194.122 115.889 194.389 101.089 191.055L89.8893 188.655L93.0893 191.722C95.3559 194.122 99.7559 195.589 110.823 197.722C151.356 205.589 198.556 192.255 212.156 168.922C217.623 159.589 219.889 143.722 219.223 117.322L218.823 95.1886L222.823 94.5219C224.956 94.2552 227.756 93.7219 228.823 93.4552C230.556 93.0552 230.823 96.2552 230.823 117.589C230.823 131.189 230.556 147.989 230.156 154.922L229.489 167.589L236.689 168.922C242.556 169.989 244.689 171.189 248.956 175.989C251.756 179.189 255.223 184.255 256.823 187.455C259.223 192.655 259.356 193.589 257.623 198.522C250.823 217.989 232.156 245.189 218.023 256.389C213.089 260.255 212.956 260.255 211.489 257.722C210.289 255.322 211.489 253.589 221.223 243.989C234.689 230.655 241.756 221.322 248.023 208.922C254.823 195.189 254.956 194.255 249.889 184.255C245.223 175.055 242.689 173.189 233.223 171.589L227.756 170.789L219.756 181.189C195.889 212.389 168.023 228.655 138.156 228.789C104.823 228.922 70.6893 209.055 57.2226 181.722C55.6226 178.389 54.1559 176.522 54.1559 177.722C54.1559 183.322 64.2893 199.855 73.4893 209.055C82.0226 217.589 85.3559 219.722 104.023 228.922C123.489 238.522 124.823 239.322 122.956 241.455C119.756 245.055 120.423 246.122 124.289 243.589C126.556 242.122 128.289 241.855 129.089 242.655C130.823 244.389 123.223 250.522 114.556 254.522C110.689 256.389 107.489 257.855 107.489 257.989C107.489 258.122 122.689 258.255 141.223 258.255C186.423 258.255 185.623 257.855 186.556 281.322C186.823 288.789 187.489 295.322 187.889 295.722C189.089 296.922 221.089 279.989 222.156 277.589C228.689 263.322 233.889 255.055 246.956 237.589C255.489 226.255 263.089 216.122 264.023 215.189C265.223 213.855 266.823 214.389 271.223 217.722C274.423 219.989 277.089 221.722 277.356 221.455C278.823 219.855 284.823 206.789 284.823 205.322C284.823 203.055 278.023 198.789 269.756 195.589C264.423 193.589 262.823 192.122 260.556 187.322C259.089 184.122 255.223 178.655 252.023 175.055L246.289 168.655L247.089 159.455C247.489 153.722 248.689 149.322 250.156 147.589C257.889 138.389 262.823 123.589 261.756 112.255C260.956 102.655 257.089 95.1886 249.756 88.7886C244.556 84.1219 243.623 82.3886 241.089 72.5219C233.489 43.1886 218.423 25.3219 189.356 10.5219C172.689 2.12188 155.756 -1.21145 137.223 0.38855ZM179.489 9.05524C190.956 12.6552 208.423 22.9219 216.689 30.9219C228.956 42.7886 236.023 57.9886 241.756 84.3886C243.623 93.4552 244.156 101.722 244.156 127.189C244.156 146.522 243.623 159.322 242.823 159.989C242.023 160.655 239.756 160.789 237.489 160.122L233.489 159.055L233.889 128.789C234.156 104.922 233.889 97.1886 232.289 91.7219C228.289 78.3886 212.956 59.1886 200.156 51.5886C193.889 47.9886 180.289 42.7886 164.823 38.1219L154.823 35.0552H161.089C169.223 34.9219 180.156 37.1886 186.423 40.3886C189.089 41.7219 191.623 42.5219 191.889 41.8552C192.156 41.3219 193.223 37.7219 194.289 33.8553C196.023 26.7886 196.023 26.6553 192.823 24.1219C187.089 19.5886 165.889 9.85522 157.889 8.12189C153.756 7.18855 150.689 5.85523 151.089 5.18857C152.156 3.45523 168.556 5.58857 179.489 9.05524ZM172.156 43.5886C190.423 48.6552 208.689 60.3886 218.956 73.4552C222.156 77.5886 224.823 81.3219 224.823 81.7219C224.823 82.2552 222.689 83.0552 220.023 83.4552C215.623 84.3886 214.823 83.8552 208.289 77.3219C190.423 59.4552 154.423 50.9219 121.223 56.7886C107.756 59.0552 88.0226 65.0552 76.0226 70.3886L68.4226 73.7219L65.2226 70.6552L62.1559 67.5886L72.5559 60.5219C85.2226 51.9886 99.0893 45.9886 114.156 42.7886C128.423 39.5886 159.623 40.1219 172.156 43.5886ZM63.4893 72.2552C66.6893 75.4552 64.8226 76.7886 60.2893 74.7886C57.6226 73.4552 57.2226 72.7886 58.2893 71.3219C60.2893 69.0552 60.2893 69.0552 63.4893 72.2552ZM228.156 88.2552C228.156 90.9219 218.156 91.8552 216.689 89.3219C215.889 88.1219 216.689 87.3219 219.889 86.7886C225.889 85.5886 228.156 85.9886 228.156 88.2552ZM252.156 96.2552C256.689 103.189 257.223 109.322 253.356 114.522C248.689 120.655 247.889 119.722 246.956 106.389C246.556 99.3219 245.756 92.6552 245.223 91.4552C243.623 87.1886 248.023 90.3886 252.156 96.2552ZM35.8893 99.8552C35.6226 102.655 34.9559 109.722 34.4226 115.589L33.3559 126.255L30.4226 120.655C26.5559 113.322 26.6893 107.855 30.8226 100.655C35.0893 93.5886 36.8226 93.3219 35.8893 99.8552ZM31.4893 127.589C33.8893 130.255 35.7559 140.255 34.0226 140.255C32.4226 140.255 26.1559 126.522 26.1559 123.055C26.2893 119.722 26.2893 119.722 27.7559 122.255C28.5559 123.722 30.2893 126.122 31.4893 127.589ZM210.023 262.522C208.156 264.655 206.156 263.589 206.156 260.389C206.156 256.789 207.889 255.855 209.756 258.389C210.956 260.122 211.089 261.189 210.023 262.522ZM204.823 263.589C204.823 264.655 204.156 265.855 203.356 266.389C201.223 267.589 199.356 263.989 201.089 261.989C202.689 259.989 204.823 260.922 204.823 263.589ZM198.156 267.455C198.156 268.522 197.623 269.722 196.956 270.122C195.623 271.055 193.889 267.589 195.089 266.389C196.556 264.922 198.156 265.589 198.156 267.455ZM192.289 273.189C190.823 274.655 189.756 272.389 190.823 269.989C191.889 267.722 191.889 267.722 192.423 269.989C192.823 271.322 192.689 272.789 192.289 273.189Z" fill="#D1F1FF"/>
<path d="M218.289 165.188C211.623 179.722 189.223 195.188 165.489 201.588C144.023 207.322 104.556 206.255 91.356 199.722C84.156 196.122 85.6227 198.388 94.2894 204.122C106.423 212.255 118.289 215.455 136.156 215.455C159.489 215.588 177.489 208.655 199.089 191.588C212.289 181.188 220.823 170.922 220.823 165.455C220.823 160.655 220.423 160.655 218.289 165.188Z" fill="#0089D7"/>
<path d="M12.0226 208.255C0.955946 213.855 -1.04405 215.589 0.422613 218.255C1.48928 220.122 2.02261 220.122 5.08928 217.589C7.08928 216.122 12.5559 213.055 17.3559 210.789C25.6226 206.922 27.6226 204.255 22.2893 204.255C20.9559 204.255 16.4226 206.122 12.0226 208.255Z" fill="#0089D7"/>
<path d="M36.0227 217.189C42.556 230.122 60.4227 249.989 74.0227 259.322L79.8894 263.322L88.556 261.055C96.156 259.055 115.489 250.389 115.489 249.055C115.489 248.789 111.223 249.589 106.023 250.922C86.956 255.855 78.8227 256.655 74.156 254.255C68.4227 251.322 49.0894 232.522 42.0227 223.189C34.4227 213.055 33.4894 212.122 36.0227 217.189Z" fill="#0089D7"/>
<path d="M18.8225 222.122C10.1559 227.989 5.48922 233.055 7.48922 234.255C8.28922 234.789 12.6892 231.455 17.7559 226.389C22.6892 221.589 26.4225 217.589 26.0225 217.589C25.7559 217.589 22.4225 219.589 18.8225 222.122Z" fill="#0089D7"/>
<path d="M266.822 224.255C272.289 229.855 274.156 230.789 274.156 227.855C274.156 226.255 264.689 218.922 262.689 218.922C262.156 218.922 264.022 221.322 266.822 224.255Z" fill="#0089D7"/>
<path d="M46.556 245.989C47.756 247.989 49.756 251.055 50.8226 252.789C52.8226 255.722 52.556 256.255 46.556 262.922L40.2893 269.855L43.6226 272.389C47.0893 275.189 67.4893 285.322 76.556 288.789L82.156 290.922L82.2893 287.189V283.589L84.4226 287.989C86.4226 291.722 92.0227 294.922 97.2227 294.922C97.756 294.922 94.956 290.922 90.8226 285.989C82.8226 276.255 82.956 276.522 84.956 273.589C86.0226 271.989 86.556 271.989 87.0893 273.322C88.156 276.255 99.8893 289.855 105.223 294.522C109.223 297.989 111.489 298.789 118.423 299.455C123.089 299.855 128.956 300.122 131.489 300.122C134.023 299.989 139.889 300.789 144.556 301.589L152.956 303.322L159.223 297.989C162.689 295.189 168.556 288.789 172.156 283.855C175.889 279.055 179.089 275.589 179.223 276.389C180.423 279.589 177.623 284.389 169.889 292.922L161.623 301.989L168.156 301.055C171.889 300.389 174.823 299.855 174.823 299.855C174.823 299.722 176.023 297.189 177.489 294.255L180.023 288.922L180.823 294.255C182.156 302.922 183.889 296.522 183.223 284.922C182.689 274.389 180.823 270.389 173.623 265.055C170.156 262.389 167.889 262.255 133.356 261.855C98.556 261.455 96.4226 261.589 90.956 264.122C87.8893 265.722 83.4893 266.922 81.356 266.922C76.156 266.922 66.4226 261.055 54.156 250.789C47.356 245.055 44.956 243.455 46.556 245.989ZM166.956 265.722C174.156 267.589 174.689 269.189 167.889 268.522C165.089 268.389 154.156 268.655 143.489 269.322C125.889 270.389 125.223 270.522 135.489 270.922C141.756 271.055 152.423 271.589 159.089 272.122L171.489 272.922L162.023 283.989L152.556 294.922L148.023 291.055C139.489 283.589 128.956 282.789 119.356 288.922L114.689 291.989L102.423 279.989C95.6226 273.322 90.156 267.722 90.156 267.455C90.156 264.389 155.623 262.922 166.956 265.722Z" fill="#0089D7"/>
</svg>
