<svg width="2415" height="2415" viewBox="0 0 2415 2415" fill="none" xmlns="http://www.w3.org/2000/svg">
<g clip-path="url(#clip0_21_815)">
<path d="M257.067 1.33347C256.933 2.00013 251.467 3.0668 245.067 3.4668C238.533 4.00013 233.333 4.93347 233.333 5.4668C233.333 6.13347 231.2 6.6668 228.667 6.6668C226 6.6668 221.733 7.60013 219.067 8.6668C216.533 9.73347 212.267 10.6668 209.867 10.6668C207.333 10.6668 205.333 11.2001 205.333 11.8668C205.333 12.5335 202.933 13.3335 200 13.8668C197.067 14.2668 194.667 15.3335 194.667 16.0001C194.667 16.8001 192.267 17.3335 189.333 17.3335C186.4 17.3335 184 17.8668 184 18.6668C184 19.3335 182.533 20.2668 180.667 20.8001C178.8 21.2001 177.333 22.1335 177.333 22.8001C177.333 23.4668 175.867 24.0001 174.133 24.0001C172.267 24.0001 170 24.9335 168.8 26.0001C167.733 27.0668 165.333 28.0001 163.467 28.0001C161.333 28.0001 160 28.8001 160 30.0001C160 31.2001 158.8 32.0001 156.667 32.0001C154.8 32.0001 153.333 32.5335 153.333 33.3335C153.333 34.0001 152.4 34.6668 151.333 34.6668C150.267 34.6668 149.333 35.2001 149.333 36.0001C149.333 36.6668 147.867 37.6001 146 38.1335C144.133 38.5335 142.667 39.4668 142.667 40.0001C142.667 40.5335 141.2 41.4668 139.333 41.8668C137.467 42.4001 136 43.3335 136 44.0001C136 44.8001 135.067 45.3335 134 45.3335C132.933 45.3335 132 45.8668 132 46.6668C132 47.3335 130.533 48.2668 128.667 48.8001C126.8 49.2001 125.333 50.1335 125.333 50.8001C125.333 51.4668 124.4 52.0001 123.333 52.0001C122.267 52.0001 121.333 52.9335 121.333 54.0001C121.333 55.0668 120.4 56.0001 119.333 56.0001C118.133 56.0001 115.867 57.4668 114.133 59.3335C112.4 61.2001 110.667 62.6668 110.133 62.6668C109.6 62.6668 107.867 64.1335 106.133 66.0001C104.4 67.8668 102.667 69.3335 102.133 69.3335C100.133 69.3335 73.3333 95.4668 73.3333 97.4668C73.3333 98.1335 71.8667 100.133 70 101.867C68.1333 103.6 66.6667 105.6 66.6667 106.533C66.6667 107.333 65.7333 108 64.6667 108C63.6 108 62.6667 108.933 62.6667 110C62.6667 111.067 62.1333 112 61.4667 112C60.8 112 59.7333 113.333 59.2 114.933C58.6667 116.667 56.9333 119.333 55.2 120.933C53.4667 122.533 52 124.8 52 126C52 127.067 51.4667 128 50.6667 128C50 128 49.3333 128.933 49.3333 130C49.3333 131.067 48.4 132 47.3333 132C46.2667 132 45.3333 133.2 45.3333 134.667C45.3333 136.267 43.8667 138.8 42 140.533C40.1333 142.267 38.6667 144.933 38.6667 146.533C38.6667 148.133 37.7333 149.733 36.6667 150.133C35.6 150.667 34.6667 152.4 34.6667 154.133C34.6667 155.867 34.1333 157.333 33.3333 157.333C32.6667 157.333 31.7333 158.8 31.2 160.667C30.8 162.533 29.8667 164 29.2 164C28.5333 164 28 165.333 28 167.067C28 168.8 27.0667 171.333 26 172.8C24.9333 174.133 24 176.667 24 178.267C24 180 23.4667 181.333 22.6667 181.333C22 181.333 21.3333 182.8 21.3333 184.533C21.3333 186.4 20.4 188.667 19.3333 189.867C18.2667 190.933 17.3333 194 17.3333 196.533C17.3333 199.2 16.8 201.333 16 201.333C15.3333 201.333 14.2667 203.733 13.8667 206.667C13.3333 209.6 12.5333 212 11.8667 212C11.2 212 10.6667 214.933 10.6667 218.533C10.6667 222.133 9.73333 227.2 8.66667 229.733C7.6 232.4 6.66667 238.267 6.66667 242.667C6.66667 247.067 6.13333 250.667 5.33333 250.667C4.53333 250.667 4 263.067 4 285.333C4 304.667 4.53333 320 5.2 320C5.86667 320 6.66667 324.667 6.93333 330.267C7.2 336.667 8 340.667 9.06667 341.067C10 341.333 10.6667 344.133 10.6667 348.133C10.6667 351.733 11.2 354.667 11.8667 354.667C12.5333 354.667 13.3333 357.6 13.8667 361.333C14.4 364.933 15.3333 368 16 368C16.8 368 17.3333 370.4 17.3333 373.333C17.3333 376.267 17.8667 378.667 18.6667 378.667C19.3333 378.667 20.4 381.067 20.8 384C21.3333 386.933 22.1333 389.333 22.6667 389.333C23.3333 389.333 24.1333 391.067 24.6667 393.333C25.2 395.467 26.1333 397.333 26.8 397.333C27.4667 397.333 28 398.8 28 400.667C28 402.533 28.5333 404 29.3333 404C30 404 30.9333 405.467 31.4667 407.333C31.8667 409.2 32.8 410.667 33.4667 410.667C34.1333 410.667 34.6667 412.133 34.6667 414C34.6667 415.867 35.2 417.333 35.8667 417.333C36.5333 417.333 37.6 418.667 38.1333 420.267C38.6667 422 39.3333 423.6 39.8667 424C40.2667 424.4 41.8667 427.067 43.3333 430C44.8 432.933 46.5333 436 47.3333 436.933C48 437.867 49.4667 439.467 50.2667 440.533C51.2 441.6 52 443.2 52 444C52 444.667 52.5333 445.333 53.3333 445.333C54 445.333 54.9333 446.8 55.4667 448.667C55.8667 450.533 56.8 452 57.4667 452C58.1333 452 58.6667 452.933 58.6667 454C58.6667 455.067 59.6 456 60.6667 456C61.8667 456 62.6667 457.2 62.6667 459.333C62.6667 461.2 63.3333 462.667 64.1333 462.667C66 462.667 69.3333 466 69.3333 467.867C69.3333 468.667 70.2667 469.333 71.3333 469.333C72.4 469.333 73.3333 470 73.3333 470.8C73.3333 472.667 98 497.333 99.8667 497.333C100.667 497.333 101.333 498 101.333 498.8C101.333 500.667 104.667 504 106.533 504C107.333 504 108 504.933 108 506C108 507.2 109.2 508 111.333 508C113.467 508 114.667 508.8 114.667 510C114.667 511.067 115.6 512 116.667 512C117.733 512 118.667 512.533 118.667 513.067C118.667 513.733 120.8 515.333 123.333 516.8C125.867 518.133 128 519.733 128 520.267C128 520.933 128.933 521.333 130 521.333C131.067 521.333 132 522.267 132 523.333C132 524.533 133.2 525.333 135.333 525.333C137.2 525.333 138.667 525.867 138.667 526.533C138.667 527.2 140.133 528.133 142 528.533C143.867 529.067 145.333 530 145.333 530.667C145.333 531.467 146.267 532 147.333 532C148.533 532 149.733 532.933 150.133 534C150.667 535.067 152.4 536 154.133 536C155.867 536 157.333 536.533 157.333 537.333C157.333 538 158.8 538.933 160.667 539.467C162.533 539.867 164 540.8 164 541.467C164 542.133 165.2 542.667 166.8 542.667C168.267 542.667 170.4 543.6 171.467 544.667C172.667 545.733 174.933 546.667 176.8 546.667C178.533 546.667 180 547.2 180 548C180 548.667 181.867 549.333 184 549.333C186.667 549.333 188 550 188 551.333C188 552.8 189.467 553.333 193.333 553.333C196.267 553.333 198.667 553.867 198.667 554.533C198.667 555.2 201.067 556 204 556.533C206.933 556.933 209.333 558 209.333 558.667C209.333 559.467 212.267 560 215.867 560C219.6 560 222.667 560.667 222.933 561.6C223.2 562.4 227.067 563.333 231.467 563.733C235.733 564.133 239.733 565.067 240.267 565.867C240.933 566.933 254.8 567.333 287.333 567.333C319.867 567.333 333.733 566.933 334.4 565.867C334.933 565.067 338.933 564.133 343.2 563.733C347.6 563.333 351.467 562.4 351.733 561.6C352 560.667 355.067 560 358.8 560C362.4 560 365.333 559.467 365.333 558.667C365.333 558 367.733 556.933 370.667 556.533C373.6 556 376 555.2 376 554.533C376 553.867 378.133 553.333 380.8 553.333C383.333 553.333 386.4 552.4 387.467 551.333C388.667 550.267 390.933 549.333 392.8 549.333C394.533 549.333 396 548.667 396 548C396 547.2 397.467 546.667 399.333 546.667C401.2 546.667 403.067 545.733 403.467 544.667C404 543.6 405.733 542.667 407.467 542.667C409.2 542.667 410.667 542.133 410.667 541.467C410.667 540.8 412.133 539.867 414 539.467C415.867 538.933 417.333 538 417.333 537.333C417.333 536.533 418.8 536 420.533 536C422.267 536 424 535.067 424.533 534C424.933 532.933 426.533 532 428 532C429.467 532 430.667 531.467 430.667 530.8C430.667 530.133 432.133 529.2 434 528.8C435.867 528.267 437.333 527.333 437.333 526.667C437.333 525.867 438.267 525.333 439.333 525.333C440.4 525.333 441.333 524.8 441.333 524.133C441.333 523.467 442.8 522.533 444.667 522.133C446.533 521.6 448 520.667 448 520C448 519.2 448.667 518.667 449.333 518.667C450.133 518.667 452.133 517.2 453.733 515.467C455.333 513.733 458 512 459.733 511.467C461.333 510.933 462.667 509.867 462.667 509.2C462.667 508.533 463.6 508 464.667 508C465.733 508 466.667 507.333 466.667 506.533C466.667 504.667 470 501.333 471.867 501.333C472.667 501.333 473.333 500.8 473.333 500C473.333 499.333 474.8 498.4 476.667 497.867C478.533 497.467 480 496.4 480 495.733C480 494 483.467 490.667 485.2 490.667C486 490.667 486.667 489.733 486.667 488.667C486.667 487.6 487.6 486.667 488.667 486.667C489.733 486.667 490.667 486 490.667 485.2C490.667 483.333 494 480 495.867 480C496.667 480 497.333 479.333 497.333 478.667C497.333 477.067 498.667 475.333 504.4 469.333C506.4 467.333 508 465.067 508 464.533C508 464 509.333 462.4 511.067 460.8C512.8 459.2 515.333 456 516.667 453.6C518.133 451.2 519.733 449.333 520.267 449.333C520.8 449.333 521.333 448.4 521.333 447.333C521.333 446.267 522.267 445.333 523.333 445.333C524.533 445.333 525.333 444.133 525.333 442C525.333 440.133 525.867 438.667 526.533 438.667C527.2 438.667 528.133 437.2 528.533 435.333C529.067 433.467 530 432 530.667 432C531.467 432 532 431.067 532 430C532 428.933 532.933 428 534 428C535.2 428 536 426.8 536 424.667C536 422.8 536.533 421.333 537.2 421.333C537.867 421.333 538.8 419.867 539.2 418C539.733 416.133 540.667 414.667 541.333 414.667C542.133 414.667 542.667 413.2 542.667 411.333C542.667 409.467 543.6 407.6 544.667 407.2C545.733 406.667 546.667 404.933 546.667 403.2C546.667 401.467 547.333 400 548 400C548.8 400 549.333 398.667 549.333 396.933C549.333 395.333 550.267 392.8 551.333 391.467C552.4 390 553.333 387.467 553.333 385.733C553.333 384 553.867 382.667 554.533 382.667C555.2 382.667 556 380.267 556.533 377.333C556.933 374.4 558 372 558.667 372C559.467 372 560 369.867 560 367.2C560 364.667 560.933 361.6 562 360.533C563.067 359.333 564 356.133 564 353.2C564 350.4 564.533 348 565.2 348C565.733 348 566.667 343.333 567.2 337.6C567.6 332 568.667 327.067 569.333 326.933C571.2 326.267 571.2 240.4 569.333 239.733C568.667 239.467 567.6 235.6 567.2 230.933C566.667 226.4 565.733 222.667 565.2 222.667C564.533 222.667 564 220.4 564 217.6C564 214.8 563.067 211.333 562 209.867C560.933 208.533 560 205.067 560 202.267C560 199.6 559.467 197.333 558.8 197.333C558.133 197.333 557.2 195.2 556.8 192.667C556.267 190.133 555.333 188 554.667 188C553.867 188 553.333 185.867 553.333 183.333C553.333 180.4 552.533 178.267 551.333 177.867C550.267 177.333 549.333 175.6 549.333 173.867C549.333 172.133 548.8 170.667 548 170.667C547.333 170.667 546.667 169.467 546.667 168.133C546.667 165.333 543.067 158 540.4 154.933C539.467 154 538.667 152.267 538.667 151.2C538.667 150.133 538.133 149.333 537.333 149.333C536.667 149.333 536 147.867 536 146C536 143.867 535.2 142.667 534 142.667C532.8 142.667 532 141.467 532 139.333C532 137.467 531.467 136 530.667 136C530 136 529.333 135.067 529.333 134C529.333 132.933 528.4 132 527.333 132C526.133 132 525.333 130.8 525.333 128.667C525.333 126.533 524.533 125.333 523.333 125.333C522.267 125.333 521.333 124.4 521.333 123.333C521.333 122.267 520.8 121.333 520.133 121.333C519.467 121.333 518.533 119.867 518.133 118C517.6 116.133 516.667 114.667 516 114.667C515.2 114.667 514.667 114 514.667 113.2C514.667 111.333 511.333 108 509.467 108C508.667 108 508 106.533 508 104.667C508 102.533 507.2 101.333 506 101.333C504.933 101.333 504 100.667 504 99.8668C504 98.0001 500.667 94.6668 498.8 94.6668C498 94.6668 497.333 93.7335 497.333 92.6668C497.333 91.6001 496.4 90.6668 495.333 90.6668C494.267 90.6668 493.333 90.0001 493.333 89.3335C493.333 87.2001 472.667 67.0668 469.467 66.0001C467.867 65.6001 466.667 64.5335 466.667 63.8668C466.667 63.2001 465.733 62.6668 464.667 62.6668C463.6 62.6668 462.667 61.7335 462.667 60.6668C462.667 59.6001 462 58.6668 461.333 58.6668C460.533 58.6668 458.267 57.2001 456.267 55.3335C454.267 53.4668 452 52.0001 451.067 52.0001C450.133 52.0001 449.333 51.3335 449.333 50.6668C449.333 49.8668 448.4 49.3335 447.333 49.3335C446.267 49.3335 445.333 48.4001 445.333 47.3335C445.333 46.1335 444.133 45.3335 442.133 45.3335C440.4 45.3335 438.667 44.4001 438.133 43.3335C437.733 42.2668 436.133 41.3335 434.667 41.3335C433.2 41.3335 432 40.6668 432 40.0001C432 39.2001 431.067 38.6668 430 38.6668C428.933 38.6668 428 37.7335 428 36.6668C428 35.4668 426.8 34.6668 424.667 34.6668C422.8 34.6668 421.333 34.1335 421.333 33.4668C421.333 32.8001 419.6 31.8668 417.333 31.3335C415.2 30.8001 413.333 29.8668 413.333 29.2001C413.333 28.5335 411.867 28.0001 410 28.0001C408.133 28.0001 406.667 27.4668 406.667 26.6668C406.667 26.0001 405.2 25.0668 403.333 24.5335C401.467 24.1335 400 23.2001 400 22.6668C400 22.1335 397.6 21.3335 394.667 20.8001C391.733 20.4001 389.333 19.3335 389.333 18.6668C389.333 17.8668 387.2 17.3335 384.667 17.3335C382.133 17.3335 380 16.8001 380 16.0001C380 15.3335 377.6 14.2668 374.667 13.8668C371.733 13.3335 369.333 12.5335 369.333 11.8668C369.333 11.2001 367.067 10.6668 364.4 10.6668C361.6 10.6668 358.133 9.73347 356.8 8.6668C355.333 7.4668 351.333 6.6668 347.733 6.6668C344.267 6.6668 341.333 6.13347 341.333 5.4668C341.333 4.93347 336.133 4.00013 329.733 3.4668C323.2 3.0668 317.867 2.00013 317.6 1.33347C317.333 0.533467 305.467 0.000133172 287.333 0.000133172C269.2 0.000133172 257.333 0.533467 257.067 1.33347Z" fill="white"/>
<path d="M1744 781.333C1744 782.133 1738 782.667 1728.8 782.667C1718.4 782.667 1712.13 783.333 1708.93 784.667C1706.27 785.733 1700.13 786.667 1695.33 786.667C1690.53 786.667 1686.67 787.2 1686.67 787.867C1686.67 788.4 1682.27 789.333 1677.07 789.867C1671.73 790.4 1667.2 791.333 1666.93 792C1666.67 792.8 1662.8 793.333 1658.4 793.333C1653.2 793.333 1649.87 794 1648.53 795.333C1647.33 796.4 1644.13 797.333 1641.2 797.333C1638.4 797.333 1636 797.867 1636 798.667C1636 799.333 1633.73 800 1631.07 800C1628.27 800 1624.8 800.933 1623.47 802C1622 803.067 1618.53 804 1615.73 804C1612.93 804 1610.67 804.533 1610.67 805.2C1610.67 805.867 1608.27 806.667 1605.33 807.2C1602.4 807.6 1600 808.667 1600 809.333C1600 810.133 1597.87 810.667 1595.2 810.667C1592.67 810.667 1589.6 811.6 1588.53 812.667C1587.33 813.733 1585.07 814.667 1583.2 814.667C1581.47 814.667 1580 815.2 1580 816C1580 816.667 1578.27 817.333 1576.13 817.333C1574 817.333 1571.33 818.267 1570.13 819.333C1569.07 820.4 1566 821.333 1563.47 821.333C1560.8 821.333 1558.67 821.867 1558.67 822.667C1558.67 823.333 1557.2 824.267 1555.33 824.8C1553.47 825.2 1552 826.133 1552 826.8C1552 827.467 1549.6 828 1546.67 828C1542.8 828 1541.33 828.533 1541.33 830C1541.33 831.2 1540.13 832 1538 832C1536.13 832 1534.67 832.533 1534.67 833.333C1534.67 834 1533.2 834.667 1531.33 834.667C1529.47 834.667 1527.6 835.6 1527.2 836.667C1526.67 837.733 1524.93 838.667 1523.2 838.667C1521.47 838.667 1520 839.2 1520 840C1520 840.667 1517.87 841.6 1515.33 842.133C1512.8 842.533 1510.67 843.467 1510.67 844.133C1510.67 844.8 1509.6 845.333 1508.13 845.333C1506.8 845.333 1504.93 846.267 1504 847.333C1503.07 848.4 1501.2 849.333 1499.87 849.333C1498.4 849.333 1497.33 849.867 1497.33 850.533C1497.33 851.2 1495.6 852.133 1493.33 852.667C1491.2 853.2 1489.33 854.133 1489.33 854.8C1489.33 855.467 1488.13 856 1486.67 856C1485.07 856 1482.53 857.467 1480.8 859.333C1479.07 861.2 1476.4 862.667 1474.8 862.667C1473.33 862.667 1472 863.2 1472 864C1472 864.667 1470.53 865.6 1468.67 866.133C1466.8 866.533 1465.33 867.467 1465.33 868C1465.33 868.533 1463.87 869.467 1462 869.867C1460.13 870.4 1458.67 871.333 1458.67 872C1458.67 872.8 1457.47 873.333 1456 873.333C1454.53 873.333 1453.33 873.867 1453.33 874.667C1453.33 875.333 1451.87 876.267 1450 876.8C1448.13 877.2 1446.67 878 1446.67 878.533C1446.67 878.933 1444.53 880.533 1442 881.867C1439.47 883.333 1437.33 884.8 1437.33 885.333C1437.33 886 1435.87 886.8 1434 887.2C1432.13 887.733 1430.67 888.667 1430.67 889.333C1430.67 890.133 1429.73 890.667 1428.67 890.667C1427.6 890.667 1426.67 891.2 1426.67 891.867C1426.67 892.533 1425.2 893.467 1423.33 893.867C1421.47 894.4 1420 895.333 1420 896C1420 896.8 1419.07 897.333 1418 897.333C1416.93 897.333 1416 898.267 1416 899.333C1416 900.533 1414.8 901.333 1412.67 901.333C1410.53 901.333 1409.33 902.133 1409.33 903.333C1409.33 904.4 1408.4 905.333 1407.33 905.333C1406.27 905.333 1405.33 905.867 1405.33 906.667C1405.33 907.333 1404.4 908 1403.33 908C1402.27 908 1400 909.467 1398.13 911.333C1396.27 913.2 1394.13 914.667 1393.33 914.667C1392.67 914.667 1392 915.6 1392 916.667C1392 917.867 1390.8 918.667 1388.67 918.667C1386.53 918.667 1385.33 919.467 1385.33 920.667C1385.33 921.733 1384.67 922.667 1383.87 922.667C1382.93 922.667 1380.4 924.8 1377.87 927.333C1375.47 929.867 1372.93 932 1372.13 932C1371.33 932 1370.67 932.933 1370.67 934C1370.67 935.2 1369.47 936 1367.33 936C1365.47 936 1364 936.667 1364 937.467C1364 939.333 1360.67 942.667 1358.8 942.667C1358 942.667 1357.33 943.6 1357.33 944.667C1357.33 945.733 1356.67 946.667 1356 946.667C1355.2 946.667 1350.93 950.267 1346.4 954.667C1342 959.067 1337.87 962.667 1337.2 962.667C1336.53 962.667 1336 963.2 1336 964C1336 965.6 1331.07 970.667 1329.6 970.667C1328.93 970.667 1327.73 972.133 1326.8 973.867C1325.87 975.6 1323.6 977.867 1321.87 978.8C1320.13 979.733 1318.67 980.933 1318.67 981.6C1318.67 982.133 1314.8 986.533 1310 991.333C1305.2 996.133 1301.33 1000.4 1301.33 1000.8C1301.33 1001.2 1299.73 1003.33 1297.73 1005.33C1292.4 1010.93 1290.67 1013.07 1290.67 1014.13C1290.67 1014.67 1289.2 1016.4 1287.33 1018.13C1285.47 1019.87 1284 1021.73 1284 1022.27C1284 1022.93 1282.53 1024.93 1280.67 1026.93C1278.8 1028.93 1277.33 1031.2 1277.33 1032C1277.33 1032.67 1276.4 1033.33 1275.33 1033.33C1274.27 1033.33 1273.33 1034.27 1273.33 1035.47C1273.33 1036.67 1272.53 1037.33 1271.73 1037.07C1270.4 1036.53 1269.87 1012.4 1269.6 923.6L1269.33 810.667H1041.33H813.333V1612.67V2414.67H1055.33H1297.33L1297.6 1967.73C1297.87 1611.73 1298.4 1520.8 1299.73 1520.27C1300.8 1520 1301.33 1516.53 1301.33 1509.2C1301.33 1503.47 1301.87 1498.67 1302.53 1498.67C1303.2 1498.67 1304.13 1494.8 1304.67 1490C1305.07 1485.2 1306.13 1481.33 1306.8 1481.33C1307.47 1481.33 1308 1478.4 1308 1474.8C1308 1471.2 1308.67 1468 1309.47 1467.73C1310.27 1467.47 1311.2 1464.4 1311.6 1460.93C1312 1457.47 1312.93 1454.67 1313.47 1454.67C1314.13 1454.67 1314.67 1452.93 1314.67 1450.8C1314.67 1448.67 1315.6 1446 1316.67 1444.8C1317.73 1443.73 1318.67 1440.67 1318.67 1438.13C1318.67 1435.47 1319.2 1433.33 1320 1433.33C1320.67 1433.33 1321.73 1430.93 1322.13 1428C1322.67 1425.07 1323.47 1422.67 1324.13 1422.67C1324.8 1422.67 1325.33 1421.2 1325.33 1419.33C1325.33 1417.2 1326.13 1416 1327.33 1416C1328.67 1416 1329.33 1414.67 1329.33 1412C1329.33 1409.73 1329.87 1408 1330.53 1408C1331.2 1408 1332.13 1405.87 1332.53 1403.33C1333.07 1400.8 1334 1398.67 1334.67 1398.67C1335.47 1398.67 1336 1397.2 1336 1395.33C1336 1393.47 1336.53 1392 1337.33 1392C1338 1392 1338.93 1390.53 1339.47 1388.67C1339.87 1386.8 1340.8 1385.33 1341.47 1385.33C1342.13 1385.33 1342.67 1384.4 1342.67 1383.33C1342.67 1382.27 1343.2 1381.33 1344 1381.33C1344.67 1381.33 1345.6 1379.87 1346.13 1378C1346.53 1376.13 1347.47 1374.67 1348.13 1374.67C1348.8 1374.67 1349.33 1373.87 1349.33 1372.8C1349.33 1371.73 1350.13 1370 1351.07 1369.07C1351.87 1368.13 1353.87 1365.07 1355.33 1362.27C1356.8 1359.6 1358.4 1357.33 1358.93 1357.33C1359.6 1357.33 1360 1356.4 1360 1355.33C1360 1354.27 1360.53 1353.33 1361.2 1353.33C1361.87 1353.33 1362.93 1352 1363.47 1350.27C1364 1348.67 1365.73 1346 1367.47 1344.4C1369.2 1342.8 1370.67 1341.07 1370.67 1340.67C1370.67 1340.13 1371.47 1338.93 1372.4 1338C1376.27 1333.6 1377.33 1332 1377.33 1330.67C1377.33 1330 1378.27 1329.33 1379.33 1329.33C1380.4 1329.33 1381.33 1328.67 1381.33 1327.87C1381.33 1326 1388.67 1318.67 1390.53 1318.67C1391.33 1318.67 1392 1318 1392 1317.2C1392 1315.33 1406 1301.33 1407.87 1301.33C1408.67 1301.33 1409.33 1300.4 1409.33 1299.33C1409.33 1298.27 1410 1297.33 1410.67 1297.33C1411.47 1297.33 1413.6 1295.87 1415.47 1294C1417.33 1292.13 1419.33 1290.67 1420.13 1290.67C1420.8 1290.67 1422.8 1289.2 1424.4 1287.47C1426 1285.73 1428.67 1284 1430.4 1283.47C1432 1282.93 1433.33 1281.87 1433.33 1281.2C1433.33 1280.53 1434.27 1280 1435.33 1280C1436.4 1280 1437.33 1279.47 1437.33 1278.67C1437.33 1278 1438.8 1277.07 1440.67 1276.53C1442.53 1276.13 1444 1275.2 1444 1274.53C1444 1273.87 1444.93 1273.33 1446 1273.33C1447.07 1273.33 1448 1272.8 1448 1272C1448 1271.33 1449.47 1270.4 1451.33 1269.87C1453.2 1269.47 1454.67 1268.53 1454.67 1267.87C1454.67 1267.2 1455.87 1266.67 1457.47 1266.67C1458.93 1266.67 1461.07 1265.73 1462.13 1264.67C1463.33 1263.6 1465.33 1262.67 1466.8 1262.67C1468.13 1262.67 1469.33 1262.13 1469.33 1261.47C1469.33 1260.8 1471.47 1259.87 1474 1259.47C1476.53 1258.93 1478.67 1258 1478.67 1257.33C1478.67 1256.53 1480.13 1256 1482 1256C1483.87 1256 1485.33 1255.47 1485.33 1254.67C1485.33 1254 1487.73 1252.93 1490.67 1252.53C1493.6 1252 1496 1251.2 1496 1250.67C1496 1250.13 1498.4 1249.33 1501.33 1248.8C1504.27 1248.4 1506.67 1247.33 1506.67 1246.67C1506.67 1245.87 1509.07 1245.33 1512 1245.33C1514.93 1245.33 1517.33 1244.8 1517.33 1244.13C1517.33 1243.47 1520.4 1242.53 1524 1242C1527.73 1241.47 1530.67 1240.53 1530.67 1239.87C1530.67 1239.2 1533.6 1238.67 1537.2 1238.67C1541.07 1238.67 1544 1238 1544.27 1237.07C1544.67 1236.13 1548.53 1235.2 1553.73 1234.93C1558.67 1234.67 1562.67 1233.87 1562.67 1233.33C1562.67 1232.8 1568.53 1232 1575.6 1231.6C1582.67 1231.07 1589.07 1230.13 1589.87 1229.33C1592.13 1227.07 1658.4 1227.6 1667.6 1230C1671.73 1231.07 1678.67 1232 1682.93 1232C1687.2 1232 1690.67 1232.53 1690.67 1233.2C1690.67 1233.73 1694.4 1234.67 1699.07 1235.2C1703.6 1235.6 1707.6 1236.67 1707.73 1237.33C1708 1238.13 1711.47 1238.67 1715.47 1238.67C1719.47 1238.67 1722.67 1239.2 1722.67 1240C1722.67 1240.67 1725.07 1241.73 1728 1242.13C1730.93 1242.67 1733.33 1243.47 1733.33 1244.13C1733.33 1244.8 1735.47 1245.33 1738 1245.33C1740.53 1245.33 1742.67 1245.87 1742.67 1246.67C1742.67 1247.33 1745.07 1248.4 1748 1248.8C1750.93 1249.33 1753.33 1250.13 1753.33 1250.67C1753.33 1251.33 1755.2 1252.13 1757.33 1252.67C1759.6 1253.2 1761.33 1254.13 1761.33 1254.8C1761.33 1255.47 1762.8 1256 1764.67 1256C1766.53 1256 1768 1256.53 1768 1257.2C1768 1257.87 1769.47 1258.8 1771.33 1259.2C1773.2 1259.73 1774.67 1260.67 1774.67 1261.33C1774.67 1262.13 1776.13 1262.67 1777.87 1262.67C1779.6 1262.67 1781.73 1263.6 1782.67 1264.67C1783.6 1265.73 1785.2 1266.67 1786.13 1266.67C1787.2 1266.67 1788 1267.2 1788 1267.87C1788 1268.53 1789.47 1269.47 1791.33 1269.87C1793.2 1270.4 1794.67 1271.33 1794.67 1272C1794.67 1272.8 1795.73 1273.33 1797.07 1273.33C1798.27 1273.33 1800.93 1274.8 1802.93 1276.67C1804.93 1278.53 1807.2 1280 1808 1280C1808.67 1280 1809.33 1280.53 1809.33 1281.2C1809.33 1281.87 1810.67 1282.93 1812.4 1283.47C1814 1284 1816.67 1285.73 1818.27 1287.47C1819.87 1289.2 1821.6 1290.67 1822 1290.67C1822.93 1290.67 1825.2 1292.53 1830.67 1297.6C1832.67 1299.73 1835.07 1301.33 1835.87 1301.33C1836.67 1301.33 1837.33 1302 1837.33 1302.8C1837.33 1304.67 1840.67 1308 1842.53 1308C1843.33 1308 1844 1308.93 1844 1310C1844 1311.07 1844.67 1312 1845.47 1312C1847.33 1312 1850.67 1315.33 1850.67 1317.2C1850.67 1318 1851.6 1318.67 1852.67 1318.67C1853.73 1318.67 1854.67 1319.33 1854.67 1320.13C1854.67 1320.93 1855.47 1322.4 1856.4 1323.33C1860.27 1327.73 1861.33 1329.33 1861.33 1330.67C1861.33 1331.33 1862.27 1332 1863.33 1332C1864.4 1332 1865.33 1332.93 1865.33 1334C1865.33 1335.07 1866 1336 1866.67 1336C1867.47 1336 1868 1336.93 1868 1338C1868 1339.07 1868.53 1340 1869.33 1340C1870 1340 1870.93 1341.47 1871.47 1343.33C1871.87 1345.2 1873.07 1346.67 1874.13 1346.67C1875.2 1346.67 1876 1347.6 1876 1348.67C1876 1349.73 1876.67 1350.67 1877.33 1350.67C1878.13 1350.67 1878.67 1352.13 1878.67 1354C1878.67 1356.13 1879.47 1357.33 1880.67 1357.33C1881.87 1357.33 1882.67 1358.53 1882.67 1360.13C1882.67 1361.73 1884.13 1364.4 1886 1366.13C1887.87 1367.87 1889.33 1370.4 1889.33 1372C1889.33 1373.47 1889.87 1374.67 1890.67 1374.67C1891.33 1374.67 1892.27 1376.13 1892.8 1378C1893.2 1379.87 1894.13 1381.33 1894.8 1381.33C1895.47 1381.33 1896 1383.07 1896 1385.2C1896 1387.33 1896.93 1389.73 1898 1390.67C1899.07 1391.6 1900 1393.73 1900 1395.47C1900 1397.2 1900.53 1398.67 1901.33 1398.67C1902 1398.67 1902.93 1400.8 1903.47 1403.33C1903.87 1405.87 1904.8 1408 1905.47 1408C1906.13 1408 1906.67 1410.4 1906.67 1413.33C1906.67 1416.27 1907.2 1418.67 1908 1418.67C1908.67 1418.67 1909.73 1421.07 1910.13 1424C1910.67 1426.93 1911.47 1429.33 1912 1429.33C1912.53 1429.33 1913.33 1432.4 1913.6 1436.27C1914 1440.13 1915.07 1443.47 1915.87 1443.73C1916.67 1444 1917.33 1447.33 1917.33 1451.47C1917.33 1455.47 1917.87 1458.67 1918.53 1458.67C1919.2 1458.67 1920.13 1463.2 1920.67 1468.67C1921.2 1474.13 1922.13 1478.67 1922.8 1478.67C1923.47 1478.67 1924 1487.33 1924 1498C1924 1510 1924.53 1517.33 1925.33 1517.33C1926.27 1517.33 1926.67 1605.6 1926.67 1779.33C1926.67 1953.07 1926.27 2041.33 1925.33 2041.33C1924.4 2041.33 1924 2104.4 1924 2228V2414.67H2167.33H2410.67V1875.33C2410.67 1516.67 2410.27 1336 2409.33 1336C2408.53 1336 2408 1331.33 2408 1324.67C2408 1317.47 2407.2 1311.47 2406 1308.4C2404.93 1305.87 2404 1299.87 2404 1295.2C2404 1290.53 2403.47 1286.67 2402.8 1286.67C2402.13 1286.67 2401.2 1282.8 2400.67 1278C2400.27 1273.2 2399.2 1269.33 2398.53 1269.33C2397.87 1269.33 2397.33 1265.73 2397.33 1261.47C2397.33 1256.8 2396.67 1253.33 2395.87 1253.07C2395.07 1252.8 2394 1249.47 2393.6 1245.6C2393.33 1241.73 2392.53 1238.67 2392 1238.67C2391.47 1238.67 2390.67 1236.27 2390.13 1233.33C2389.73 1230.4 2388.67 1228 2388 1228C2387.2 1228 2386.67 1224.93 2386.67 1221.33C2386.67 1217.6 2386.13 1214.67 2385.33 1214.67C2384.67 1214.67 2383.6 1212.27 2383.2 1209.33C2382.67 1206.4 2381.87 1204 2381.2 1204C2380.53 1204 2380 1202.27 2380 1200.13C2380 1198 2379.07 1195.33 2378 1194.13C2376.93 1193.07 2376 1190.93 2376 1189.47C2376 1187.87 2375.47 1186.67 2374.8 1186.67C2374.13 1186.67 2373.33 1184.27 2372.8 1181.33C2372.4 1178.4 2371.33 1176 2370.67 1176C2369.87 1176 2369.33 1173.6 2369.33 1170.67C2369.33 1167.73 2368.8 1165.33 2368 1165.33C2367.33 1165.33 2366.4 1163.87 2365.87 1162C2365.47 1160.13 2364.53 1158.67 2363.87 1158.67C2363.2 1158.67 2362.67 1156.93 2362.67 1154.8C2362.67 1152.67 2361.73 1150.27 2360.67 1149.33C2359.6 1148.4 2358.67 1146.27 2358.67 1144.53C2358.67 1142.8 2358.13 1141.33 2357.47 1141.33C2356.8 1141.33 2355.87 1139.87 2355.47 1138C2354.93 1136.13 2354 1134.67 2353.33 1134.67C2352.53 1134.67 2352 1133.07 2352 1131.2C2352 1129.33 2351.07 1126.93 2350 1125.87C2348.93 1124.67 2348 1122.4 2348 1120.67C2348 1118.93 2347.6 1117.33 2347.07 1117.07C2345.33 1116.4 2341.33 1108 2341.33 1105.2C2341.33 1103.87 2340.8 1102.67 2340 1102.67C2339.33 1102.67 2338.4 1101.2 2337.87 1099.33C2337.47 1097.47 2336.53 1096 2335.87 1096C2335.2 1096 2334.67 1094.53 2334.67 1092.8C2334.67 1091.07 2333.73 1089.33 2332.67 1088.8C2331.6 1088.4 2330.67 1086.93 2330.67 1085.47C2330.67 1084 2330.27 1082.67 2329.73 1082.4C2328 1081.73 2324 1073.33 2324 1070.53C2324 1069.2 2323.07 1068 2322 1068C2320.8 1068 2320 1066.8 2320 1064.67C2320 1062.8 2319.47 1061.33 2318.8 1061.33C2318.13 1061.33 2317.2 1059.87 2316.8 1058C2316.27 1056.13 2315.33 1054.67 2314.67 1054.67C2313.87 1054.67 2313.33 1053.73 2313.33 1052.67C2313.33 1051.6 2312.8 1050.67 2312 1050.67C2311.33 1050.67 2310.67 1049.2 2310.67 1047.33C2310.67 1045.2 2309.87 1044 2308.67 1044C2307.6 1044 2306.67 1042.8 2306.67 1041.33C2306.67 1039.73 2305.2 1037.2 2303.33 1035.47C2301.47 1033.73 2300 1031.07 2300 1029.47C2300 1027.87 2299.2 1026.67 2298 1026.67C2296.93 1026.67 2296 1025.47 2296 1024C2296 1022.4 2294.53 1019.87 2292.67 1018.13C2290.8 1016.4 2289.33 1013.73 2289.33 1012.13C2289.33 1010.53 2288.53 1009.33 2287.33 1009.33C2286.27 1009.33 2285.33 1008.4 2285.33 1007.33C2285.33 1006.27 2284.8 1005.33 2284 1005.33C2283.33 1005.33 2282.67 1004.67 2282.67 1003.87C2282.67 1003.07 2281.87 1001.6 2281.07 1000.67C2277.07 996.267 2276 994.667 2276 993.333C2276 992.667 2275.07 992 2274 992C2272.93 992 2272 991.067 2272 990C2272 988.933 2271.47 988 2270.8 988C2270.13 988 2269.07 986.667 2268.53 984.933C2268 983.333 2265.6 980.133 2263.2 977.733C2260.67 975.467 2258.67 972.933 2258.67 972.133C2258.67 971.333 2257.73 970.667 2256.67 970.667C2255.6 970.667 2254.67 970 2254.67 969.2C2254.67 967.333 2251.33 964 2249.47 964C2248.67 964 2248 963.067 2248 962C2248 960.933 2247.07 960 2246 960C2244.93 960 2244 959.333 2244 958.533C2244 956.667 2240.67 953.333 2238.8 953.333C2238 953.333 2237.33 952.667 2237.33 951.867C2237.33 950.4 2230.13 942.667 2228.67 942.667C2228.13 942.667 2224.8 939.733 2221.33 936.133C2217.87 932.533 2213.73 929.2 2212.13 928.667C2210.53 928.267 2209.33 927.2 2209.33 926.533C2209.33 925.867 2208.67 925.333 2207.87 925.333C2206 925.333 2202.67 922 2202.67 920.133C2202.67 919.333 2201.73 918.667 2200.67 918.667C2199.6 918.667 2198.67 918.133 2198.67 917.467C2198.67 916.8 2197.33 915.733 2195.73 915.2C2194 914.667 2191.33 912.933 2189.73 911.2C2188.13 909.467 2186.4 908 2186 908C2185.47 908 2184.27 907.2 2183.33 906.267C2178.93 902.4 2177.33 901.333 2176 901.333C2175.33 901.333 2174.67 900.4 2174.67 899.333C2174.67 898.267 2173.73 897.333 2172.67 897.333C2171.6 897.333 2170.67 896.667 2170.67 896C2170.67 895.2 2169.47 894.667 2168 894.667C2166.53 894.667 2164.93 893.733 2164.53 892.667C2164 891.6 2162.93 890.667 2161.87 890.667C2160.8 890.667 2160 890.133 2160 889.333C2160 888.667 2158.53 887.733 2156.67 887.2C2154.8 886.8 2153.33 886 2153.33 885.333C2153.33 884.8 2151.2 883.333 2148.67 881.867C2146.13 880.533 2144 878.933 2144 878.4C2144 877.733 2143.07 877.333 2142 877.333C2140.93 877.333 2140 876.4 2140 875.333C2140 874.133 2138.8 873.333 2136.67 873.333C2134.8 873.333 2133.33 872.667 2133.33 872C2133.33 871.2 2132.4 870.667 2131.33 870.667C2130.27 870.667 2129.33 869.733 2129.33 868.667C2129.33 867.467 2128.13 866.667 2126.13 866.667C2124.4 866.667 2122.67 865.733 2122.13 864.667C2121.73 863.6 2120.13 862.667 2118.67 862.667C2117.2 862.667 2116 862 2116 861.333C2116 860.533 2115.07 860 2114 860C2112.93 860 2112 859.067 2112 858C2112 856.8 2110.8 856 2108.67 856C2106.8 856 2105.33 855.467 2105.33 854.8C2105.33 854.133 2103.6 853.2 2101.33 852.667C2099.2 852.133 2097.33 851.2 2097.33 850.533C2097.33 849.867 2096.13 849.333 2094.67 849.333C2093.2 849.333 2091.6 848.4 2091.2 847.333C2090.67 846.267 2088.93 845.333 2087.2 845.333C2085.47 845.333 2084 844.8 2084 844C2084 843.333 2082.53 842.4 2080.67 841.867C2078.8 841.467 2077.33 840.533 2077.33 839.867C2077.33 839.2 2075.87 838.667 2074.13 838.667C2072.4 838.667 2070.67 837.733 2070.13 836.667C2069.73 835.6 2068.13 834.667 2066.67 834.667C2065.2 834.667 2064 834.133 2064 833.467C2064 832.8 2062.27 831.867 2060 831.333C2057.87 830.8 2056 829.867 2056 829.2C2056 828.533 2054.53 828 2052.67 828C2050.8 828 2049.33 827.467 2049.33 826.8C2049.33 826.133 2046.93 825.333 2044 824.8C2041.07 824.4 2038.67 823.333 2038.67 822.667C2038.67 821.867 2037.47 821.333 2035.87 821.333C2034.4 821.333 2032.27 820.4 2031.2 819.333C2030 818.267 2027.33 817.333 2025.2 817.333C2023.07 817.333 2021.33 816.667 2021.33 816C2021.33 815.2 2019.87 814.667 2018.13 814.667C2016.27 814.667 2014 813.733 2012.8 812.667C2011.73 811.6 2008.8 810.667 2006.27 810.667C2003.6 810.667 2001.33 810 2001.07 809.2C2000.8 808.533 1998.13 807.467 1994.93 807.067C1991.87 806.667 1989.33 805.733 1989.33 805.2C1989.33 804.533 1987.33 804 1984.93 804C1982.53 804 1979.33 803.067 1977.87 802C1976.53 800.933 1973.07 800 1970.4 800C1967.6 800 1965.33 799.467 1965.33 798.8C1965.33 798.267 1961.87 797.333 1957.73 796.933C1953.47 796.533 1949.87 795.467 1949.6 794.667C1949.33 794 1945.87 793.333 1941.87 793.333C1937.87 793.333 1934.67 792.8 1934.67 792.133C1934.67 791.467 1930.13 790.533 1924.67 790C1919.2 789.467 1914.67 788.533 1914.67 787.867C1914.67 787.2 1910.8 786.667 1906 786.667C1901.2 786.667 1895.07 785.733 1892.4 784.667C1889.2 783.333 1882.93 782.667 1872.53 782.667C1863.33 782.667 1857.33 782.133 1857.33 781.333C1857.33 780.4 1837.6 780 1800.67 780C1763.73 780 1744 780.4 1744 781.333Z" fill="white"/>
<path d="M38.6665 1612.67V2414.67H287.333H536V1612.67V810.667H287.333H38.6665V1612.67Z" fill="white"/>
</g>
<defs>
<clipPath id="clip0_21_815">
<rect width="2414.67" height="2414.67" fill="white"/>
</clipPath>
</defs>
</svg>
