<svg width="615" height="683" viewBox="0 0 615 683" fill="none" xmlns="http://www.w3.org/2000/svg">
<path d="M82.9999 2.82562C41.1333 13.3589 11.2666 45.0923 2.8666 88.0256C0.0666015 102.692 0.0666015 580.559 2.8666 595.226C10.1999 632.559 33.5333 661.359 67.6666 675.359C85.1333 682.559 89.1333 682.959 149.4 682.959C201.533 682.959 205.4 682.826 210.067 680.426C216.333 677.226 220.333 672.959 223 666.692C228.333 653.626 222.867 638.692 210.067 632.159C205.533 629.759 201.667 629.626 158.733 629.626C133.267 629.492 108.333 628.959 103.4 628.426C80.0666 625.359 61.2666 608.159 56.9999 585.759C55.1333 575.892 55.1333 107.359 56.9999 97.4923C61.2666 75.0923 80.0666 57.8923 103.4 54.8256C115.133 53.359 429.533 53.359 441.267 54.8256C464.6 57.8923 483.4 75.0923 487.667 97.4923C488.467 101.892 489 138.159 489 190.826V277.092L492.067 282.959C493.667 286.159 497.267 290.559 500.067 292.826C504.333 296.292 506.6 296.959 514.2 297.359C527.533 298.159 536.867 292.692 541.667 281.359C544.6 274.159 544.733 103.226 541.8 88.0256C533.133 44.159 502.467 12.1589 459.933 2.42562C451.533 0.558949 431.4 0.292282 271.4 0.425615C105.267 0.425615 91.6666 0.692282 82.9999 2.82562Z" fill="white"/>
<path d="M123 162.426C104.6 171.892 102.466 195.892 118.733 208.826L123.933 212.959L270.466 213.359C412.6 213.626 417.133 213.626 422.066 211.092C442.066 200.826 442.066 173.092 422.066 162.826C417.266 160.426 412.066 160.292 272.066 160.292C143.266 160.292 126.6 160.559 123 162.426Z" fill="white"/>
<path d="M123 269.092C104.6 278.559 102.466 302.559 118.733 315.492L123.933 319.626L270.466 320.026C412.6 320.292 417.133 320.292 422.066 317.759C442.066 307.492 442.066 279.759 422.066 269.492C417.266 267.092 412.066 266.959 272.066 266.959C143.266 266.959 126.6 267.226 123 269.092Z" fill="white"/>
<path d="M513.133 364.959C502.467 368.026 495 371.626 485.8 378.159C481.4 381.359 443.4 418.426 401.4 460.559L325.267 536.959L320.467 552.292C292.2 644.426 291.267 647.626 291.133 656.559C291 664.426 291.533 666.026 295 671.226C297.267 674.292 301.533 678.292 304.333 679.892C313.8 685.226 319.133 684.426 379.267 667.759C409.4 659.359 436.067 651.492 438.6 650.292C441 649.092 478.2 612.826 521.133 569.892C598.867 492.159 599.4 491.492 604.867 480.292C617.133 455.092 617.267 430.826 605.133 406.292C596.333 388.426 579.533 373.626 560.6 366.959C549.667 363.092 523.933 362.026 513.133 364.959ZM543.267 419.092C551.8 422.292 559.667 433.626 559.667 442.959C559.667 448.959 555.667 457.359 550.733 461.892L546.867 465.626L529 447.626L511.133 429.759L515 425.492C517.267 423.226 520.867 420.559 523 419.492C527.8 417.359 538.067 417.092 543.267 419.092ZM459.267 553.226L410.333 602.292L384.733 609.359C370.733 613.226 359.133 616.159 359 616.026C358.733 615.759 362.067 604.426 366.2 590.559L373.667 565.626L422.733 516.692L471.8 467.759L490.067 486.026L508.333 504.292L459.267 553.226Z" fill="white"/>
<path d="M123 375.759C104.6 385.359 102.466 409.226 118.733 422.159L123.933 426.292H218.333H312.733L317.933 422.159C332.466 410.559 332.466 390.026 317.933 378.426L312.733 374.292L219.933 373.892C137.533 373.626 126.6 373.892 123 375.759Z" fill="white"/>
</svg>
