<svg width="1414" height="1415" viewBox="0 0 1414 1415" fill="none" xmlns="http://www.w3.org/2000/svg">
<path d="M406 422H731.5H993V541.5V668V974.5L901 1002.5L1089 1273.5L1072.5 1314L1066 1318.5L1055.5 1324L1044.5 1329L1041.5 1329.5L1040 1331L926 1190.5L822.5 1041.5H639.5H406V844.5V422Z" fill="white"/>
<path d="M640.618 14.7727L640.551 14.778L640.484 14.7841C443.089 32.5809 258.361 139.036 141.354 302.6C76.2148 393.526 34.5178 496.724 18.7622 606.049C13.1858 644.269 12.5 655.969 12.5 707.167C12.5 758.365 13.1859 770.066 18.7622 808.285C56.5136 1069.14 242.094 1288.22 493.783 1369.4L493.786 1369.4C538.944 1383.95 586.441 1393.84 640.233 1399.79L640.244 1399.79C651.391 1401.02 679.624 1401.57 706.933 1401.57C734.243 1401.57 762.476 1401.02 773.623 1399.79L773.635 1399.79C866.615 1389.51 945.682 1366.44 1023.65 1326.64L1023.66 1326.64C1029.26 1323.78 1033.7 1321.43 1036.46 1319.44C1037.24 1318.89 1038.2 1318.14 1039.14 1317.19C1040 1316.31 1041.43 1314.68 1042.38 1312.29C1043.47 1309.53 1043.76 1306.13 1042.49 1302.73C1041.7 1300.6 1040.5 1299.05 1039.49 1298C1039.46 1297.97 1039.43 1297.94 1039.4 1297.9C1039.03 1297.42 1038.45 1296.68 1037.67 1295.66C1036.12 1293.64 1033.87 1290.67 1030.99 1286.85C1025.23 1279.21 1017.02 1268.23 1006.96 1254.74C986.839 1227.76 959.351 1190.74 929.36 1150.22L929.359 1150.22L820.464 1003.12L683.961 801.092L683.958 801.088C646.357 745.487 612.087 694.948 587.146 658.305C574.678 639.985 564.534 625.127 557.469 614.843C553.939 609.706 551.163 605.686 549.243 602.94C548.29 601.576 547.516 600.48 546.956 599.705C546.687 599.333 546.405 598.948 546.152 598.619C546.045 598.479 545.821 598.191 545.548 597.875C545.441 597.75 545.112 597.371 544.657 596.938C544.455 596.746 543.938 596.262 543.202 595.746C542.818 595.487 541.841 594.916 541.238 594.619C540.781 594.432 539.946 594.187 539.018 593.972L539.048 593.85C532.908 592.315 528.537 595.675 526.893 597.429C525.379 599.043 524.687 600.657 524.481 601.146C523.986 602.323 523.787 603.324 523.738 603.565L523.735 603.581C523.599 604.259 523.544 604.832 523.527 605.003C523.479 605.489 523.451 605.994 523.432 606.377C523.391 607.211 523.355 608.346 523.321 609.698C523.253 612.434 523.187 616.424 523.122 621.495C522.992 631.655 522.867 646.335 522.75 664.424C522.517 700.61 522.317 750.524 522.184 805.394V805.398C521.984 901.505 521.85 951.362 521.468 977.777C521.276 991.07 521.024 998.068 520.706 1001.96C520.598 1003.28 520.493 1004.06 520.427 1004.47C519.125 1006.86 518.314 1007.9 517.725 1008.5C517.165 1009.08 516.335 1009.75 514.218 1010.86L514.219 1010.87C513.269 1011.36 511.705 1011.97 491.888 1011.97H472.435L469.379 1010.04C469.377 1010.04 469.375 1010.04 469.373 1010.04C467.38 1008.78 465.971 1007.2 464.961 1005.32L463.461 1002.1L463.725 737.583V737.577L464.119 474.495L465.543 472.702L465.623 472.602L465.701 472.5C466.498 471.453 469.363 469.037 471.386 467.889C472.826 467.19 473.361 466.982 475.57 466.766C478.923 466.439 484.513 466.359 496.287 466.359C510.261 466.359 516.683 466.686 520.46 467.546C521.987 467.894 522.667 468.252 523.097 468.53C523.588 468.846 524.273 469.395 525.493 470.698C525.625 470.882 525.802 471.134 526.033 471.465C526.664 472.37 527.572 473.694 528.757 475.438C531.12 478.916 534.501 483.941 538.797 490.358C547.385 503.184 559.577 521.496 574.481 543.947C604.286 588.846 644.908 650.262 689.165 717.381C777.692 851.637 898.746 1034.95 958.209 1124.95C958.21 1124.95 958.211 1124.95 958.212 1124.95L1066.2 1288.53L1073.08 1298.95L1083.51 1292.08L1088.91 1288.52C1088.92 1288.52 1088.94 1288.51 1088.95 1288.5C1138.36 1256.37 1190.4 1210.81 1231.64 1163.33C1319.46 1062.48 1376.09 939.477 1395.1 808.295C1400.68 770.068 1401.37 758.37 1401.37 707.167C1401.37 655.964 1400.68 644.266 1395.1 606.039C1357.35 345.195 1171.78 126.122 920.097 44.9385C875.605 30.5165 828.378 20.6266 775.662 14.679L775.608 14.673L775.555 14.6675C768.465 13.929 742.531 13.2305 717.816 12.8353C693.315 12.4436 667.605 12.3056 661.111 12.921C660.347 12.9905 659.234 13.0968 657.866 13.2274C653.608 13.6338 646.891 14.2749 640.618 14.7727ZM1039.71 1298.29C1039.72 1298.3 1039.72 1298.3 1039.72 1298.29C1039.72 1298.29 1039.72 1298.29 1039.71 1298.29ZM520.357 1004.84C520.357 1004.84 520.361 1004.82 520.368 1004.79C520.362 1004.83 520.358 1004.84 520.357 1004.84ZM1022.37 1316.18C1022.34 1316.16 1022.32 1316.14 1022.29 1316.12C1022.32 1316.14 1022.34 1316.16 1022.37 1316.18ZM935.458 448.834L935.654 448.941L935.854 449.04C939.035 450.631 941.609 453.662 942.661 456.364C942.698 456.912 942.74 457.696 942.782 458.754C942.885 461.291 942.98 465.008 943.065 470.001C943.235 479.965 943.359 494.71 943.443 514.621C943.609 554.428 943.609 614.69 943.476 698.215L943.146 896.007L923.783 866.322L923.778 866.314L923.773 866.307L883.417 804.631V634.108C883.417 577.793 883.551 533.834 883.784 503.583C883.9 488.451 884.041 476.788 884.202 468.736C884.283 464.701 884.367 461.636 884.453 459.519C884.487 458.695 884.518 458.066 884.547 457.606C885.865 453.735 888.268 450.984 891.294 449.311C892.938 448.471 893.357 448.306 895.211 448.102C898.174 447.778 903.113 447.694 913.847 447.694C923.909 447.694 929.05 447.772 932.22 448.072C934.482 448.285 934.902 448.521 935.342 448.769C935.38 448.791 935.419 448.812 935.458 448.834ZM942.609 455.721C942.596 455.629 942.59 455.571 942.589 455.556C942.588 455.537 942.596 455.587 942.609 455.721Z" fill="black" stroke="white" stroke-width="25"/>
</svg>
