<svg width="601" height="601" viewBox="0 0 601 601" fill="none" xmlns="http://www.w3.org/2000/svg">
<path d="M49.305 2.81895C26.6919 8.84186 9.02958 26.9106 3.00834 49.7976C-0.0691852 61.3081 -0.0691852 539.661 3.00834 551.171C9.02958 574.326 26.8257 592.261 49.8402 598.284C61.4813 601.228 384.621 601.362 400.41 598.284C413.389 595.874 428.108 588.781 438.812 579.813C463.968 558.934 575.16 460.694 580.111 455.072C587.604 446.239 596.033 429.241 598.442 417.596C601.519 403.141 601.386 61.1742 598.442 49.5299C592.421 26.5091 574.491 8.70802 551.342 2.68511C539.969 -0.259422 60.4108 -0.12558 49.305 2.81895ZM547.73 46.9869C549.737 48.4592 552.681 51.4037 554.152 53.4113C556.962 57.0251 556.962 57.962 557.364 210.944L557.631 364.729H478.954C393.72 364.729 392.649 364.863 378.065 372.224C368.564 377.042 356.79 388.686 351.705 398.055C343.677 413.18 343.543 414.786 343.543 489.47V557.462L200.505 557.194C58.2699 556.792 57.3333 556.792 53.7205 553.982C51.7135 552.51 48.7698 549.565 47.2979 547.557L44.488 543.944L44.0866 304.098C43.9528 172.13 44.0866 62.3788 44.488 59.9696C45.4246 54.6159 51.0444 47.79 56.5305 45.3808C59.8756 43.9086 103.362 43.6409 302.331 43.9086L544.117 44.1762L547.73 46.9869ZM556.293 409.566C556.293 413.313 550.673 423.485 545.723 428.839C543.047 431.784 511.067 460.292 474.672 492.013C408.84 549.565 402.551 554.383 390.776 556.792L386.361 557.729V491.344C386.361 447.711 386.896 423.887 387.832 421.344C389.706 416.392 394.121 411.574 399.072 409.432C402.283 408.094 418.875 407.692 479.757 407.558C547.195 407.558 556.293 407.826 556.293 409.566Z" fill="white"/>
<path d="M142.166 152.455C133.201 156.337 128.116 166.642 129.99 176.681C131.194 182.971 137.884 190.333 143.905 192.072C147.251 193.143 197.561 193.411 303.669 193.143C457.545 192.742 458.482 192.742 462.094 189.931C469.186 184.711 471.327 180.428 471.327 171.996C471.327 163.564 469.186 159.281 462.094 154.061C458.482 151.251 457.679 151.251 302.331 150.983C174.547 150.715 145.377 150.983 142.166 152.455Z" fill="white"/>
<path d="M142.166 238.114C133.201 241.995 128.116 252.301 129.99 262.339C131.194 268.63 137.884 275.991 143.905 277.731C147.251 278.802 197.561 279.07 303.669 278.802C457.545 278.4 458.482 278.4 462.094 275.59C469.186 270.37 471.327 266.087 471.327 257.655C471.327 249.223 469.186 244.94 462.094 239.72C458.482 236.909 457.679 236.909 302.331 236.642C174.547 236.374 145.377 236.642 142.166 238.114Z" fill="white"/>
<path d="M142.166 323.773C133.201 327.654 128.116 337.96 129.99 347.998C131.194 354.289 137.884 361.65 143.905 363.39C147.251 364.461 171.871 364.729 218.034 364.461C285.471 364.06 287.211 363.926 290.824 361.249C297.915 356.029 300.056 351.746 300.056 343.314C300.056 334.882 297.915 330.599 290.824 325.379C287.211 322.568 285.471 322.568 216.695 322.301C160.096 322.033 145.377 322.301 142.166 323.773Z" fill="white"/>
<path d="M142.166 409.432C133.201 413.314 128.116 423.619 129.99 433.658C131.194 439.948 137.884 447.31 143.905 449.05C147.251 450.12 171.871 450.388 218.034 450.12C285.471 449.719 287.211 449.585 290.824 446.908C297.915 441.688 300.056 437.405 300.056 428.973C300.056 420.541 297.915 416.258 290.824 411.038C287.211 408.228 285.471 408.228 216.695 407.96C160.096 407.692 145.377 407.96 142.166 409.432Z" fill="white"/>
</svg>
