<svg width="272" height="272" viewBox="0 0 272 272" fill="none" xmlns="http://www.w3.org/2000/svg">
<circle cx="136" cy="136" r="131" fill="#161957" stroke="white" stroke-width="10"/>
<path d="M61.7679 175.631L96.3455 226.366C98.8802 230.09 103.558 231.809 107.967 230.635L205.205 204.68C206.682 204.299 208.058 203.599 209.233 202.628C210.409 201.658 211.356 200.44 212.007 199.063C212.658 197.685 212.997 196.182 213 194.659C213.003 193.136 212.67 191.631 212.025 190.251L140.239 42.3985C139.9 41.7064 139.38 41.1186 138.734 40.6971C138.089 40.2756 137.341 40.036 136.57 40.0038C135.799 39.9715 135.033 40.1477 134.354 40.5137C133.675 40.8797 133.108 41.4221 132.712 42.0834L61.4236 164.677C60.4346 166.348 59.9426 168.266 60.0053 170.205C60.068 172.145 60.6731 174.027 61.7679 175.631Z" stroke="white" stroke-width="10" stroke-linecap="round" stroke-linejoin="round"/>
<path d="M103 231L136 40" stroke="white" stroke-width="10" stroke-linecap="round" stroke-linejoin="round"/>
<path d="M59 172L133 45.5L101 230L59 172Z" fill="white"/>
</svg>
