<svg width="14" height="12" viewBox="0 0 14 12" fill="none" xmlns="http://www.w3.org/2000/svg">
<path d="M5.002 1.99898C5.002 1.46907 5.2125 0.960875 5.5872 0.586177C5.9619 0.211479 6.4701 0.000976563 7 0.000976562C7.5299 0.000976563 8.0381 0.211479 8.4128 0.586177C8.7875 0.960875 8.998 1.46907 8.998 1.99898C8.998 2.52888 8.7875 3.03708 8.4128 3.41178C8.0381 3.78647 7.5299 3.99698 7 3.99698C6.4701 3.99698 5.9619 3.78647 5.5872 3.41178C5.2125 3.03708 5.002 2.52888 5.002 1.99898ZM7 1.00098C6.86894 1.00098 6.73916 1.02679 6.61808 1.07694C6.497 1.1271 6.38698 1.20061 6.29431 1.29328C6.20163 1.38596 6.12812 1.49598 6.07797 1.61706C6.02781 1.73814 6.002 1.86792 6.002 1.99898C6.002 2.13004 6.02781 2.25981 6.07797 2.38089C6.12812 2.50198 6.20163 2.612 6.29431 2.70467C6.38698 2.79734 6.497 2.87085 6.61808 2.92101C6.73916 2.97116 6.86894 2.99698 7 2.99698C7.26469 2.99698 7.51853 2.89183 7.70569 2.70467C7.89285 2.51751 7.998 2.26366 7.998 1.99898C7.998 1.73429 7.89285 1.48045 7.70569 1.29328C7.51853 1.10612 7.26469 1.00098 7 1.00098ZM10 2.49898C10 2.30199 10.0388 2.10694 10.1142 1.92495C10.1896 1.74296 10.3001 1.5776 10.4393 1.43832C10.5786 1.29903 10.744 1.18854 10.926 1.11316C11.108 1.03777 11.303 0.998976 11.5 0.998976C11.697 0.998976 11.892 1.03777 12.074 1.11316C12.256 1.18854 12.4214 1.29903 12.5607 1.43832C12.6999 1.5776 12.8104 1.74296 12.8858 1.92495C12.9612 2.10694 13 2.30199 13 2.49898C13 2.8968 12.842 3.27833 12.5607 3.55964C12.2794 3.84094 11.8978 3.99898 11.5 3.99898C11.1022 3.99898 10.7206 3.84094 10.4393 3.55964C10.158 3.27833 10 2.8968 10 2.49898ZM11.5 1.99898C11.3674 1.99898 11.2402 2.05165 11.1464 2.14542C11.0527 2.23919 11 2.36637 11 2.49898C11 2.63158 11.0527 2.75876 11.1464 2.85253C11.2402 2.9463 11.3674 2.99898 11.5 2.99898C11.6326 2.99898 11.7598 2.9463 11.8536 2.85253C11.9473 2.75876 12 2.63158 12 2.49898C12 2.36637 11.9473 2.23919 11.8536 2.14542C11.7598 2.05165 11.6326 1.99898 11.5 1.99898ZM2.5 0.998976C2.10218 0.998976 1.72064 1.15701 1.43934 1.43832C1.15804 1.71962 1 2.10115 1 2.49898C1 2.8968 1.15804 3.27833 1.43934 3.55964C1.72064 3.84094 2.10218 3.99898 2.5 3.99898C2.89782 3.99898 3.27936 3.84094 3.56066 3.55964C3.84197 3.27833 4 2.8968 4 2.49898C4 2.10115 3.84197 1.71962 3.56066 1.43832C3.27936 1.15701 2.89782 0.998976 2.5 0.998976ZM2 2.49898C2 2.36637 2.05268 2.23919 2.14645 2.14542C2.24022 2.05165 2.36739 1.99898 2.5 1.99898C2.63261 1.99898 2.75979 2.05165 2.85355 2.14542C2.94732 2.23919 3 2.36637 3 2.49898C3 2.63158 2.94732 2.75876 2.85355 2.85253C2.75979 2.9463 2.63261 2.99898 2.5 2.99898C2.36739 2.99898 2.24022 2.9463 2.14645 2.85253C2.05268 2.75876 2 2.63158 2 2.49898ZM3.268 4.99898C3.09201 5.30283 2.99954 5.64784 3 5.99898H1V8.49898C0.999919 8.74771 1.0617 8.99257 1.17977 9.21149C1.29784 9.43042 1.4685 9.61655 1.67639 9.75313C1.88428 9.8897 2.12286 9.97244 2.37068 9.99388C2.61849 10.0153 2.86774 9.97481 3.096 9.87598C3.17 10.207 3.286 10.523 3.436 10.818C3.05646 10.9712 2.64511 11.0289 2.23806 10.986C1.831 10.9432 1.44071 10.801 1.10144 10.572C0.762176 10.343 0.48432 10.0343 0.292273 9.67281C0.100226 9.31136 -0.000136048 8.90828 1.38413e-07 8.49898V5.99898C1.38413e-07 5.73376 0.105357 5.47941 0.292893 5.29187C0.48043 5.10433 0.734784 4.99898 1 4.99898H3.268ZM10.564 10.818C10.9435 10.9712 11.3549 11.0289 11.7619 10.986C12.169 10.9432 12.5593 10.801 12.8986 10.572C13.2378 10.343 13.5157 10.0343 13.7077 9.67281C13.8998 9.31136 14.0001 8.90828 14 8.49898V5.99898C14 5.73376 13.8946 5.47941 13.7071 5.29187C13.5196 5.10433 13.2652 4.99898 13 4.99898H10.732C10.902 5.29298 11 5.63398 11 5.99898H13V8.49898C13.0001 8.74771 12.9383 8.99257 12.8202 9.21149C12.7022 9.43042 12.5315 9.61655 12.3236 9.75313C12.1157 9.8897 11.8771 9.97244 11.6293 9.99388C11.3815 10.0153 11.1323 9.97481 10.904 9.87598C10.829 10.207 10.714 10.523 10.564 10.818ZM5 4.99798C4.73478 4.99798 4.48043 5.10333 4.29289 5.29087C4.10536 5.47841 4 5.73276 4 5.99798V8.99898C4 9.79463 4.31607 10.5577 4.87868 11.1203C5.44129 11.6829 6.20435 11.999 7 11.999C7.79565 11.999 8.55871 11.6829 9.12132 11.1203C9.68393 10.5577 10 9.79463 10 8.99898V5.99898C10 5.73376 9.89464 5.47941 9.70711 5.29187C9.51957 5.10433 9.26522 4.99898 9 4.99898H5V4.99798ZM5 5.99798H9V8.99898C9 9.52941 8.78929 10.0381 8.41421 10.4132C8.03914 10.7883 7.53043 10.999 7 10.999C6.46957 10.999 5.96086 10.7883 5.58579 10.4132C5.21071 10.0381 5 9.52941 5 8.99898V5.99798Z" fill="white"/>
</svg>
