<svg width="80" height="80" viewBox="0 0 80 80" fill="none" xmlns="http://www.w3.org/2000/svg">
<path d="M68.3417 11.6402C64.6561 7.93594 60.2661 4.99891 55.4277 3.00044C50.5893 1.00198 45.3995 -0.0179205 40.1608 0.000238279C18.2111 0.000238279 0.321609 17.8002 0.321609 39.6402C0.321609 46.6402 2.17085 53.4402 5.62814 59.4402L0 80.0002L21.1055 74.4802C26.9347 77.6402 33.4874 79.3202 40.1608 79.3202C62.1105 79.3202 80 61.5202 80 39.6802C80 29.0802 75.8593 19.1202 68.3417 11.6402ZM40.1608 72.6002C34.2111 72.6002 28.3819 71.0002 23.2764 68.0002L22.0703 67.2802L9.52764 70.5602L12.8643 58.4002L12.0603 57.1602C8.75476 51.9081 6.99956 45.8372 6.99497 39.6402C6.99497 21.4802 21.8693 6.68024 40.1206 6.68024C48.9648 6.68024 57.2864 10.1202 63.5176 16.3602C66.6029 19.4161 69.048 23.0509 70.7111 27.0539C72.3742 31.057 73.2222 35.3487 73.206 39.6802C73.2864 57.8402 58.4121 72.6002 40.1608 72.6002ZM58.3316 47.9602C57.3266 47.4802 52.4221 45.0802 51.5377 44.7202C50.6131 44.4002 49.9698 44.2402 49.2864 45.2002C48.603 46.2002 46.7136 48.4402 46.1507 49.0802C45.5879 49.7602 44.9849 49.8402 43.9799 49.3202C42.9749 48.8402 39.7588 47.7602 35.9799 44.4002C33.005 41.7602 31.0352 38.5202 30.4322 37.5202C29.8693 36.5202 30.3518 36.0002 30.8744 35.4802C31.3166 35.0402 31.8794 34.3202 32.3618 33.7602C32.8442 33.2002 33.0452 32.7602 33.3668 32.1202C33.6884 31.4402 33.5276 30.8802 33.2864 30.4002C33.0452 29.9202 31.0352 25.0402 30.2312 23.0402C29.4271 21.1202 28.5829 21.3602 27.9799 21.3202H26.0502C25.3668 21.3202 24.3216 21.5602 23.397 22.5602C22.5126 23.5602 19.9397 25.9602 19.9397 30.8402C19.9397 35.7202 23.5176 40.4402 24 41.0802C24.4824 41.7602 31.0352 51.7602 41.005 56.0402C43.3769 57.0802 45.2261 57.6802 46.6734 58.1202C49.0452 58.8802 51.2161 58.7602 52.9447 58.5202C54.8744 58.2402 58.8543 56.1202 59.6583 53.8002C60.5025 51.4802 60.5025 49.5202 60.2211 49.0802C59.9397 48.6402 59.3367 48.4402 58.3316 47.9602Z" fill="white"/>
</svg>
